InriaSans-Light.ufo
<glyph name="exclam" format="1">
  <advance width="280"/>
  <unicode hex="0021"/>
  <outline>
    <contour>
      <point x="165" y="172" type="line"/>
      <point x="170" y="410" type="line"/>
      <point x="170" y="680" type="line"/>
      <point x="110" y="680" type="line"/>
      <point x="110" y="410" type="line"/>
      <point x="115" y="172" type="line"/>
    </contour>
    <contour>
      <point x="176" y="0" type="line"/>
      <point x="176" y="73" type="line"/>
      <point x="104" y="73" type="line"/>
      <point x="104" y="0" type="line"/>
    </contour>
  </outline>
</glyph>
<glyph name="quotedbl" format="1">
  <advance width="332"/>
  <unicode hex="0022"/>
  <outline>
    <contour>
      <point x="113" y="458" type="line"/>
      <point x="121" y="614" type="line"/>
      <point x="121" y="680" type="line"/>
      <point x="59" y="680" type="line"/>
      <point x="59" y="614" type="line"/>
      <point x="67" y="458" type="line"/>
    </contour>
    <contour>
      <point x="265" y="458" type="line"/>
      <point x="273" y="614" type="line"/>
      <point x="273" y="680" type="line"/>
      <point x="211" y="680" type="line"/>
      <point x="211" y="614" type="line"/>
      <point x="219" y="458" type="line"/>
    </contour>
  </outline>
</glyph>
<glyph name="numbersign" format="1">
  <advance width="628"/>
  <unicode hex="0023"/>
  <outline>
    <contour>
      <point x="301" y="0" type="line"/>
      <point x="357" y="0" type="line"/>
      <point x="421" y="202" type="line"/>
      <point x="541" y="202" type="line"/>
      <point x="541" y="254" type="line"/>
      <point x="437" y="254" type="line"/>
      <point x="491" y="426" type="line"/>
      <point x="611" y="426" type="line"/>
      <point x="611" y="478" type="line"/>
      <point x="507" y="478" type="line"/>
      <point x="571" y="680" type="line"/>
      <point x="515" y="680" type="line"/>
      <point x="451" y="478" type="line"/>
      <point x="263" y="478" type="line"/>
      <point x="327" y="680" type="line"/>
      <point x="271" y="680" type="line"/>
      <point x="207" y="478" type="line"/>
      <point x="87" y="478" type="line"/>
      <point x="87" y="426" type="line"/>
      <point x="191" y="426" type="line"/>
      <point x="137" y="254" type="line"/>
      <point x="17" y="254" type="line"/>
      <point x="17" y="202" type="line"/>
      <point x="121" y="202" type="line"/>
      <point x="57" y="0" type="line"/>
      <point x="113" y="0" type="line"/>
      <point x="177" y="202" type="line"/>
      <point x="365" y="202" type="line"/>
    </contour>
    <contour>
      <point x="193" y="254" type="line"/>
      <point x="247" y="426" type="line"/>
      <point x="435" y="426" type="line"/>
      <point x="381" y="254" type="line"/>
    </contour>
  </outline>
</glyph>
<glyph name="dollar" format="1">
  <advance width="499"/>
  <unicode hex="0024"/>
  <outline>
    <contour>
      <point x="454" y="178" type="curve" smooth="yes"/>
      <point x="454" y="275"/>
      <point x="402" y="342"/>
      <point x="300" y="370" type="curve" smooth="yes"/>
      <point x="220" y="392" type="line" smooth="yes"/>
      <point x="138" y="415"/>
      <point x="113" y="457"/>
      <point x="113" y="515" type="curve" smooth="yes"/>
      <point x="113" y="597"/>
      <point x="161" y="633"/>
      <point x="247" y="633" type="curve" smooth="yes"/>
      <point x="295" y="633"/>
      <point x="349" y="620"/>
      <point x="413" y="590" type="curve"/>
      <point x="435" y="646" type="line"/>
      <point x="385" y="669"/>
      <point x="334" y="683"/>
      <point x="287" y="688" type="curve"/>
      <point x="287" y="805" type="line"/>
      <point x="227" y="805" type="line"/>
      <point x="227" y="689" type="line"/>
      <point x="93" y="682"/>
      <point x="47" y="602"/>
      <point x="47" y="510" type="curve" smooth="yes"/>
      <point x="47" y="423"/>
      <point x="91" y="360"/>
      <point x="196" y="331" type="curve" smooth="yes"/>
      <point x="276" y="309" type="line" smooth="yes"/>
      <point x="354" y="288"/>
      <point x="388" y="236"/>
      <point x="388" y="170" type="curve" smooth="yes"/>
      <point x="388" y="90"/>
      <point x="336" y="47"/>
      <point x="247" y="47" type="curve" smooth="yes"/>
      <point x="185" y="47"/>
      <point x="130" y="59"/>
      <point x="62" y="91" type="curve"/>
      <point x="41" y="36" type="line"/>
      <point x="104" y="7"/>
      <point x="169" y="-7"/>
      <point x="227" y="-10" type="curve"/>
      <point x="227" y="-125" type="line"/>
      <point x="287" y="-125" type="line"/>
      <point x="287" y="-8" type="line"/>
      <point x="404" y="5"/>
      <point x="454" y="78"/>
    </contour>
  </outline>
</glyph>
<glyph name="ampersand" format="1">
  <advance width="560"/>
  <unicode hex="0026"/>
  <outline>
    <contour>
      <point x="232" y="45" type="curve" smooth="yes"/>
      <point x="163" y="45"/>
      <point x="109" y="81"/>
      <point x="109" y="163" type="curve" smooth="yes"/>
      <point x="109" y="228"/>
      <point x="144" y="269"/>
      <point x="225" y="316" type="curve" smooth="yes"/>
      <point x="296" y="357" type="line" smooth="yes"/>
      <point x="367" y="398"/>
      <point x="416" y="448"/>
      <point x="416" y="537" type="curve" smooth="yes"/>
      <point x="416" y="636"/>
      <point x="354" y="690"/>
      <point x="255" y="690" type="curve" smooth="yes"/>
      <point x="147" y="690"/>
      <point x="87" y="626"/>
      <point x="87" y="539" type="curve" smooth="yes"/>
      <point x="87" y="476"/>
      <point x="119" y="416"/>
      <point x="183" y="357" type="curve"/>
      <point x="95" y="303"/>
      <point x="46" y="253"/>
      <point x="46" y="163" type="curve" smooth="yes"/>
      <point x="46" y="59"/>
      <point x="113" y="-10"/>
      <point x="232" y="-10" type="curve" smooth="yes"/>
      <point x="340" y="-10"/>
      <point x="406" y="50"/>
      <point x="410" y="129" type="curve"/>
      <point x="490" y="0" type="line"/>
      <point x="560" y="0" type="line"/>
      <point x="392" y="266" type="line"/>
      <point x="343" y="236" type="line"/>
      <point x="398" y="133"/>
      <point x="340" y="45"/>
    </contour>
    <contour>
      <point x="149" y="539" type="curve" smooth="yes"/>
      <point x="149" y="604"/>
      <point x="193" y="637"/>
      <point x="256" y="637" type="curve" smooth="yes"/>
      <point x="313" y="637"/>
      <point x="354" y="608"/>
      <point x="354" y="539" type="curve" smooth="yes"/>
      <point x="354" y="475"/>
      <point x="319" y="438"/>
      <point x="268" y="408" type="curve" smooth="yes"/>
      <point x="230" y="385" type="line"/>
      <point x="169" y="448"/>
      <point x="149" y="496"/>
    </contour>
  </outline>
</glyph>
<glyph name="quotesingle" format="1">
  <advance width="180"/>
  <unicode hex="0027"/>
  <outline>
    <contour>
      <point x="113" y="458" type="line"/>
      <point x="121" y="614" type="line"/>
      <point x="121" y="680" type="line"/>
      <point x="59" y="680" type="line"/>
      <point x="59" y="614" type="line"/>
      <point x="67" y="458" type="line"/>
    </contour>
  </outline>
</glyph>
<glyph name="parenleft" format="1">
  <advance width="304"/>
  <unicode hex="0028"/>
  <outline>
    <contour>
      <point x="68" y="317" type="curve" smooth="yes"/>
      <point x="68" y="280" type="line" smooth="yes"/>
      <point x="68" y="115"/>
      <point x="127" y="-35"/>
      <point x="261" y="-153" type="curve"/>
      <point x="300" y="-111" type="line"/>
      <point x="183" y="1"/>
      <point x="131" y="127"/>
      <point x="131" y="280" type="curve" smooth="yes"/>
      <point x="131" y="317" type="line" smooth="yes"/>
      <point x="131" y="470"/>
      <point x="183" y="596"/>
      <point x="300" y="708" type="curve"/>
      <point x="261" y="750" type="line"/>
      <point x="127" y="632"/>
      <point x="68" y="482"/>
    </contour>
  </outline>
</glyph>
<glyph name="parenright" format="1">
  <advance width="304"/>
  <unicode hex="0029"/>
  <outline>
    <contour>
      <point x="236" y="280" type="curve" smooth="yes"/>
      <point x="236" y="317" type="line" smooth="yes"/>
      <point x="236" y="482"/>
      <point x="177" y="632"/>
      <point x="43" y="750" type="curve"/>
      <point x="4" y="708" type="line"/>
      <point x="121" y="596"/>
      <point x="173" y="470"/>
      <point x="173" y="317" type="curve" smooth="yes"/>
      <point x="173" y="280" type="line" smooth="yes"/>
      <point x="173" y="127"/>
      <point x="121" y="1"/>
      <point x="4" y="-111" type="curve"/>
      <point x="43" y="-153" type="line"/>
      <point x="177" y="-35"/>
      <point x="236" y="115"/>
    </contour>
  </outline>
</glyph>
<glyph name="asterisk" format="1">
  <advance width="402"/>
  <unicode hex="002A"/>
  <outline>
    <contour>
      <point x="336" y="358" type="line"/>
      <point x="324" y="374" type="line"/>
      <point x="226" y="484" type="line"/>
      <point x="370" y="515" type="line"/>
      <point x="389" y="522" type="line"/>
      <point x="371" y="579" type="line"/>
      <point x="352" y="572" type="line"/>
      <point x="216" y="513" type="line"/>
      <point x="231" y="660" type="line"/>
      <point x="231" y="680" type="line"/>
      <point x="171" y="680" type="line"/>
      <point x="171" y="660" type="line"/>
      <point x="186" y="513" type="line"/>
      <point x="50" y="572" type="line"/>
      <point x="31" y="579" type="line"/>
      <point x="13" y="522" type="line"/>
      <point x="32" y="515" type="line"/>
      <point x="176" y="484" type="line"/>
      <point x="78" y="374" type="line"/>
      <point x="66" y="358" type="line"/>
      <point x="115" y="322" type="line"/>
      <point x="127" y="338" type="line"/>
      <point x="201" y="466" type="line"/>
      <point x="275" y="338" type="line"/>
      <point x="287" y="322" type="line"/>
    </contour>
  </outline>
</glyph>
<glyph name="plus" format="1">
  <advance width="588"/>
  <unicode hex="002B"/>
  <outline>
    <contour>
      <point x="501" y="268" type="line"/>
      <point x="501" y="321" type="line"/>
      <point x="322" y="321" type="line"/>
      <point x="322" y="506" type="line"/>
      <point x="266" y="506" type="line"/>
      <point x="266" y="321" type="line"/>
      <point x="87" y="321" type="line"/>
      <point x="87" y="268" type="line"/>
      <point x="266" y="268" type="line"/>
      <point x="266" y="83" type="line"/>
      <point x="322" y="83" type="line"/>
      <point x="322" y="268" type="line"/>
    </contour>
  </outline>
</glyph>
<glyph name="comma" format="1">
  <advance width="180"/>
  <unicode hex="002C"/>
  <outline>
    <contour>
      <point x="121" y="73" type="line"/>
      <point x="59" y="73" type="line"/>
      <point x="59" y="-33"/>
      <point x="47" y="-87"/>
      <point x="2" y="-175" type="curve"/>
      <point x="44" y="-199" type="line"/>
      <point x="100" y="-109"/>
      <point x="121" y="-34"/>
      <point x="121" y="54" type="curve" smooth="yes"/>
    </contour>
  </outline>
</glyph>
<glyph name="hyphen" format="1">
  <advance width="384"/>
  <unicode hex="002D"/>
  <outline>
    <contour>
      <point x="60" y="269" type="line"/>
      <point x="324" y="269" type="line"/>
      <point x="324" y="322" type="line"/>
      <point x="60" y="322" type="line"/>
    </contour>
  </outline>
</glyph>
<glyph name="period" format="1">
  <advance width="180"/>
  <unicode hex="002E"/>
  <outline>
    <contour>
      <point x="126" y="0" type="line"/>
      <point x="126" y="73" type="line"/>
      <point x="54" y="73" type="line"/>
      <point x="54" y="0" type="line"/>
    </contour>
  </outline>
</glyph>
<glyph name="slash" format="1">
  <advance width="344"/>
  <unicode hex="002F"/>
  <outline>
    <contour>
      <point x="292" y="740" type="line"/>
      <point x="-39" y="-143" type="line"/>
      <point x="22" y="-143" type="line"/>
      <point x="353" y="740" type="line"/>
    </contour>
  </outline>
</glyph>
<glyph name="zero" format="1">
  <advance width="616"/>
  <unicode hex="0030"/>
  <outline>
    <contour>
      <point x="532" y="417" type="line" smooth="yes"/>
      <point x="532" y="602"/>
      <point x="444" y="690"/>
      <point x="308" y="690" type="curve" smooth="yes"/>
      <point x="172" y="690"/>
      <point x="84" y="602"/>
      <point x="84" y="417" type="curve" smooth="yes"/>
      <point x="84" y="264" type="line" smooth="yes"/>
      <point x="84" y="78"/>
      <point x="171" y="-10"/>
      <point x="308" y="-10" type="curve" smooth="yes"/>
      <point x="445" y="-10"/>
      <point x="532" y="78"/>
      <point x="532" y="264" type="curve" smooth="yes"/>
    </contour>
    <contour>
      <point x="466" y="417" type="curve" smooth="yes"/>
      <point x="466" y="264" type="line" smooth="yes"/>
      <point x="466" y="109"/>
      <point x="403" y="47"/>
      <point x="308" y="47" type="curve" smooth="yes"/>
      <point x="214" y="47"/>
      <point x="150" y="109"/>
      <point x="150" y="264" type="curve" smooth="yes"/>
      <point x="150" y="417" type="line" smooth="yes"/>
      <point x="150" y="573"/>
      <point x="214" y="633"/>
      <point x="308" y="633" type="curve" smooth="yes"/>
      <point x="403" y="633"/>
      <point x="466" y="573"/>
    </contour>
  </outline>
</glyph>
<glyph name="one" format="1">
  <advance width="360"/>
  <unicode hex="0031"/>
  <outline>
    <contour>
      <point x="25" y="588" type="line"/>
      <point x="54" y="540" type="line"/>
      <point x="182" y="615" type="line"/>
      <point x="182" y="0" type="line"/>
      <point x="245" y="0" type="line"/>
      <point x="245" y="680" type="line"/>
      <point x="180" y="680" type="line"/>
    </contour>
  </outline>
</glyph>
<glyph name="two" format="1">
  <advance width="485"/>
  <unicode hex="0032"/>
  <outline>
    <contour>
      <point x="425" y="0" type="line"/>
      <point x="425" y="57" type="line"/>
      <point x="115" y="57" type="line"/>
      <point x="117" y="165"/>
      <point x="149" y="232"/>
      <point x="223" y="271" type="curve" smooth="yes"/>
      <point x="286" y="304" type="line" smooth="yes"/>
      <point x="359" y="342"/>
      <point x="427" y="387"/>
      <point x="427" y="493" type="curve" smooth="yes"/>
      <point x="427" y="510" type="line" smooth="yes"/>
      <point x="427" y="623"/>
      <point x="367" y="690"/>
      <point x="228" y="690" type="curve" smooth="yes"/>
      <point x="173" y="690"/>
      <point x="108" y="678"/>
      <point x="47" y="649" type="curve"/>
      <point x="69" y="597" type="line"/>
      <point x="128" y="624"/>
      <point x="182" y="633"/>
      <point x="228" y="633" type="curve" smooth="yes"/>
      <point x="313" y="633"/>
      <point x="364" y="600"/>
      <point x="364" y="510" type="curve" smooth="yes"/>
      <point x="364" y="493" type="line" smooth="yes"/>
      <point x="364" y="418"/>
      <point x="321" y="389"/>
      <point x="253" y="353" type="curve" smooth="yes"/>
      <point x="190" y="320" type="line" smooth="yes"/>
      <point x="111" y="279"/>
      <point x="52" y="200"/>
      <point x="52" y="47" type="curve" smooth="yes"/>
      <point x="52" y="0" type="line"/>
    </contour>
  </outline>
</glyph>
<glyph name="three" format="1">
  <advance width="497"/>
  <unicode hex="0033"/>
  <outline>
    <contour>
      <point x="424" y="173" type="curve" smooth="yes"/>
      <point x="424" y="190" type="line" smooth="yes"/>
      <point x="424" y="263"/>
      <point x="386" y="317"/>
      <point x="325" y="344" type="curve"/>
      <point x="384" y="370"/>
      <point x="417" y="423"/>
      <point x="417" y="493" type="curve" smooth="yes"/>
      <point x="417" y="507" type="line" smooth="yes"/>
      <point x="417" y="620"/>
      <point x="353" y="690"/>
      <point x="216" y="690" type="curve" smooth="yes"/>
      <point x="160" y="690"/>
      <point x="98" y="677"/>
      <point x="38" y="649" type="curve"/>
      <point x="60" y="597" type="line"/>
      <point x="118" y="624"/>
      <point x="169" y="633"/>
      <point x="216" y="633" type="curve" smooth="yes"/>
      <point x="299" y="633"/>
      <point x="351" y="598"/>
      <point x="351" y="507" type="curve" smooth="yes"/>
      <point x="351" y="493" type="line" smooth="yes"/>
      <point x="351" y="418"/>
      <point x="312" y="371"/>
      <point x="226" y="371" type="curve" smooth="yes"/>
      <point x="130" y="371" type="line"/>
      <point x="130" y="316" type="line"/>
      <point x="226" y="316" type="line" smooth="yes"/>
      <point x="316" y="316"/>
      <point x="358" y="267"/>
      <point x="358" y="190" type="curve" smooth="yes"/>
      <point x="358" y="173" type="line" smooth="yes"/>
      <point x="358" y="82"/>
      <point x="302" y="47"/>
      <point x="213" y="47" type="curve" smooth="yes"/>
      <point x="162" y="47"/>
      <point x="107" y="55"/>
      <point x="45" y="84" type="curve"/>
      <point x="25" y="32" type="line"/>
      <point x="88" y="3"/>
      <point x="154" y="-10"/>
      <point x="213" y="-10" type="curve" smooth="yes"/>
      <point x="357" y="-10"/>
      <point x="424" y="60"/>
    </contour>
  </outline>
</glyph>
<glyph name="four" format="1">
  <advance width="496"/>
  <unicode hex="0034"/>
  <outline>
    <contour>
      <point x="465" y="170" type="line"/>
      <point x="465" y="226" type="line"/>
      <point x="388" y="226" type="line"/>
      <point x="388" y="364" type="line"/>
      <point x="328" y="364" type="line"/>
      <point x="328" y="226" type="line"/>
      <point x="106" y="226" type="line"/>
      <point x="216" y="391"/>
      <point x="290" y="528"/>
      <point x="350" y="680" type="curve"/>
      <point x="284" y="680" type="line"/>
      <point x="226" y="526"/>
      <point x="147" y="384"/>
      <point x="36" y="216" type="curve"/>
      <point x="36" y="170" type="line"/>
      <point x="328" y="170" type="line"/>
      <point x="328" y="0" type="line"/>
      <point x="388" y="0" type="line"/>
      <point x="388" y="170" type="line"/>
    </contour>
  </outline>
</glyph>
<glyph name="five" format="1">
  <advance width="500"/>
  <unicode hex="0035"/>
  <outline>
    <contour>
      <point x="70" y="356" type="line"/>
      <point x="111" y="328" type="line"/>
      <point x="153" y="349"/>
      <point x="193" y="360"/>
      <point x="238" y="360" type="curve" smooth="yes"/>
      <point x="330" y="360"/>
      <point x="378" y="305"/>
      <point x="378" y="222" type="curve" smooth="yes"/>
      <point x="378" y="190" type="line" smooth="yes"/>
      <point x="378" y="86"/>
      <point x="322" y="47"/>
      <point x="233" y="47" type="curve" smooth="yes"/>
      <point x="182" y="47"/>
      <point x="127" y="55"/>
      <point x="65" y="84" type="curve"/>
      <point x="45" y="32" type="line"/>
      <point x="108" y="3"/>
      <point x="174" y="-10"/>
      <point x="233" y="-10" type="curve" smooth="yes"/>
      <point x="377" y="-10"/>
      <point x="444" y="67"/>
      <point x="444" y="190" type="curve" smooth="yes"/>
      <point x="444" y="222" type="line" smooth="yes"/>
      <point x="444" y="351"/>
      <point x="361" y="417"/>
      <point x="241" y="417" type="curve" smooth="yes"/>
      <point x="202" y="417"/>
      <point x="166" y="410"/>
      <point x="134" y="398" type="curve"/>
      <point x="147" y="623" type="line"/>
      <point x="421" y="623" type="line"/>
      <point x="421" y="680" type="line"/>
      <point x="90" y="680" type="line"/>
    </contour>
  </outline>
</glyph>
<glyph name="six" format="1">
  <advance width="561"/>
  <unicode hex="0036"/>
  <outline>
    <contour>
      <point x="505" y="186" type="curve" smooth="yes"/>
      <point x="505" y="223" type="line" smooth="yes"/>
      <point x="505" y="341"/>
      <point x="437" y="418"/>
      <point x="321" y="418" type="curve" smooth="yes"/>
      <point x="253" y="418"/>
      <point x="196" y="387"/>
      <point x="147" y="345" type="curve"/>
      <point x="147" y="418" type="line" smooth="yes"/>
      <point x="147" y="576"/>
      <point x="212" y="633"/>
      <point x="315" y="633" type="curve" smooth="yes"/>
      <point x="355" y="633"/>
      <point x="406" y="624"/>
      <point x="463" y="599" type="curve"/>
      <point x="485" y="651" type="line"/>
      <point x="423" y="680"/>
      <point x="362" y="690"/>
      <point x="313" y="690" type="curve" smooth="yes"/>
      <point x="174" y="690"/>
      <point x="86" y="603"/>
      <point x="86" y="418" type="curve" smooth="yes"/>
      <point x="86" y="265" type="line" smooth="yes"/>
      <point x="86" y="89"/>
      <point x="160" y="-10"/>
      <point x="300" y="-10" type="curve" smooth="yes"/>
      <point x="427" y="-10"/>
      <point x="505" y="67"/>
    </contour>
    <contour>
      <point x="147" y="265" type="curve" smooth="yes"/>
      <point x="147" y="283" type="line"/>
      <point x="194" y="329"/>
      <point x="253" y="361"/>
      <point x="316" y="361" type="curve" smooth="yes"/>
      <point x="397" y="361"/>
      <point x="444" y="309"/>
      <point x="444" y="223" type="curve" smooth="yes"/>
      <point x="444" y="186" type="line" smooth="yes"/>
      <point x="444" y="99"/>
      <point x="390" y="47"/>
      <point x="300" y="47" type="curve" smooth="yes"/>
      <point x="200" y="47"/>
      <point x="147" y="118"/>
    </contour>
  </outline>
</glyph>
<glyph name="seven" format="1">
  <advance width="474"/>
  <unicode hex="0037"/>
  <outline>
    <contour>
      <point x="431" y="633" type="curve"/>
      <point x="431" y="680" type="line"/>
      <point x="34" y="680" type="line"/>
      <point x="34" y="623" type="line"/>
      <point x="364" y="623" type="line"/>
      <point x="260" y="415"/>
      <point x="186" y="208"/>
      <point x="151" y="0" type="curve"/>
      <point x="216" y="0" type="line"/>
      <point x="251" y="211"/>
      <point x="326" y="421"/>
    </contour>
  </outline>
</glyph>
<glyph name="eight" format="1">
  <advance width="558"/>
  <unicode hex="0038"/>
  <outline>
    <contour>
      <point x="488" y="175" type="curve" smooth="yes"/>
      <point x="488" y="262"/>
      <point x="447" y="307"/>
      <point x="370" y="341" type="curve"/>
      <point x="442" y="390"/>
      <point x="472" y="445"/>
      <point x="472" y="514" type="curve" smooth="yes"/>
      <point x="472" y="611"/>
      <point x="413" y="690"/>
      <point x="279" y="690" type="curve" smooth="yes"/>
      <point x="143" y="690"/>
      <point x="86" y="601"/>
      <point x="86" y="513" type="curve" smooth="yes"/>
      <point x="86" y="434"/>
      <point x="122" y="382"/>
      <point x="186" y="349" type="curve"/>
      <point x="104" y="297"/>
      <point x="70" y="239"/>
      <point x="70" y="166" type="curve" smooth="yes"/>
      <point x="70" y="69"/>
      <point x="132" y="-10"/>
      <point x="275" y="-10" type="curve" smooth="yes"/>
      <point x="423" y="-10"/>
      <point x="488" y="71"/>
    </contour>
    <contour>
      <point x="261" y="383" type="line" smooth="yes"/>
      <point x="175" y="414"/>
      <point x="149" y="450"/>
      <point x="149" y="513" type="curve" smooth="yes"/>
      <point x="149" y="595"/>
      <point x="206" y="635"/>
      <point x="279" y="635" type="curve" smooth="yes"/>
      <point x="367" y="635"/>
      <point x="409" y="585"/>
      <point x="409" y="509" type="curve" smooth="yes"/>
      <point x="409" y="458"/>
      <point x="391" y="414"/>
      <point x="318" y="362" type="curve"/>
    </contour>
    <contour>
      <point x="133" y="172" type="curve" smooth="yes"/>
      <point x="133" y="225"/>
      <point x="154" y="272"/>
      <point x="237" y="327" type="curve"/>
      <point x="297" y="305" type="line" smooth="yes"/>
      <point x="393" y="270"/>
      <point x="425" y="244"/>
      <point x="425" y="170" type="curve" smooth="yes"/>
      <point x="425" y="88"/>
      <point x="369" y="45"/>
      <point x="275" y="45" type="curve" smooth="yes"/>
      <point x="178" y="45"/>
      <point x="133" y="95"/>
    </contour>
  </outline>
</glyph>
<glyph name="nine" format="1">
  <advance width="561"/>
  <unicode hex="0039"/>
  <outline>
    <contour>
      <point x="475" y="262" type="curve" smooth="yes"/>
      <point x="475" y="415" type="line" smooth="yes"/>
      <point x="475" y="591"/>
      <point x="401" y="690"/>
      <point x="261" y="690" type="curve" smooth="yes"/>
      <point x="134" y="690"/>
      <point x="56" y="613"/>
      <point x="56" y="494" type="curve" smooth="yes"/>
      <point x="56" y="457" type="line" smooth="yes"/>
      <point x="56" y="339"/>
      <point x="124" y="262"/>
      <point x="240" y="262" type="curve" smooth="yes"/>
      <point x="308" y="262"/>
      <point x="365" y="293"/>
      <point x="414" y="335" type="curve"/>
      <point x="414" y="262" type="line" smooth="yes"/>
      <point x="414" y="104"/>
      <point x="349" y="47"/>
      <point x="246" y="47" type="curve" smooth="yes"/>
      <point x="206" y="47"/>
      <point x="155" y="56"/>
      <point x="98" y="81" type="curve"/>
      <point x="76" y="29" type="line"/>
      <point x="138" y="0"/>
      <point x="199" y="-10"/>
      <point x="248" y="-10" type="curve" smooth="yes"/>
      <point x="387" y="-10"/>
      <point x="475" y="77"/>
    </contour>
    <contour>
      <point x="117" y="457" type="curve" smooth="yes"/>
      <point x="117" y="494" type="line" smooth="yes"/>
      <point x="117" y="581"/>
      <point x="171" y="633"/>
      <point x="261" y="633" type="curve" smooth="yes"/>
      <point x="361" y="633"/>
      <point x="414" y="562"/>
      <point x="414" y="415" type="curve" smooth="yes"/>
      <point x="414" y="397" type="line"/>
      <point x="367" y="351"/>
      <point x="308" y="319"/>
      <point x="245" y="319" type="curve" smooth="yes"/>
      <point x="164" y="319"/>
      <point x="117" y="371"/>
    </contour>
  </outline>
</glyph>
<glyph name="colon" format="1">
  <advance width="180"/>
  <unicode hex="003A"/>
  <outline>
    <contour>
      <point x="126" y="414" type="line"/>
      <point x="126" y="487" type="line"/>
      <point x="54" y="487" type="line"/>
      <point x="54" y="414" type="line"/>
    </contour>
    <contour>
      <point x="126" y="0" type="line"/>
      <point x="126" y="73" type="line"/>
      <point x="54" y="73" type="line"/>
      <point x="54" y="0" type="line"/>
    </contour>
  </outline>
</glyph>
<glyph name="less" format="1">
  <advance width="588"/>
  <unicode hex="003C"/>
  <outline>
    <contour>
      <point x="501" y="170" type="line"/>
      <point x="178" y="294" type="line"/>
      <point x="501" y="416" type="line"/>
      <point x="501" y="476" type="line"/>
      <point x="87" y="311" type="line"/>
      <point x="87" y="274" type="line"/>
      <point x="501" y="106" type="line"/>
    </contour>
  </outline>
</glyph>
<glyph name="equal" format="1">
  <advance width="588"/>
  <unicode hex="003D"/>
  <outline>
    <contour>
      <point x="87" y="368" type="line"/>
      <point x="501" y="368" type="line"/>
      <point x="501" y="421" type="line"/>
      <point x="87" y="421" type="line"/>
    </contour>
    <contour>
      <point x="87" y="168" type="line"/>
      <point x="501" y="168" type="line"/>
      <point x="501" y="221" type="line"/>
      <point x="87" y="221" type="line"/>
    </contour>
  </outline>
</glyph>
<glyph name="greater" format="1">
  <advance width="588"/>
  <unicode hex="003E"/>
  <outline>
    <contour>
      <point x="501" y="271" type="line"/>
      <point x="501" y="308" type="line"/>
      <point x="87" y="476" type="line"/>
      <point x="87" y="412" type="line"/>
      <point x="410" y="288" type="line"/>
      <point x="87" y="166" type="line"/>
      <point x="87" y="106" type="line"/>
    </contour>
  </outline>
</glyph>
<glyph name="question" format="1">
  <advance width="422"/>
  <unicode hex="003F"/>
  <outline>
    <contour>
      <point x="193" y="635" type="curve" smooth="yes"/>
      <point x="273" y="635"/>
      <point x="321" y="594"/>
      <point x="321" y="526" type="curve" smooth="yes"/>
      <point x="321" y="509" type="line" smooth="yes"/>
      <point x="321" y="449"/>
      <point x="305" y="414"/>
      <point x="278" y="389" type="curve" smooth="yes"/>
      <point x="246" y="360" type="line" smooth="yes"/>
      <point x="189" y="308"/>
      <point x="163" y="275"/>
      <point x="163" y="197" type="curve" smooth="yes"/>
      <point x="163" y="172" type="line"/>
      <point x="223" y="172" type="line"/>
      <point x="223" y="198" type="line" smooth="yes"/>
      <point x="223" y="248"/>
      <point x="235" y="273"/>
      <point x="279" y="313" type="curve" smooth="yes"/>
      <point x="311" y="342" type="line" smooth="yes"/>
      <point x="357" y="384"/>
      <point x="384" y="432"/>
      <point x="384" y="509" type="curve" smooth="yes"/>
      <point x="384" y="526" type="line" smooth="yes"/>
      <point x="384" y="618"/>
      <point x="321" y="690"/>
      <point x="193" y="690" type="curve" smooth="yes"/>
      <point x="137" y="690"/>
      <point x="72" y="678"/>
      <point x="10" y="649" type="curve"/>
      <point x="32" y="596" type="line"/>
      <point x="93" y="625"/>
      <point x="146" y="635"/>
    </contour>
    <contour>
      <point x="231" y="0" type="line"/>
      <point x="231" y="73" type="line"/>
      <point x="159" y="73" type="line"/>
      <point x="159" y="0" type="line"/>
    </contour>
  </outline>
</glyph>
<glyph name="at" format="1">
  <advance width="954"/>
  <unicode hex="0040"/>
  <outline>
    <contour>
      <point x="733" y="-167" type="curve"/>
      <point x="709" y="-115" type="line"/>
      <point x="639" y="-150"/>
      <point x="551" y="-170"/>
      <point x="467" y="-170" type="curve" smooth="yes"/>
      <point x="238" y="-170"/>
      <point x="115" y="-21"/>
      <point x="115" y="202" type="curve" smooth="yes"/>
      <point x="115" y="452"/>
      <point x="271" y="637"/>
      <point x="493" y="637" type="curve" smooth="yes"/>
      <point x="698" y="637"/>
      <point x="837" y="480"/>
      <point x="837" y="283" type="curve" smooth="yes"/>
      <point x="837" y="143"/>
      <point x="769" y="52"/>
      <point x="692" y="52" type="curve" smooth="yes"/>
      <point x="651" y="52"/>
      <point x="618" y="69"/>
      <point x="633" y="155" type="curve"/>
      <point x="678" y="412" type="line"/>
      <point x="619" y="450"/>
      <point x="561" y="472"/>
      <point x="499" y="472" type="curve" smooth="yes"/>
      <point x="382" y="472"/>
      <point x="306" y="395"/>
      <point x="287" y="265" type="curve" smooth="yes"/>
      <point x="278" y="204" type="line" smooth="yes"/>
      <point x="261" y="86"/>
      <point x="307" y="-5"/>
      <point x="404" y="-5" type="curve" smooth="yes"/>
      <point x="460" y="-5"/>
      <point x="519" y="24"/>
      <point x="572" y="87" type="curve"/>
      <point x="580" y="27"/>
      <point x="623" y="0"/>
      <point x="688" y="0" type="curve" smooth="yes"/>
      <point x="808" y="0"/>
      <point x="898" y="119"/>
      <point x="898" y="283" type="curve" smooth="yes"/>
      <point x="898" y="510"/>
      <point x="733" y="690"/>
      <point x="493" y="690" type="curve" smooth="yes"/>
      <point x="235" y="690"/>
      <point x="54" y="482"/>
      <point x="54" y="202" type="curve" smooth="yes"/>
      <point x="54" y="-50"/>
      <point x="201" y="-223"/>
      <point x="467" y="-223" type="curve" smooth="yes"/>
      <point x="561" y="-223"/>
      <point x="655" y="-202"/>
    </contour>
    <contour>
      <point x="341" y="204" type="curve" smooth="yes"/>
      <point x="350" y="265" type="line" smooth="yes"/>
      <point x="364" y="360"/>
      <point x="410" y="417"/>
      <point x="501" y="417" type="curve" smooth="yes"/>
      <point x="538" y="417"/>
      <point x="574" y="406"/>
      <point x="613" y="385" type="curve"/>
      <point x="577" y="172" type="line"/>
      <point x="518" y="79"/>
      <point x="457" y="48"/>
      <point x="412" y="48" type="curve" smooth="yes"/>
      <point x="352" y="48"/>
      <point x="327" y="108"/>
    </contour>
  </outline>
</glyph>
<glyph name="A" format="1">
  <advance width="562"/>
  <unicode hex="0041"/>
  <outline>
    <contour>
      <point x="474" y="0" type="line"/>
      <point x="540" y="0" type="line"/>
      <point x="313" y="680" type="line"/>
      <point x="248" y="680" type="line"/>
      <point x="22" y="0" type="line"/>
      <point x="84" y="0" type="line"/>
      <point x="141" y="175" type="line"/>
      <point x="416" y="175" type="line"/>
    </contour>
    <contour>
      <point x="203" y="363" type="line"/>
      <point x="278" y="595" type="line"/>
      <point x="353" y="363" type="line"/>
      <point x="396" y="233" type="line"/>
      <point x="160" y="233" type="line"/>
    </contour>
  </outline>
</glyph>
<glyph name="B" format="1">
  <advance width="585"/>
  <unicode hex="0042"/>
  <outline>
    <contour>
      <point x="115" y="0" type="line"/>
      <point x="335" y="0" type="line" smooth="yes"/>
      <point x="455" y="0"/>
      <point x="523" y="71"/>
      <point x="523" y="179" type="curve" smooth="yes"/>
      <point x="523" y="197" type="line" smooth="yes"/>
      <point x="523" y="274"/>
      <point x="482" y="330"/>
      <point x="406" y="351" type="curve"/>
      <point x="463" y="376"/>
      <point x="493" y="425"/>
      <point x="493" y="489" type="curve" smooth="yes"/>
      <point x="493" y="507" type="line" smooth="yes"/>
      <point x="493" y="612"/>
      <point x="427" y="680"/>
      <point x="310" y="680" type="curve" smooth="yes"/>
      <point x="115" y="680" type="line"/>
    </contour>
    <contour>
      <point x="310" y="621" type="line" smooth="yes"/>
      <point x="386" y="621"/>
      <point x="425" y="578"/>
      <point x="425" y="507" type="curve" smooth="yes"/>
      <point x="425" y="489" type="line" smooth="yes"/>
      <point x="425" y="418"/>
      <point x="386" y="375"/>
      <point x="310" y="375" type="curve" smooth="yes"/>
      <point x="180" y="375" type="line"/>
      <point x="180" y="621" type="line"/>
    </contour>
    <contour>
      <point x="335" y="316" type="line" smooth="yes"/>
      <point x="414" y="316"/>
      <point x="455" y="270"/>
      <point x="455" y="197" type="curve" smooth="yes"/>
      <point x="455" y="179" type="line" smooth="yes"/>
      <point x="455" y="104"/>
      <point x="414" y="59"/>
      <point x="335" y="59" type="curve" smooth="yes"/>
      <point x="180" y="59" type="line"/>
      <point x="180" y="316" type="line"/>
    </contour>
  </outline>
</glyph>
<glyph name="C" format="1">
  <advance width="526"/>
  <unicode hex="0043"/>
  <outline>
    <contour>
      <point x="152" y="263" type="curve" smooth="yes"/>
      <point x="152" y="417" type="line" smooth="yes"/>
      <point x="152" y="561"/>
      <point x="207" y="631"/>
      <point x="315" y="631" type="curve" smooth="yes"/>
      <point x="363" y="631"/>
      <point x="414" y="619"/>
      <point x="465" y="594" type="curve"/>
      <point x="487" y="649" type="line"/>
      <point x="432" y="677"/>
      <point x="370" y="690"/>
      <point x="315" y="690" type="curve" smooth="yes"/>
      <point x="165" y="690"/>
      <point x="84" y="592"/>
      <point x="84" y="417" type="curve" smooth="yes"/>
      <point x="84" y="263" type="line" smooth="yes"/>
      <point x="84" y="88"/>
      <point x="165" y="-10"/>
      <point x="315" y="-10" type="curve" smooth="yes"/>
      <point x="369" y="-10"/>
      <point x="427" y="3"/>
      <point x="487" y="31" type="curve"/>
      <point x="464" y="86" type="line"/>
      <point x="404" y="58"/>
      <point x="363" y="49"/>
      <point x="316" y="49" type="curve" smooth="yes"/>
      <point x="207" y="49"/>
      <point x="152" y="119"/>
    </contour>
  </outline>
</glyph>
<glyph name="D" format="1">
  <advance width="637"/>
  <unicode hex="0044"/>
  <outline>
    <contour>
      <point x="115" y="0" type="line"/>
      <point x="313" y="0" type="line" smooth="yes"/>
      <point x="465" y="0"/>
      <point x="551" y="104"/>
      <point x="551" y="264" type="curve" smooth="yes"/>
      <point x="551" y="417" type="line" smooth="yes"/>
      <point x="551" y="576"/>
      <point x="465" y="680"/>
      <point x="313" y="680" type="curve" smooth="yes"/>
      <point x="115" y="680" type="line"/>
    </contour>
    <contour>
      <point x="313" y="621" type="line" smooth="yes"/>
      <point x="424" y="621"/>
      <point x="483" y="545"/>
      <point x="483" y="417" type="curve" smooth="yes"/>
      <point x="483" y="264" type="line" smooth="yes"/>
      <point x="483" y="136"/>
      <point x="424" y="59"/>
      <point x="313" y="59" type="curve" smooth="yes"/>
      <point x="180" y="59" type="line"/>
      <point x="180" y="621" type="line"/>
    </contour>
  </outline>
</glyph>
<glyph name="E" format="1">
  <advance width="528"/>
  <unicode hex="0045"/>
  <outline>
    <contour>
      <point x="485" y="59" type="line"/>
      <point x="180" y="59" type="line"/>
      <point x="180" y="315" type="line"/>
      <point x="445" y="315" type="line"/>
      <point x="445" y="374" type="line"/>
      <point x="180" y="374" type="line"/>
      <point x="180" y="621" type="line"/>
      <point x="475" y="621" type="line"/>
      <point x="475" y="680" type="line"/>
      <point x="115" y="680" type="line"/>
      <point x="115" y="0" type="line"/>
      <point x="485" y="0" type="line"/>
    </contour>
  </outline>
</glyph>
<glyph name="F" format="1">
  <advance width="507"/>
  <unicode hex="0046"/>
  <outline>
    <contour>
      <point x="439" y="304" type="line"/>
      <point x="439" y="363" type="line"/>
      <point x="180" y="363" type="line"/>
      <point x="180" y="621" type="line"/>
      <point x="469" y="621" type="line"/>
      <point x="469" y="680" type="line"/>
      <point x="115" y="680" type="line"/>
      <point x="115" y="0" type="line"/>
      <point x="180" y="0" type="line"/>
      <point x="180" y="304" type="line"/>
    </contour>
  </outline>
</glyph>
<glyph name="G" format="1">
  <advance width="605"/>
  <unicode hex="0047"/>
  <outline>
    <contour>
      <point x="531" y="50" type="curve"/>
      <point x="531" y="345" type="line"/>
      <point x="333" y="345" type="line"/>
      <point x="333" y="286" type="line"/>
      <point x="470" y="286" type="line"/>
      <point x="470" y="83" type="line"/>
      <point x="433" y="60"/>
      <point x="382" y="47"/>
      <point x="330" y="47" type="curve" smooth="yes"/>
      <point x="214" y="47"/>
      <point x="154" y="129"/>
      <point x="154" y="264" type="curve" smooth="yes"/>
      <point x="154" y="417" type="line" smooth="yes"/>
      <point x="154" y="561"/>
      <point x="212" y="631"/>
      <point x="326" y="631" type="curve" smooth="yes"/>
      <point x="380" y="631"/>
      <point x="439" y="619"/>
      <point x="496" y="594" type="curve"/>
      <point x="518" y="649" type="line"/>
      <point x="458" y="677"/>
      <point x="387" y="690"/>
      <point x="326" y="690" type="curve" smooth="yes"/>
      <point x="172" y="690"/>
      <point x="86" y="592"/>
      <point x="86" y="417" type="curve" smooth="yes"/>
      <point x="86" y="264" type="line" smooth="yes"/>
      <point x="86" y="98"/>
      <point x="172" y="-10"/>
      <point x="325" y="-10" type="curve" smooth="yes"/>
      <point x="422" y="-10"/>
      <point x="490" y="21"/>
    </contour>
  </outline>
</glyph>
<glyph name="H" format="1">
  <advance width="685"/>
  <unicode hex="0048"/>
  <outline>
    <contour>
      <point x="505" y="0" type="line"/>
      <point x="570" y="0" type="line"/>
      <point x="570" y="680" type="line"/>
      <point x="505" y="680" type="line"/>
      <point x="505" y="374" type="line"/>
      <point x="180" y="374" type="line"/>
      <point x="180" y="680" type="line"/>
      <point x="115" y="680" type="line"/>
      <point x="115" y="0" type="line"/>
      <point x="180" y="0" type="line"/>
      <point x="180" y="315" type="line"/>
      <point x="505" y="315" type="line"/>
    </contour>
  </outline>
</glyph>
<glyph name="J" format="1">
  <advance width="355"/>
  <unicode hex="004A"/>
  <outline>
    <contour>
      <point x="28" y="-5" type="line"/>
      <point x="201" y="-5"/>
      <point x="251" y="87"/>
      <point x="251" y="212" type="curve" smooth="yes"/>
      <point x="251" y="680" type="line"/>
      <point x="186" y="680" type="line"/>
      <point x="186" y="212" type="line" smooth="yes"/>
      <point x="186" y="97"/>
      <point x="137" y="57"/>
      <point x="28" y="57" type="curve"/>
    </contour>
  </outline>
</glyph>
<glyph name="K" format="1">
  <advance width="584"/>
  <unicode hex="004B"/>
  <outline>
    <contour>
      <point x="493" y="0" type="line"/>
      <point x="573" y="0" type="line"/>
      <point x="330" y="380" type="line"/>
      <point x="420" y="481"/>
      <point x="479" y="563"/>
      <point x="540" y="680" type="curve"/>
      <point x="471" y="680" type="line"/>
      <point x="406" y="557"/>
      <point x="321" y="443"/>
      <point x="180" y="312" type="curve"/>
      <point x="180" y="680" type="line"/>
      <point x="115" y="680" type="line"/>
      <point x="115" y="0" type="line"/>
      <point x="180" y="0" type="line"/>
      <point x="180" y="238" type="line"/>
      <point x="217" y="272"/>
      <point x="251" y="305"/>
      <point x="282" y="337" type="curve"/>
    </contour>
  </outline>
</glyph>
<glyph name="L" format="1">
  <advance width="506"/>
  <unicode hex="004C"/>
  <outline>
    <contour>
      <point x="474" y="59" type="line"/>
      <point x="180" y="59" type="line"/>
      <point x="180" y="680" type="line"/>
      <point x="115" y="680" type="line"/>
      <point x="115" y="0" type="line"/>
      <point x="474" y="0" type="line"/>
    </contour>
  </outline>
</glyph>
<glyph name="M" format="1">
  <advance width="829"/>
  <unicode hex="004D"/>
  <outline>
    <contour>
      <point x="198" y="680" type="line"/>
      <point x="115" y="680" type="line"/>
      <point x="115" y="0" type="line"/>
      <point x="180" y="0" type="line"/>
      <point x="180" y="312" type="line"/>
      <point x="173" y="588" type="line"/>
      <point x="380" y="80" type="line"/>
      <point x="445" y="80" type="line"/>
      <point x="656" y="586" type="line"/>
      <point x="649" y="312" type="line"/>
      <point x="649" y="0" type="line"/>
      <point x="714" y="0" type="line"/>
      <point x="714" y="680" type="line"/>
      <point x="636" y="680" type="line"/>
      <point x="415" y="151" type="line"/>
    </contour>
  </outline>
</glyph>
<glyph name="N" format="1">
  <advance width="695"/>
  <unicode hex="004E"/>
  <outline>
    <contour>
      <point x="115" y="0" type="line"/>
      <point x="180" y="0" type="line"/>
      <point x="180" y="291" type="line"/>
      <point x="176" y="596" type="line"/>
      <point x="301" y="401"/>
      <point x="402" y="214"/>
      <point x="502" y="0" type="curve"/>
      <point x="580" y="0" type="line"/>
      <point x="580" y="680" type="line"/>
      <point x="515" y="680" type="line"/>
      <point x="515" y="388" type="line"/>
      <point x="524" y="90" type="line"/>
      <point x="425" y="304"/>
      <point x="323" y="484"/>
      <point x="193" y="680" type="curve"/>
      <point x="115" y="680" type="line"/>
    </contour>
  </outline>
</glyph>
<glyph name="O" format="1">
  <advance width="652"/>
  <unicode hex="004F"/>
  <outline>
    <contour>
      <point x="566" y="417" type="line" smooth="yes"/>
      <point x="566" y="582"/>
      <point x="478" y="690"/>
      <point x="326" y="690" type="curve" smooth="yes"/>
      <point x="173" y="690"/>
      <point x="86" y="582"/>
      <point x="86" y="417" type="curve" smooth="yes"/>
      <point x="86" y="264" type="line" smooth="yes"/>
      <point x="86" y="98"/>
      <point x="172" y="-10"/>
      <point x="326" y="-10" type="curve" smooth="yes"/>
      <point x="479" y="-10"/>
      <point x="566" y="98"/>
      <point x="566" y="264" type="curve" smooth="yes"/>
    </contour>
    <contour>
      <point x="498" y="417" type="curve" smooth="yes"/>
      <point x="498" y="264" type="line" smooth="yes"/>
      <point x="498" y="130"/>
      <point x="436" y="49"/>
      <point x="326" y="49" type="curve" smooth="yes"/>
      <point x="216" y="49"/>
      <point x="154" y="130"/>
      <point x="154" y="264" type="curve" smooth="yes"/>
      <point x="154" y="417" type="line" smooth="yes"/>
      <point x="154" y="552"/>
      <point x="216" y="631"/>
      <point x="326" y="631" type="curve" smooth="yes"/>
      <point x="436" y="631"/>
      <point x="498" y="552"/>
    </contour>
  </outline>
</glyph>
<glyph name="P" format="1">
  <advance width="558"/>
  <unicode hex="0050"/>
  <outline>
    <contour>
      <point x="115" y="0" type="line"/>
      <point x="180" y="0" type="line"/>
      <point x="180" y="260" type="line"/>
      <point x="318" y="260" type="line" smooth="yes"/>
      <point x="441" y="260"/>
      <point x="511" y="333"/>
      <point x="511" y="444" type="curve" smooth="yes"/>
      <point x="511" y="497" type="line" smooth="yes"/>
      <point x="511" y="608"/>
      <point x="441" y="680"/>
      <point x="318" y="680" type="curve" smooth="yes"/>
      <point x="115" y="680" type="line"/>
    </contour>
    <contour>
      <point x="318" y="621" type="line" smooth="yes"/>
      <point x="400" y="621"/>
      <point x="443" y="574"/>
      <point x="443" y="497" type="curve" smooth="yes"/>
      <point x="443" y="444" type="line" smooth="yes"/>
      <point x="443" y="366"/>
      <point x="400" y="319"/>
      <point x="318" y="319" type="curve" smooth="yes"/>
      <point x="180" y="319" type="line"/>
      <point x="180" y="621" type="line"/>
    </contour>
  </outline>
</glyph>
<glyph name="Q" format="1">
  <advance width="652"/>
  <unicode hex="0051"/>
  <outline>
    <contour>
      <point x="564" y="-108" type="line"/>
      <point x="469" y="-106"/>
      <point x="439" y="-91"/>
      <point x="404" y="-9" type="curve" smooth="yes"/>
      <point x="400" y="0" type="line"/>
      <point x="507" y="30"/>
      <point x="566" y="127"/>
      <point x="566" y="264" type="curve" smooth="yes"/>
      <point x="566" y="417" type="line" smooth="yes"/>
      <point x="566" y="582"/>
      <point x="478" y="690"/>
      <point x="326" y="690" type="curve" smooth="yes"/>
      <point x="173" y="690"/>
      <point x="86" y="582"/>
      <point x="86" y="417" type="curve" smooth="yes"/>
      <point x="86" y="264" type="line" smooth="yes"/>
      <point x="86" y="98"/>
      <point x="172" y="-10"/>
      <point x="326" y="-10" type="curve" smooth="yes"/>
      <point x="338" y="-10" type="line"/>
      <point x="350" y="-40" type="line" smooth="yes"/>
      <point x="389" y="-138"/>
      <point x="452" y="-173"/>
      <point x="564" y="-173" type="curve"/>
    </contour>
    <contour>
      <point x="498" y="417" type="curve" smooth="yes"/>
      <point x="498" y="264" type="line" smooth="yes"/>
      <point x="498" y="130"/>
      <point x="436" y="49"/>
      <point x="326" y="49" type="curve" smooth="yes"/>
      <point x="216" y="49"/>
      <point x="154" y="130"/>
      <point x="154" y="264" type="curve" smooth="yes"/>
      <point x="154" y="417" type="line" smooth="yes"/>
      <point x="154" y="552"/>
      <point x="216" y="631"/>
      <point x="326" y="631" type="curve" smooth="yes"/>
      <point x="436" y="631"/>
      <point x="498" y="552"/>
    </contour>
  </outline>
</glyph>
<glyph name="R" format="1">
  <advance width="597"/>
  <unicode hex="0052"/>
  <outline>
    <contour>
      <point x="180" y="278" type="line"/>
      <point x="333" y="278" type="line"/>
      <point x="387" y="189"/>
      <point x="436" y="96"/>
      <point x="476" y="0" type="curve"/>
      <point x="552" y="0" type="line"/>
      <point x="508" y="100"/>
      <point x="457" y="198"/>
      <point x="398" y="290" type="curve"/>
      <point x="471" y="315"/>
      <point x="511" y="376"/>
      <point x="511" y="458" type="curve" smooth="yes"/>
      <point x="511" y="501" type="line" smooth="yes"/>
      <point x="511" y="610"/>
      <point x="441" y="680"/>
      <point x="318" y="680" type="curve" smooth="yes"/>
      <point x="115" y="680" type="line"/>
      <point x="115" y="0" type="line"/>
      <point x="180" y="0" type="line"/>
    </contour>
    <contour>
      <point x="318" y="621" type="line" smooth="yes"/>
      <point x="393" y="621"/>
      <point x="443" y="577"/>
      <point x="443" y="501" type="curve" smooth="yes"/>
      <point x="443" y="458" type="line" smooth="yes"/>
      <point x="443" y="383"/>
      <point x="393" y="337"/>
      <point x="318" y="337" type="curve" smooth="yes"/>
      <point x="180" y="337" type="line"/>
      <point x="180" y="621" type="line"/>
    </contour>
  </outline>
</glyph>
<glyph name="S" format="1">
  <advance width="499"/>
  <unicode hex="0053"/>
  <outline>
    <contour>
      <point x="247" y="47" type="curve" smooth="yes"/>
      <point x="185" y="47"/>
      <point x="130" y="59"/>
      <point x="62" y="91" type="curve"/>
      <point x="41" y="36" type="line"/>
      <point x="111" y="4"/>
      <point x="184" y="-10"/>
      <point x="247" y="-10" type="curve" smooth="yes"/>
      <point x="393" y="-10"/>
      <point x="454" y="67"/>
      <point x="454" y="178" type="curve" smooth="yes"/>
      <point x="454" y="275"/>
      <point x="402" y="342"/>
      <point x="300" y="370" type="curve" smooth="yes"/>
      <point x="220" y="392" type="line" smooth="yes"/>
      <point x="138" y="415"/>
      <point x="113" y="457"/>
      <point x="113" y="515" type="curve" smooth="yes"/>
      <point x="113" y="597"/>
      <point x="161" y="633"/>
      <point x="247" y="633" type="curve" smooth="yes"/>
      <point x="295" y="633"/>
      <point x="349" y="620"/>
      <point x="413" y="590" type="curve"/>
      <point x="435" y="646" type="line"/>
      <point x="371" y="676"/>
      <point x="304" y="690"/>
      <point x="247" y="690" type="curve" smooth="yes"/>
      <point x="97" y="690"/>
      <point x="47" y="606"/>
      <point x="47" y="510" type="curve" smooth="yes"/>
      <point x="47" y="423"/>
      <point x="91" y="360"/>
      <point x="196" y="331" type="curve" smooth="yes"/>
      <point x="276" y="309" type="line" smooth="yes"/>
      <point x="354" y="288"/>
      <point x="388" y="236"/>
      <point x="388" y="170" type="curve" smooth="yes"/>
      <point x="388" y="90"/>
      <point x="336" y="47"/>
    </contour>
  </outline>
</glyph>
<glyph name="T" format="1">
  <advance width="499"/>
  <unicode hex="0054"/>
  <outline>
    <contour>
      <point x="13" y="621" type="line"/>
      <point x="217" y="621" type="line"/>
      <point x="217" y="0" type="line"/>
      <point x="282" y="0" type="line"/>
      <point x="282" y="621" type="line"/>
      <point x="486" y="621" type="line"/>
      <point x="486" y="680" type="line"/>
      <point x="13" y="680" type="line"/>
    </contour>
  </outline>
</glyph>
<glyph name="U" format="1">
  <advance width="650"/>
  <unicode hex="0055"/>
  <outline>
    <contour>
      <point x="102" y="680" type="line"/>
      <point x="102" y="244" type="line" smooth="yes"/>
      <point x="102" y="83"/>
      <point x="176" y="-10"/>
      <point x="325" y="-10" type="curve" smooth="yes"/>
      <point x="474" y="-10"/>
      <point x="548" y="83"/>
      <point x="548" y="244" type="curve" smooth="yes"/>
      <point x="548" y="680" type="line"/>
      <point x="480" y="680" type="line"/>
      <point x="480" y="244" type="line" smooth="yes"/>
      <point x="480" y="122"/>
      <point x="433" y="49"/>
      <point x="325" y="49" type="curve" smooth="yes"/>
      <point x="218" y="49"/>
      <point x="170" y="122"/>
      <point x="170" y="244" type="curve" smooth="yes"/>
      <point x="170" y="680" type="line"/>
    </contour>
  </outline>
</glyph>
<glyph name="V" format="1">
  <advance width="550"/>
  <unicode hex="0056"/>
  <outline>
    <contour>
      <point x="526" y="680" type="line"/>
      <point x="464" y="680" type="line"/>
      <point x="355" y="334" type="line"/>
      <point x="278" y="90" type="line"/>
      <point x="201" y="334" type="line"/>
      <point x="90" y="680" type="line"/>
      <point x="24" y="680" type="line"/>
      <point x="243" y="0" type="line"/>
      <point x="308" y="0" type="line"/>
    </contour>
  </outline>
</glyph>
<glyph name="W" format="1">
  <advance width="856"/>
  <unicode hex="0057"/>
  <outline>
    <contour>
      <point x="172" y="380" type="line"/>
      <point x="108" y="680" type="line"/>
      <point x="43" y="680" type="line"/>
      <point x="189" y="0" type="line"/>
      <point x="256" y="0" type="line"/>
      <point x="429" y="587" type="line"/>
      <point x="600" y="0" type="line"/>
      <point x="666" y="0" type="line"/>
      <point x="813" y="680" type="line"/>
      <point x="752" y="680" type="line"/>
      <point x="688" y="380" type="line"/>
      <point x="633" y="93" type="line"/>
      <point x="461" y="680" type="line"/>
      <point x="398" y="680" type="line"/>
      <point x="227" y="95" type="line"/>
    </contour>
  </outline>
</glyph>
<glyph name="X" format="1">
  <advance width="534"/>
  <unicode hex="0058"/>
  <outline>
    <contour>
      <point x="437" y="0" type="line"/>
      <point x="510" y="0" type="line"/>
      <point x="305" y="347" type="line"/>
      <point x="500" y="680" type="line"/>
      <point x="433" y="680" type="line"/>
      <point x="271" y="402" type="line"/>
      <point x="107" y="680" type="line"/>
      <point x="34" y="680" type="line"/>
      <point x="229" y="349" type="line"/>
      <point x="24" y="0" type="line"/>
      <point x="91" y="0" type="line"/>
      <point x="263" y="295" type="line"/>
    </contour>
  </outline>
</glyph>
<glyph name="Y" format="1">
  <advance width="512"/>
  <unicode hex="0059"/>
  <outline>
    <contour>
      <point x="289" y="270" type="line"/>
      <point x="496" y="680" type="line"/>
      <point x="429" y="680" type="line"/>
      <point x="259" y="337" type="line"/>
      <point x="86" y="680" type="line"/>
      <point x="16" y="680" type="line"/>
      <point x="224" y="270" type="line"/>
      <point x="224" y="0" type="line"/>
      <point x="289" y="0" type="line"/>
    </contour>
  </outline>
</glyph>
<glyph name="Z" format="1">
  <advance width="508"/>
  <unicode hex="005A"/>
  <outline>
    <contour>
      <point x="468" y="59" type="line"/>
      <point x="121" y="59" type="line"/>
      <point x="458" y="633" type="line"/>
      <point x="458" y="680" type="line"/>
      <point x="53" y="680" type="line"/>
      <point x="53" y="621" type="line"/>
      <point x="380" y="621" type="line"/>
      <point x="43" y="47" type="line"/>
      <point x="43" y="0" type="line"/>
      <point x="468" y="0" type="line"/>
    </contour>
  </outline>
</glyph>
<glyph name="bracketleft" format="1">
  <advance width="344"/>
  <unicode hex="005B"/>
  <outline>
    <contour>
      <point x="340" y="-90" type="line"/>
      <point x="175" y="-90" type="line"/>
      <point x="175" y="687" type="line"/>
      <point x="340" y="687" type="line"/>
      <point x="340" y="740" type="line"/>
      <point x="115" y="740" type="line"/>
      <point x="115" y="-143" type="line"/>
      <point x="340" y="-143" type="line"/>
    </contour>
  </outline>
</glyph>
<glyph name="backslash" format="1">
  <advance width="344"/>
  <unicode hex="005C"/>
  <outline>
    <contour>
      <point x="52" y="740" type="line"/>
      <point x="-9" y="740" type="line"/>
      <point x="322" y="-143" type="line"/>
      <point x="383" y="-143" type="line"/>
    </contour>
  </outline>
</glyph>
<glyph name="bracketright" format="1">
  <advance width="344"/>
  <unicode hex="005D"/>
  <outline>
    <contour>
      <point x="229" y="740" type="line"/>
      <point x="4" y="740" type="line"/>
      <point x="4" y="687" type="line"/>
      <point x="169" y="687" type="line"/>
      <point x="169" y="-90" type="line"/>
      <point x="4" y="-90" type="line"/>
      <point x="4" y="-143" type="line"/>
      <point x="229" y="-143" type="line"/>
    </contour>
  </outline>
</glyph>
<glyph name="asciicircum" format="1">
  <advance width="588"/>
  <unicode hex="005E"/>
  <outline>
    <contour>
      <point x="415" y="266" type="line"/>
      <point x="479" y="266" type="line"/>
      <point x="311" y="680" type="line"/>
      <point x="274" y="680" type="line"/>
      <point x="109" y="266" type="line"/>
      <point x="169" y="266" type="line"/>
      <point x="291" y="589" type="line"/>
    </contour>
  </outline>
</glyph>
<glyph name="underscore" format="1">
  <advance width="374"/>
  <unicode hex="005F"/>
  <outline>
    <contour>
      <point x="5" y="-153" type="line"/>
      <point x="369" y="-153" type="line"/>
      <point x="369" y="-100" type="line"/>
      <point x="5" y="-100" type="line"/>
    </contour>
  </outline>
</glyph>
<glyph name="grave" format="1">
  <advance width="500"/>
  <unicode hex="0060"/>
  <outline>
    <contour>
      <point x="224" y="579" type="line"/>
      <point x="275" y="579" type="line"/>
      <point x="189" y="745" type="line"/>
      <point x="130" y="716" type="line"/>
    </contour>
  </outline>
</glyph>
<glyph name="a" format="1">
  <advance width="484"/>
  <unicode hex="0061"/>
  <outline>
    <contour>
      <point x="442" y="-5" type="curve" smooth="yes"/>
      <point x="452" y="-5" type="line"/>
      <point x="452" y="50" type="line"/>
      <point x="440" y="50" type="line" smooth="yes"/>
      <point x="402" y="50"/>
      <point x="393" y="74"/>
      <point x="393" y="112" type="curve" smooth="yes"/>
      <point x="393" y="338" type="line" smooth="yes"/>
      <point x="393" y="426"/>
      <point x="364" y="497"/>
      <point x="231" y="497" type="curve" smooth="yes"/>
      <point x="174" y="497"/>
      <point x="121" y="482"/>
      <point x="66" y="454" type="curve"/>
      <point x="87" y="405" type="line"/>
      <point x="137" y="429"/>
      <point x="183" y="442"/>
      <point x="231" y="442" type="curve" smooth="yes"/>
      <point x="301" y="442"/>
      <point x="334" y="414"/>
      <point x="334" y="328" type="curve" smooth="yes"/>
      <point x="334" y="256" type="line"/>
      <point x="288" y="264"/>
      <point x="237" y="269"/>
      <point x="201" y="269" type="curve" smooth="yes"/>
      <point x="83" y="269"/>
      <point x="45" y="208"/>
      <point x="45" y="131" type="curve" smooth="yes"/>
      <point x="45" y="54"/>
      <point x="85" y="-10"/>
      <point x="170" y="-10" type="curve" smooth="yes"/>
      <point x="218" y="-10"/>
      <point x="270" y="6"/>
      <point x="342" y="70" type="curve"/>
      <point x="349" y="24"/>
      <point x="387" y="-5"/>
    </contour>
    <contour>
      <point x="107" y="131" type="curve" smooth="yes"/>
      <point x="107" y="189"/>
      <point x="135" y="216"/>
      <point x="202" y="216" type="curve" smooth="yes"/>
      <point x="234" y="216"/>
      <point x="287" y="211"/>
      <point x="334" y="203" type="curve"/>
      <point x="334" y="126" type="line"/>
      <point x="265" y="63"/>
      <point x="216" y="43"/>
      <point x="179" y="43" type="curve" smooth="yes"/>
      <point x="132" y="43"/>
      <point x="107" y="78"/>
    </contour>
  </outline>
</glyph>
<glyph name="b" format="1">
  <advance width="548"/>
  <unicode hex="0062"/>
  <outline>
    <contour>
      <point x="477" y="213" type="curve" smooth="yes"/>
      <point x="477" y="273" type="line" smooth="yes"/>
      <point x="477" y="415"/>
      <point x="421" y="497"/>
      <point x="319" y="497" type="curve" smooth="yes"/>
      <point x="263" y="497"/>
      <point x="210" y="474"/>
      <point x="152" y="420" type="curve"/>
      <point x="152" y="740" type="line"/>
      <point x="92" y="740" type="line"/>
      <point x="92" y="39" type="line"/>
      <point x="152" y="7"/>
      <point x="215" y="-10"/>
      <point x="277" y="-10" type="curve" smooth="yes"/>
      <point x="408" y="-10"/>
      <point x="477" y="77"/>
    </contour>
    <contour>
      <point x="307" y="440" type="curve" smooth="yes"/>
      <point x="380" y="440"/>
      <point x="414" y="388"/>
      <point x="414" y="273" type="curve" smooth="yes"/>
      <point x="414" y="213" type="line" smooth="yes"/>
      <point x="414" y="109"/>
      <point x="374" y="45"/>
      <point x="274" y="45" type="curve" smooth="yes"/>
      <point x="233" y="45"/>
      <point x="194" y="54"/>
      <point x="152" y="73" type="curve"/>
      <point x="152" y="359" type="line"/>
      <point x="224" y="425"/>
      <point x="264" y="440"/>
    </contour>
  </outline>
</glyph>
<glyph name="c" format="1">
  <advance width="451"/>
  <unicode hex="0063"/>
  <outline>
    <contour>
      <point x="133" y="274" type="line" smooth="yes"/>
      <point x="133" y="383"/>
      <point x="172" y="442"/>
      <point x="263" y="442" type="curve" smooth="yes"/>
      <point x="304" y="442"/>
      <point x="346" y="430"/>
      <point x="386" y="411" type="curve"/>
      <point x="406" y="461" type="line"/>
      <point x="359" y="485"/>
      <point x="305" y="497"/>
      <point x="258" y="497" type="curve" smooth="yes"/>
      <point x="134" y="497"/>
      <point x="70" y="414"/>
      <point x="70" y="274" type="curve" smooth="yes"/>
      <point x="70" y="214" type="line" smooth="yes"/>
      <point x="70" y="73"/>
      <point x="134" y="-10"/>
      <point x="258" y="-10" type="curve" smooth="yes"/>
      <point x="309" y="-10"/>
      <point x="366" y="4"/>
      <point x="415" y="29" type="curve"/>
      <point x="395" y="78" type="line"/>
      <point x="350" y="57"/>
      <point x="306" y="45"/>
      <point x="263" y="45" type="curve" smooth="yes"/>
      <point x="172" y="45"/>
      <point x="133" y="104"/>
      <point x="133" y="214" type="curve" smooth="yes"/>
    </contour>
  </outline>
</glyph>
<glyph name="e" format="1">
  <advance width="493"/>
  <unicode hex="0065"/>
  <outline>
    <contour>
      <point x="437" y="29" type="curve"/>
      <point x="417" y="78" type="line"/>
      <point x="367" y="55"/>
      <point x="311" y="45"/>
      <point x="271" y="45" type="curve" smooth="yes"/>
      <point x="172" y="45"/>
      <point x="131" y="104"/>
      <point x="131" y="214" type="curve" smooth="yes"/>
      <point x="131" y="226" type="line"/>
      <point x="427" y="226" type="line"/>
      <point x="435" y="261"/>
      <point x="439" y="292"/>
      <point x="439" y="320" type="curve" smooth="yes"/>
      <point x="439" y="439"/>
      <point x="363" y="497"/>
      <point x="264" y="497" type="curve" smooth="yes"/>
      <point x="138" y="497"/>
      <point x="70" y="409"/>
      <point x="70" y="274" type="curve" smooth="yes"/>
      <point x="70" y="214" type="line" smooth="yes"/>
      <point x="70" y="73"/>
      <point x="135" y="-10"/>
      <point x="271" y="-10" type="curve" smooth="yes"/>
      <point x="319" y="-10"/>
      <point x="382" y="1"/>
    </contour>
    <contour>
      <point x="264" y="442" type="curve" smooth="yes"/>
      <point x="326" y="442"/>
      <point x="380" y="407"/>
      <point x="380" y="325" type="curve" smooth="yes"/>
      <point x="380" y="311"/>
      <point x="379" y="296"/>
      <point x="376" y="279" type="curve"/>
      <point x="131" y="279" type="line"/>
      <point x="131" y="380"/>
      <point x="175" y="442"/>
    </contour>
  </outline>
</glyph>
<glyph name="f" format="1">
  <advance width="332"/>
  <unicode hex="0066"/>
  <outline>
    <contour>
      <point x="333" y="434" type="line"/>
      <point x="333" y="487" type="line"/>
      <point x="168" y="487" type="line"/>
      <point x="168" y="590" type="line" smooth="yes"/>
      <point x="168" y="663"/>
      <point x="201" y="697"/>
      <point x="257" y="697" type="curve" smooth="yes"/>
      <point x="284" y="697"/>
      <point x="315" y="690"/>
      <point x="349" y="675" type="curve"/>
      <point x="369" y="724" type="line"/>
      <point x="330" y="742"/>
      <point x="290" y="750"/>
      <point x="255" y="750" type="curve" smooth="yes"/>
      <point x="143" y="750"/>
      <point x="108" y="668"/>
      <point x="108" y="589" type="curve" smooth="yes"/>
      <point x="108" y="487" type="line"/>
      <point x="19" y="487" type="line"/>
      <point x="19" y="434" type="line"/>
      <point x="108" y="434" type="line"/>
      <point x="108" y="0" type="line"/>
      <point x="168" y="0" type="line"/>
      <point x="168" y="434" type="line"/>
    </contour>
  </outline>
</glyph>
<glyph name="g" format="1">
  <advance width="514"/>
  <unicode hex="0067"/>
  <outline>
    <contour>
      <point x="474" y="-70" type="curve" smooth="yes"/>
      <point x="474" y="9"/>
      <point x="418" y="49"/>
      <point x="320" y="49" type="curve" smooth="yes"/>
      <point x="215" y="49" type="line" smooth="yes"/>
      <point x="171" y="49"/>
      <point x="152" y="65"/>
      <point x="152" y="93" type="curve" smooth="yes"/>
      <point x="152" y="114"/>
      <point x="162" y="139"/>
      <point x="186" y="166" type="curve"/>
      <point x="204" y="161"/>
      <point x="222" y="159"/>
      <point x="242" y="159" type="curve" smooth="yes"/>
      <point x="259" y="159" type="line" smooth="yes"/>
      <point x="356" y="159"/>
      <point x="435" y="218"/>
      <point x="435" y="328" type="curve" smooth="yes"/>
      <point x="435" y="382"/>
      <point x="411" y="420"/>
      <point x="379" y="445" type="curve"/>
      <point x="491" y="432" type="line"/>
      <point x="491" y="487" type="line"/>
      <point x="317" y="487" type="line"/>
      <point x="299" y="494"/>
      <point x="279" y="497"/>
      <point x="259" y="497" type="curve" smooth="yes"/>
      <point x="242" y="497" type="line" smooth="yes"/>
      <point x="143" y="497"/>
      <point x="65" y="441"/>
      <point x="65" y="328" type="curve" smooth="yes"/>
      <point x="65" y="260"/>
      <point x="95" y="211"/>
      <point x="142" y="184" type="curve"/>
      <point x="111" y="149"/>
      <point x="95" y="115"/>
      <point x="95" y="81" type="curve" smooth="yes"/>
      <point x="95" y="35"/>
      <point x="129" y="-10"/>
      <point x="210" y="-10" type="curve" smooth="yes"/>
      <point x="321" y="-10" type="line" smooth="yes"/>
      <point x="386" y="-10"/>
      <point x="413" y="-34"/>
      <point x="413" y="-75" type="curve" smooth="yes"/>
      <point x="413" y="-133"/>
      <point x="358" y="-169"/>
      <point x="263" y="-169" type="curve" smooth="yes"/>
      <point x="205" y="-169"/>
      <point x="144" y="-157"/>
      <point x="76" y="-114" type="curve"/>
      <point x="52" y="-160" type="line"/>
      <point x="119" y="-204"/>
      <point x="193" y="-223"/>
      <point x="262" y="-223" type="curve" smooth="yes"/>
      <point x="392" y="-223"/>
      <point x="474" y="-162"/>
    </contour>
    <contour>
      <point x="259" y="214" type="curve" smooth="yes"/>
      <point x="242" y="214" type="line" smooth="yes"/>
      <point x="181" y="214"/>
      <point x="128" y="250"/>
      <point x="128" y="328" type="curve" smooth="yes"/>
      <point x="128" y="405"/>
      <point x="180" y="442"/>
      <point x="242" y="442" type="curve" smooth="yes"/>
      <point x="259" y="442" type="line" smooth="yes"/>
      <point x="319" y="442"/>
      <point x="372" y="405"/>
      <point x="372" y="328" type="curve" smooth="yes"/>
      <point x="372" y="250"/>
      <point x="319" y="214"/>
    </contour>
  </outline>
</glyph>
<glyph name="h" format="1">
  <advance width="563"/>
  <unicode hex="0068"/>
  <outline>
    <contour>
      <point x="326" y="440" type="curve" smooth="yes"/>
      <point x="385" y="440"/>
      <point x="413" y="405"/>
      <point x="413" y="327" type="curve" smooth="yes"/>
      <point x="413" y="0" type="line"/>
      <point x="473" y="0" type="line"/>
      <point x="473" y="338" type="line" smooth="yes"/>
      <point x="473" y="440"/>
      <point x="425" y="497"/>
      <point x="336" y="497" type="curve" smooth="yes"/>
      <point x="285" y="497"/>
      <point x="230" y="482"/>
      <point x="155" y="420" type="curve"/>
      <point x="155" y="740" type="line"/>
      <point x="95" y="740" type="line"/>
      <point x="95" y="0" type="line"/>
      <point x="155" y="0" type="line"/>
      <point x="155" y="361" type="line"/>
      <point x="235" y="426"/>
      <point x="285" y="440"/>
    </contour>
  </outline>
</glyph>
<glyph name="i" format="1">
  <advance width="250"/>
  <unicode hex="0069"/>
  <outline>
    <contour>
      <point x="161" y="626" type="line"/>
      <point x="161" y="699" type="line"/>
      <point x="89" y="699" type="line"/>
      <point x="89" y="626" type="line"/>
    </contour>
    <contour>
      <point x="155" y="0" type="line"/>
      <point x="155" y="487" type="line"/>
      <point x="95" y="487" type="line"/>
      <point x="95" y="0" type="line"/>
    </contour>
  </outline>
</glyph>
<glyph name="k" format="1">
  <advance width="493"/>
  <unicode hex="006B"/>
  <outline>
    <contour>
      <point x="401" y="0" type="line"/>
      <point x="474" y="0" type="line"/>
      <point x="295" y="281" type="line"/>
      <point x="357" y="347"/>
      <point x="403" y="408"/>
      <point x="453" y="487" type="curve"/>
      <point x="385" y="487" type="line"/>
      <point x="322" y="389"/>
      <point x="249" y="307"/>
      <point x="155" y="220" type="curve"/>
      <point x="155" y="740" type="line"/>
      <point x="95" y="740" type="line"/>
      <point x="95" y="0" type="line"/>
      <point x="155" y="0" type="line"/>
      <point x="155" y="151" type="line"/>
      <point x="191" y="182"/>
      <point x="223" y="211"/>
      <point x="252" y="241" type="curve"/>
    </contour>
  </outline>
</glyph>
<glyph name="l" format="1">
  <advance width="256"/>
  <unicode hex="006C"/>
  <outline>
    <contour>
      <point x="95" y="105" type="line" smooth="yes"/>
      <point x="95" y="30"/>
      <point x="127" y="-5"/>
      <point x="199" y="-5" type="curve" smooth="yes"/>
      <point x="218" y="-5" type="line"/>
      <point x="218" y="50" type="line"/>
      <point x="202" y="50" type="line" smooth="yes"/>
      <point x="164" y="50"/>
      <point x="155" y="66"/>
      <point x="155" y="112" type="curve" smooth="yes"/>
      <point x="155" y="740" type="line"/>
      <point x="95" y="740" type="line"/>
    </contour>
  </outline>
</glyph>
<glyph name="m" format="1">
  <advance width="861"/>
  <unicode hex="006D"/>
  <outline>
    <contour>
      <point x="321" y="440" type="curve" smooth="yes"/>
      <point x="377" y="440"/>
      <point x="403" y="405"/>
      <point x="403" y="327" type="curve" smooth="yes"/>
      <point x="403" y="0" type="line"/>
      <point x="463" y="0" type="line"/>
      <point x="463" y="338" type="line" smooth="yes"/>
      <point x="463" y="346"/>
      <point x="463" y="354"/>
      <point x="462" y="361" type="curve"/>
      <point x="541" y="425"/>
      <point x="589" y="440"/>
      <point x="629" y="440" type="curve" smooth="yes"/>
      <point x="685" y="440"/>
      <point x="711" y="405"/>
      <point x="711" y="327" type="curve" smooth="yes"/>
      <point x="711" y="0" type="line"/>
      <point x="771" y="0" type="line"/>
      <point x="771" y="338" type="line" smooth="yes"/>
      <point x="771" y="440"/>
      <point x="725" y="497"/>
      <point x="639" y="497" type="curve" smooth="yes"/>
      <point x="587" y="497"/>
      <point x="531" y="479"/>
      <point x="452" y="413" type="curve"/>
      <point x="434" y="467"/>
      <point x="393" y="497"/>
      <point x="331" y="497" type="curve" smooth="yes"/>
      <point x="280" y="497"/>
      <point x="227" y="480"/>
      <point x="152" y="417" type="curve"/>
      <point x="152" y="487" type="line"/>
      <point x="95" y="487" type="line"/>
      <point x="95" y="0" type="line"/>
      <point x="155" y="0" type="line"/>
      <point x="155" y="361" type="line"/>
      <point x="234" y="425"/>
      <point x="281" y="440"/>
    </contour>
  </outline>
</glyph>
<glyph name="o" format="1">
  <advance width="540"/>
  <unicode hex="006F"/>
  <outline>
    <contour>
      <point x="472" y="274" type="line" smooth="yes"/>
      <point x="472" y="410"/>
      <point x="399" y="497"/>
      <point x="270" y="497" type="curve" smooth="yes"/>
      <point x="140" y="497"/>
      <point x="68" y="410"/>
      <point x="68" y="274" type="curve" smooth="yes"/>
      <point x="68" y="214" type="line" smooth="yes"/>
      <point x="68" y="72"/>
      <point x="141" y="-10"/>
      <point x="270" y="-10" type="curve" smooth="yes"/>
      <point x="398" y="-10"/>
      <point x="472" y="72"/>
      <point x="472" y="214" type="curve" smooth="yes"/>
    </contour>
    <contour>
      <point x="409" y="274" type="curve" smooth="yes"/>
      <point x="409" y="214" type="line" smooth="yes"/>
      <point x="409" y="103"/>
      <point x="359" y="45"/>
      <point x="270" y="45" type="curve" smooth="yes"/>
      <point x="181" y="45"/>
      <point x="131" y="103"/>
      <point x="131" y="214" type="curve" smooth="yes"/>
      <point x="131" y="274" type="line" smooth="yes"/>
      <point x="131" y="380"/>
      <point x="181" y="442"/>
      <point x="270" y="442" type="curve" smooth="yes"/>
      <point x="359" y="442"/>
      <point x="409" y="380"/>
    </contour>
  </outline>
</glyph>
<glyph name="p" format="1">
  <advance width="551"/>
  <unicode hex="0070"/>
  <outline>
    <contour>
      <point x="280" y="-10" type="curve" smooth="yes"/>
      <point x="411" y="-10"/>
      <point x="480" y="77"/>
      <point x="480" y="213" type="curve" smooth="yes"/>
      <point x="480" y="273" type="line" smooth="yes"/>
      <point x="480" y="415"/>
      <point x="424" y="497"/>
      <point x="322" y="497" type="curve" smooth="yes"/>
      <point x="265" y="497"/>
      <point x="212" y="473"/>
      <point x="152" y="418" type="curve"/>
      <point x="152" y="487" type="line"/>
      <point x="95" y="487" type="line"/>
      <point x="95" y="-213" type="line"/>
      <point x="155" y="-213" type="line"/>
      <point x="155" y="15" type="line"/>
      <point x="196" y="-1"/>
      <point x="238" y="-10"/>
    </contour>
    <contour>
      <point x="310" y="440" type="curve" smooth="yes"/>
      <point x="383" y="440"/>
      <point x="417" y="388"/>
      <point x="417" y="273" type="curve" smooth="yes"/>
      <point x="417" y="213" type="line" smooth="yes"/>
      <point x="417" y="109"/>
      <point x="377" y="45"/>
      <point x="277" y="45" type="curve" smooth="yes"/>
      <point x="236" y="45"/>
      <point x="197" y="54"/>
      <point x="155" y="73" type="curve"/>
      <point x="155" y="359" type="line"/>
      <point x="227" y="425"/>
      <point x="267" y="440"/>
    </contour>
  </outline>
</glyph>
<glyph name="q" format="1">
  <advance width="549"/>
  <unicode hex="0071"/>
  <outline>
    <contour>
      <point x="456" y="448" type="line"/>
      <point x="396" y="480"/>
      <point x="333" y="497"/>
      <point x="271" y="497" type="curve" smooth="yes"/>
      <point x="140" y="497"/>
      <point x="71" y="410"/>
      <point x="71" y="274" type="curve" smooth="yes"/>
      <point x="71" y="214" type="line" smooth="yes"/>
      <point x="71" y="72"/>
      <point x="127" y="-10"/>
      <point x="229" y="-10" type="curve" smooth="yes"/>
      <point x="285" y="-10"/>
      <point x="338" y="13"/>
      <point x="396" y="67" type="curve"/>
      <point x="396" y="-213" type="line"/>
      <point x="456" y="-213" type="line"/>
    </contour>
    <contour>
      <point x="134" y="214" type="curve" smooth="yes"/>
      <point x="134" y="274" type="line" smooth="yes"/>
      <point x="134" y="378"/>
      <point x="174" y="442"/>
      <point x="274" y="442" type="curve" smooth="yes"/>
      <point x="315" y="442"/>
      <point x="354" y="433"/>
      <point x="396" y="414" type="curve"/>
      <point x="396" y="128" type="line"/>
      <point x="324" y="62"/>
      <point x="284" y="47"/>
      <point x="241" y="47" type="curve" smooth="yes"/>
      <point x="168" y="47"/>
      <point x="134" y="99"/>
    </contour>
  </outline>
</glyph>
<glyph name="r" format="1">
  <advance width="354"/>
  <unicode hex="0072"/>
  <outline>
    <contour>
      <point x="337" y="437" type="curve"/>
      <point x="337" y="497" type="line"/>
      <point x="275" y="497"/>
      <point x="220" y="476"/>
      <point x="152" y="406" type="curve"/>
      <point x="152" y="487" type="line"/>
      <point x="95" y="487" type="line"/>
      <point x="95" y="0" type="line"/>
      <point x="155" y="0" type="line"/>
      <point x="155" y="350" type="line"/>
      <point x="230" y="423"/>
      <point x="281" y="437"/>
    </contour>
  </outline>
</glyph>
<glyph name="s" format="1">
  <advance width="415"/>
  <unicode hex="0073"/>
  <outline>
    <contour>
      <point x="201" y="45" type="curve" smooth="yes"/>
      <point x="149" y="45"/>
      <point x="108" y="56"/>
      <point x="55" y="78" type="curve"/>
      <point x="39" y="27" type="line"/>
      <point x="96" y="1"/>
      <point x="150" y="-10"/>
      <point x="206" y="-10" type="curve" smooth="yes"/>
      <point x="330" y="-10"/>
      <point x="370" y="52"/>
      <point x="370" y="128" type="curve" smooth="yes"/>
      <point x="370" y="203"/>
      <point x="331" y="247"/>
      <point x="250" y="266" type="curve" smooth="yes"/>
      <point x="195" y="279" type="line" smooth="yes"/>
      <point x="128" y="295"/>
      <point x="108" y="327"/>
      <point x="108" y="366" type="curve" smooth="yes"/>
      <point x="108" y="417"/>
      <point x="143" y="442"/>
      <point x="206" y="442" type="curve" smooth="yes"/>
      <point x="247" y="442"/>
      <point x="291" y="431"/>
      <point x="336" y="411" type="curve"/>
      <point x="356" y="462" type="line"/>
      <point x="306" y="486"/>
      <point x="255" y="497"/>
      <point x="206" y="497" type="curve" smooth="yes"/>
      <point x="91" y="497"/>
      <point x="49" y="431"/>
      <point x="49" y="362" type="curve" smooth="yes"/>
      <point x="49" y="294"/>
      <point x="89" y="244"/>
      <point x="165" y="226" type="curve" smooth="yes"/>
      <point x="219" y="213" type="line" smooth="yes"/>
      <point x="290" y="196"/>
      <point x="311" y="169"/>
      <point x="311" y="125" type="curve" smooth="yes"/>
      <point x="311" y="73"/>
      <point x="282" y="45"/>
    </contour>
  </outline>
</glyph>
<glyph name="t" format="1">
  <advance width="369"/>
  <unicode hex="0074"/>
  <outline>
    <contour>
      <point x="344" y="19" type="curve"/>
      <point x="323" y="67" type="line"/>
      <point x="291" y="50"/>
      <point x="266" y="43"/>
      <point x="240" y="43" type="curve" smooth="yes"/>
      <point x="186" y="43"/>
      <point x="165" y="67"/>
      <point x="165" y="142" type="curve" smooth="yes"/>
      <point x="165" y="434" type="line"/>
      <point x="330" y="434" type="line"/>
      <point x="330" y="487" type="line"/>
      <point x="165" y="487" type="line"/>
      <point x="165" y="629" type="line"/>
      <point x="105" y="629" type="line"/>
      <point x="105" y="487" type="line"/>
      <point x="16" y="487" type="line"/>
      <point x="16" y="434" type="line"/>
      <point x="105" y="434" type="line"/>
      <point x="105" y="137" type="line" smooth="yes"/>
      <point x="105" y="60"/>
      <point x="133" y="-10"/>
      <point x="233" y="-10" type="curve" smooth="yes"/>
      <point x="270" y="-10"/>
      <point x="308" y="0"/>
    </contour>
  </outline>
</glyph>
<glyph name="u" format="1">
  <advance width="553"/>
  <unicode hex="0075"/>
  <outline>
    <contour>
      <point x="401" y="0" type="line"/>
      <point x="458" y="0" type="line"/>
      <point x="458" y="487" type="line"/>
      <point x="398" y="487" type="line"/>
      <point x="398" y="126" type="line"/>
      <point x="319" y="62"/>
      <point x="272" y="47"/>
      <point x="232" y="47" type="curve" smooth="yes"/>
      <point x="176" y="47"/>
      <point x="150" y="82"/>
      <point x="150" y="160" type="curve" smooth="yes"/>
      <point x="150" y="487" type="line"/>
      <point x="90" y="487" type="line"/>
      <point x="90" y="149" type="line" smooth="yes"/>
      <point x="90" y="47"/>
      <point x="136" y="-10"/>
      <point x="222" y="-10" type="curve" smooth="yes"/>
      <point x="273" y="-10"/>
      <point x="326" y="7"/>
      <point x="401" y="70" type="curve"/>
    </contour>
  </outline>
</glyph>
<glyph name="v" format="1">
  <advance width="454"/>
  <unicode hex="0076"/>
  <outline>
    <contour>
      <point x="429" y="487" type="line"/>
      <point x="370" y="487" type="line"/>
      <point x="290" y="254" type="line"/>
      <point x="230" y="73" type="line"/>
      <point x="169" y="254" type="line"/>
      <point x="88" y="487" type="line"/>
      <point x="25" y="487" type="line"/>
      <point x="200" y="0" type="line"/>
      <point x="257" y="0" type="line"/>
    </contour>
  </outline>
</glyph>
<glyph name="w" format="1">
  <advance width="703"/>
  <unicode hex="0077"/>
  <outline>
    <contour>
      <point x="669" y="487" type="line"/>
      <point x="608" y="487" type="line"/>
      <point x="558" y="276" type="line"/>
      <point x="507" y="62" type="line"/>
      <point x="388" y="487" type="line"/>
      <point x="319" y="487" type="line"/>
      <point x="198" y="64" type="line"/>
      <point x="147" y="276" type="line"/>
      <point x="96" y="487" type="line"/>
      <point x="34" y="487" type="line"/>
      <point x="158" y="0" type="line"/>
      <point x="233" y="0" type="line"/>
      <point x="352" y="421" type="line"/>
      <point x="469" y="0" type="line"/>
      <point x="544" y="0" type="line"/>
    </contour>
  </outline>
</glyph>
<glyph name="x" format="1">
  <advance width="445"/>
  <unicode hex="0078"/>
  <outline>
    <contour>
      <point x="352" y="0" type="line"/>
      <point x="420" y="0" type="line"/>
      <point x="257" y="254" type="line"/>
      <point x="407" y="487" type="line"/>
      <point x="343" y="487" type="line"/>
      <point x="226" y="300" type="line"/>
      <point x="106" y="487" type="line"/>
      <point x="38" y="487" type="line"/>
      <point x="188" y="254" type="line"/>
      <point x="25" y="0" type="line"/>
      <point x="89" y="0" type="line"/>
      <point x="219" y="208" type="line"/>
    </contour>
  </outline>
</glyph>
<glyph name="y" format="1">
  <advance width="455"/>
  <unicode hex="0079"/>
  <outline>
    <contour>
      <point x="240" y="-50" type="curve" smooth="yes"/>
      <point x="430" y="487" type="line"/>
      <point x="370" y="487" type="line"/>
      <point x="290" y="254" type="line"/>
      <point x="230" y="71" type="line"/>
      <point x="169" y="254" type="line"/>
      <point x="88" y="487" type="line"/>
      <point x="25" y="487" type="line"/>
      <point x="201" y="-2" type="line"/>
      <point x="190" y="-30" type="line" smooth="yes"/>
      <point x="141" y="-156"/>
      <point x="108" y="-166"/>
      <point x="43" y="-166" type="curve"/>
      <point x="43" y="-223" type="line"/>
      <point x="147" y="-223"/>
      <point x="198" y="-169"/>
    </contour>
  </outline>
</glyph>
<glyph name="z" format="1">
  <advance width="399"/>
  <unicode hex="007A"/>
  <outline>
    <contour>
      <point x="367" y="53" type="line"/>
      <point x="105" y="53" type="line"/>
      <point x="357" y="439" type="line"/>
      <point x="357" y="487" type="line"/>
      <point x="45" y="487" type="line"/>
      <point x="45" y="434" type="line"/>
      <point x="287" y="434" type="line"/>
      <point x="35" y="48" type="line"/>
      <point x="35" y="0" type="line"/>
      <point x="367" y="0" type="line"/>
    </contour>
  </outline>
</glyph>
<glyph name="braceleft" format="1">
  <advance width="375"/>
  <unicode hex="007B"/>
  <outline>
    <contour>
      <point x="371" y="-91" type="line"/>
      <point x="286" y="-91" type="line" smooth="yes"/>
      <point x="209" y="-91"/>
      <point x="190" y="-41"/>
      <point x="202" y="22" type="curve" smooth="yes"/>
      <point x="222" y="128" type="line" smooth="yes"/>
      <point x="239" y="221"/>
      <point x="217" y="278"/>
      <point x="163" y="298" type="curve"/>
      <point x="217" y="318"/>
      <point x="239" y="376"/>
      <point x="222" y="468" type="curve" smooth="yes"/>
      <point x="202" y="574" type="line" smooth="yes"/>
      <point x="190" y="637"/>
      <point x="209" y="687"/>
      <point x="286" y="687" type="curve" smooth="yes"/>
      <point x="371" y="687" type="line"/>
      <point x="371" y="740" type="line"/>
      <point x="282" y="740" type="line" smooth="yes"/>
      <point x="164" y="740"/>
      <point x="123" y="668"/>
      <point x="144" y="555" type="curve" smooth="yes"/>
      <point x="164" y="449" type="line" smooth="yes"/>
      <point x="178" y="376"/>
      <point x="169" y="325"/>
      <point x="94" y="325" type="curve" smooth="yes"/>
      <point x="21" y="325" type="line"/>
      <point x="21" y="272" type="line"/>
      <point x="94" y="272" type="line" smooth="yes"/>
      <point x="169" y="272"/>
      <point x="178" y="221"/>
      <point x="164" y="147" type="curve" smooth="yes"/>
      <point x="144" y="41" type="line" smooth="yes"/>
      <point x="123" y="-72"/>
      <point x="164" y="-144"/>
      <point x="282" y="-144" type="curve" smooth="yes"/>
      <point x="371" y="-144" type="line"/>
    </contour>
  </outline>
</glyph>
<glyph name="bar" format="1">
  <advance width="290"/>
  <unicode hex="007C"/>
  <outline>
    <contour>
      <point x="115" y="740" type="line"/>
      <point x="115" y="-213" type="line"/>
      <point x="175" y="-213" type="line"/>
      <point x="175" y="740" type="line"/>
    </contour>
  </outline>
</glyph>
<glyph name="braceright" format="1">
  <advance width="375"/>
  <unicode hex="007D"/>
  <outline>
    <contour>
      <point x="231" y="41" type="curve" smooth="yes"/>
      <point x="211" y="147" type="line" smooth="yes"/>
      <point x="197" y="220"/>
      <point x="206" y="271"/>
      <point x="281" y="271" type="curve" smooth="yes"/>
      <point x="354" y="271" type="line"/>
      <point x="354" y="324" type="line"/>
      <point x="281" y="324" type="line" smooth="yes"/>
      <point x="206" y="324"/>
      <point x="197" y="375"/>
      <point x="211" y="449" type="curve" smooth="yes"/>
      <point x="231" y="555" type="line" smooth="yes"/>
      <point x="252" y="668"/>
      <point x="211" y="740"/>
      <point x="93" y="740" type="curve" smooth="yes"/>
      <point x="4" y="740" type="line"/>
      <point x="4" y="687" type="line"/>
      <point x="89" y="687" type="line" smooth="yes"/>
      <point x="166" y="687"/>
      <point x="185" y="637"/>
      <point x="173" y="574" type="curve" smooth="yes"/>
      <point x="153" y="468" type="line" smooth="yes"/>
      <point x="136" y="375"/>
      <point x="158" y="318"/>
      <point x="212" y="298" type="curve"/>
      <point x="158" y="278"/>
      <point x="136" y="220"/>
      <point x="153" y="128" type="curve" smooth="yes"/>
      <point x="173" y="22" type="line" smooth="yes"/>
      <point x="185" y="-41"/>
      <point x="166" y="-91"/>
      <point x="89" y="-91" type="curve" smooth="yes"/>
      <point x="4" y="-91" type="line"/>
      <point x="4" y="-144" type="line"/>
      <point x="93" y="-144" type="line" smooth="yes"/>
      <point x="211" y="-144"/>
      <point x="252" y="-72"/>
    </contour>
  </outline>
</glyph>
<glyph name="asciitilde" format="1">
  <advance width="588"/>
  <unicode hex="007E"/>
  <outline>
    <contour>
      <point x="387" y="208" type="curve" smooth="yes"/>
      <point x="442" y="208"/>
      <point x="487" y="244"/>
      <point x="511" y="350" type="curve"/>
      <point x="461" y="363" type="line"/>
      <point x="443" y="289"/>
      <point x="421" y="261"/>
      <point x="388" y="261" type="curve" smooth="yes"/>
      <point x="319" y="261"/>
      <point x="305" y="377"/>
      <point x="200" y="377" type="curve" smooth="yes"/>
      <point x="145" y="377"/>
      <point x="100" y="341"/>
      <point x="77" y="236" type="curve"/>
      <point x="127" y="223" type="line"/>
      <point x="144" y="297"/>
      <point x="167" y="324"/>
      <point x="199" y="324" type="curve" smooth="yes"/>
      <point x="268" y="324"/>
      <point x="282" y="208"/>
    </contour>
  </outline>
</glyph>
<glyph name="exclamdown" format="1">
  <advance width="280"/>
  <unicode hex="00A1"/>
  <outline>
    <contour>
      <point x="104" y="487" type="line"/>
      <point x="104" y="414" type="line"/>
      <point x="176" y="414" type="line"/>
      <point x="176" y="487" type="line"/>
    </contour>
    <contour>
      <point x="115" y="315" type="line"/>
      <point x="110" y="77" type="line"/>
      <point x="110" y="-193" type="line"/>
      <point x="170" y="-193" type="line"/>
      <point x="170" y="77" type="line"/>
      <point x="165" y="315" type="line"/>
    </contour>
  </outline>
</glyph>
<glyph name="cent" format="1">
  <advance width="451"/>
  <unicode hex="00A2"/>
  <outline>
    <contour>
      <point x="415" y="29" type="curve"/>
      <point x="395" y="78" type="line"/>
      <point x="350" y="57"/>
      <point x="306" y="45"/>
      <point x="263" y="45" type="curve" smooth="yes"/>
      <point x="172" y="45"/>
      <point x="133" y="104"/>
      <point x="133" y="214" type="curve" smooth="yes"/>
      <point x="133" y="274" type="line" smooth="yes"/>
      <point x="133" y="383"/>
      <point x="172" y="442"/>
      <point x="263" y="442" type="curve" smooth="yes"/>
      <point x="304" y="442"/>
      <point x="346" y="430"/>
      <point x="386" y="411" type="curve"/>
      <point x="406" y="461" type="line"/>
      <point x="369" y="480"/>
      <point x="329" y="491"/>
      <point x="290" y="495" type="curve"/>
      <point x="290" y="612" type="line"/>
      <point x="230" y="612" type="line"/>
      <point x="230" y="495" type="line"/>
      <point x="124" y="484"/>
      <point x="70" y="403"/>
      <point x="70" y="274" type="curve" smooth="yes"/>
      <point x="70" y="214" type="line" smooth="yes"/>
      <point x="70" y="84"/>
      <point x="124" y="3"/>
      <point x="230" y="-8" type="curve"/>
      <point x="230" y="-125" type="line"/>
      <point x="290" y="-125" type="line"/>
      <point x="290" y="-8" type="line"/>
      <point x="332" y="-4"/>
      <point x="376" y="9"/>
    </contour>
  </outline>
</glyph>
<glyph name="sterling" format="1">
  <advance width="486"/>
  <unicode hex="00A3"/>
  <outline>
    <contour>
      <point x="460" y="0" type="line"/>
      <point x="460" y="59" type="line"/>
      <point x="159" y="59" type="line"/>
      <point x="209" y="122"/>
      <point x="235" y="174"/>
      <point x="235" y="232" type="curve" smooth="yes"/>
      <point x="235" y="251"/>
      <point x="232" y="268"/>
      <point x="228" y="285" type="curve"/>
      <point x="391" y="285" type="line"/>
      <point x="391" y="344" type="line"/>
      <point x="206" y="344" type="line"/>
      <point x="182" y="399"/>
      <point x="150" y="452"/>
      <point x="150" y="520" type="curve" smooth="yes"/>
      <point x="150" y="599"/>
      <point x="195" y="631"/>
      <point x="272" y="631" type="curve" smooth="yes"/>
      <point x="318" y="631"/>
      <point x="367" y="620"/>
      <point x="426" y="592" type="curve"/>
      <point x="448" y="649" type="line"/>
      <point x="388" y="677"/>
      <point x="326" y="690"/>
      <point x="272" y="690" type="curve" smooth="yes"/>
      <point x="136" y="690"/>
      <point x="82" y="615"/>
      <point x="82" y="521" type="curve" smooth="yes"/>
      <point x="82" y="455"/>
      <point x="111" y="398"/>
      <point x="136" y="344" type="curve"/>
      <point x="67" y="344" type="line"/>
      <point x="67" y="285" type="line"/>
      <point x="160" y="285" type="line"/>
      <point x="167" y="265"/>
      <point x="171" y="244"/>
      <point x="171" y="224" type="curve" smooth="yes"/>
      <point x="171" y="176"/>
      <point x="149" y="134"/>
      <point x="75" y="46" type="curve"/>
      <point x="75" y="0" type="line"/>
    </contour>
  </outline>
</glyph>
<glyph name="currency" format="1">
  <advance width="588"/>
  <unicode hex="00A4"/>
  <outline>
    <contour>
      <point x="548" y="75" type="line"/>
      <point x="448" y="179" type="line"/>
      <point x="472" y="212"/>
      <point x="486" y="253"/>
      <point x="486" y="300" type="curve" smooth="yes"/>
      <point x="486" y="347"/>
      <point x="472" y="389"/>
      <point x="448" y="421" type="curve"/>
      <point x="548" y="525" type="line"/>
      <point x="510" y="565" type="line"/>
      <point x="409" y="461" type="line"/>
      <point x="377" y="484"/>
      <point x="338" y="497"/>
      <point x="294" y="497" type="curve" smooth="yes"/>
      <point x="250" y="497"/>
      <point x="211" y="484"/>
      <point x="179" y="461" type="curve"/>
      <point x="78" y="565" type="line"/>
      <point x="40" y="525" type="line"/>
      <point x="140" y="422" type="line"/>
      <point x="116" y="389"/>
      <point x="102" y="347"/>
      <point x="102" y="300" type="curve" smooth="yes"/>
      <point x="102" y="253"/>
      <point x="116" y="211"/>
      <point x="140" y="179" type="curve"/>
      <point x="40" y="75" type="line"/>
      <point x="78" y="35" type="line"/>
      <point x="179" y="139" type="line"/>
      <point x="211" y="116"/>
      <point x="250" y="103"/>
      <point x="294" y="103" type="curve" smooth="yes"/>
      <point x="338" y="103"/>
      <point x="377" y="116"/>
      <point x="408" y="139" type="curve"/>
      <point x="510" y="35" type="line"/>
    </contour>
    <contour>
      <point x="294" y="155" type="curve" smooth="yes"/>
      <point x="215" y="155"/>
      <point x="159" y="215"/>
      <point x="159" y="300" type="curve" smooth="yes"/>
      <point x="159" y="385"/>
      <point x="215" y="445"/>
      <point x="294" y="445" type="curve" smooth="yes"/>
      <point x="373" y="445"/>
      <point x="429" y="385"/>
      <point x="429" y="300" type="curve" smooth="yes"/>
      <point x="429" y="215"/>
      <point x="373" y="155"/>
    </contour>
  </outline>
</glyph>
<glyph name="yen" format="1">
  <advance width="546"/>
  <unicode hex="00A5"/>
  <outline>
    <contour>
      <point x="499" y="174" type="line"/>
      <point x="499" y="230" type="line"/>
      <point x="306" y="230" type="line"/>
      <point x="306" y="270" type="line"/>
      <point x="344" y="346" type="line"/>
      <point x="499" y="346" type="line"/>
      <point x="499" y="402" type="line"/>
      <point x="373" y="402" type="line"/>
      <point x="513" y="680" type="line"/>
      <point x="446" y="680" type="line"/>
      <point x="276" y="337" type="line"/>
      <point x="103" y="680" type="line"/>
      <point x="33" y="680" type="line"/>
      <point x="174" y="402" type="line"/>
      <point x="48" y="402" type="line"/>
      <point x="48" y="346" type="line"/>
      <point x="202" y="346" type="line"/>
      <point x="241" y="270" type="line"/>
      <point x="241" y="230" type="line"/>
      <point x="48" y="230" type="line"/>
      <point x="48" y="174" type="line"/>
      <point x="241" y="174" type="line"/>
      <point x="241" y="0" type="line"/>
      <point x="306" y="0" type="line"/>
      <point x="306" y="174" type="line"/>
    </contour>
  </outline>
</glyph>
<glyph name="brokenbar" format="1">
  <advance width="284"/>
  <unicode hex="00A6"/>
  <outline>
    <contour>
      <point x="112" y="740" type="line"/>
      <point x="112" y="357" type="line"/>
      <point x="172" y="357" type="line"/>
      <point x="172" y="740" type="line"/>
    </contour>
    <contour>
      <point x="112" y="170" type="line"/>
      <point x="112" y="-213" type="line"/>
      <point x="172" y="-213" type="line"/>
      <point x="172" y="170" type="line"/>
    </contour>
  </outline>
</glyph>
<glyph name="section" format="1">
  <advance width="502"/>
  <unicode hex="00A7"/>
  <outline>
    <contour>
      <point x="442" y="-59" type="curve" smooth="yes"/>
      <point x="442" y="1"/>
      <point x="417" y="46"/>
      <point x="370" y="78" type="curve"/>
      <point x="424" y="108"/>
      <point x="460" y="164"/>
      <point x="460" y="226" type="curve" smooth="yes"/>
      <point x="460" y="310"/>
      <point x="407" y="367"/>
      <point x="306" y="396" type="curve" smooth="yes"/>
      <point x="230" y="418" type="line" smooth="yes"/>
      <point x="163" y="437"/>
      <point x="143" y="477"/>
      <point x="143" y="528" type="curve" smooth="yes"/>
      <point x="143" y="602"/>
      <point x="187" y="633"/>
      <point x="265" y="633" type="curve" smooth="yes"/>
      <point x="309" y="633"/>
      <point x="358" y="623"/>
      <point x="417" y="597" type="curve"/>
      <point x="438" y="652" type="line"/>
      <point x="379" y="678"/>
      <point x="318" y="690"/>
      <point x="265" y="690" type="curve" smooth="yes"/>
      <point x="129" y="690"/>
      <point x="77" y="612"/>
      <point x="77" y="523" type="curve" smooth="yes"/>
      <point x="77" y="467"/>
      <point x="96" y="420"/>
      <point x="139" y="388" type="curve"/>
      <point x="84" y="358"/>
      <point x="47" y="302"/>
      <point x="47" y="239" type="curve" smooth="yes"/>
      <point x="47" y="161"/>
      <point x="93" y="105"/>
      <point x="196" y="73" type="curve" smooth="yes"/>
      <point x="271" y="50" type="line" smooth="yes"/>
      <point x="343" y="28"/>
      <point x="376" y="-12"/>
      <point x="376" y="-67" type="curve" smooth="yes"/>
      <point x="376" y="-132"/>
      <point x="325" y="-166"/>
      <point x="239" y="-166" type="curve" smooth="yes"/>
      <point x="183" y="-166"/>
      <point x="128" y="-151"/>
      <point x="65" y="-121" type="curve"/>
      <point x="44" y="-177" type="line"/>
      <point x="107" y="-207"/>
      <point x="175" y="-223"/>
      <point x="239" y="-223" type="curve" smooth="yes"/>
      <point x="379" y="-223"/>
      <point x="442" y="-152"/>
    </contour>
    <contour>
      <point x="295" y="112" type="curve" smooth="yes"/>
      <point x="220" y="135" type="line" smooth="yes"/>
      <point x="139" y="160"/>
      <point x="113" y="191"/>
      <point x="113" y="244" type="curve" smooth="yes"/>
      <point x="113" y="297"/>
      <point x="139" y="336"/>
      <point x="186" y="363" type="curve"/>
      <point x="192" y="360"/>
      <point x="199" y="358"/>
      <point x="206" y="356" type="curve" smooth="yes"/>
      <point x="282" y="334" type="line" smooth="yes"/>
      <point x="359" y="312"/>
      <point x="394" y="275"/>
      <point x="394" y="217" type="curve" smooth="yes"/>
      <point x="394" y="167"/>
      <point x="369" y="130"/>
      <point x="322" y="103" type="curve"/>
      <point x="313" y="106"/>
      <point x="304" y="109"/>
    </contour>
  </outline>
</glyph>
<glyph name="dieresis" format="1">
  <advance width="500"/>
  <unicode hex="00A8"/>
  <outline>
    <contour>
      <point x="191" y="627" type="line"/>
      <point x="191" y="698" type="line"/>
      <point x="120" y="698" type="line"/>
      <point x="120" y="627" type="line"/>
    </contour>
    <contour>
      <point x="380" y="627" type="line"/>
      <point x="380" y="698" type="line"/>
      <point x="309" y="698" type="line"/>
      <point x="309" y="627" type="line"/>
    </contour>
  </outline>
</glyph>
<glyph name="copyright" format="1">
  <advance width="844"/>
  <unicode hex="00A9"/>
  <outline>
    <contour>
      <point x="422" y="-37" type="curve" smooth="yes"/>
      <point x="636" y="-37"/>
      <point x="794" y="122"/>
      <point x="794" y="340" type="curve" smooth="yes"/>
      <point x="794" y="558"/>
      <point x="636" y="717"/>
      <point x="422" y="717" type="curve" smooth="yes"/>
      <point x="207" y="717"/>
      <point x="50" y="558"/>
      <point x="50" y="340" type="curve" smooth="yes"/>
      <point x="50" y="122"/>
      <point x="207" y="-37"/>
    </contour>
    <contour>
      <point x="422" y="13" type="curve" smooth="yes"/>
      <point x="239" y="13"/>
      <point x="106" y="149"/>
      <point x="106" y="340" type="curve" smooth="yes"/>
      <point x="106" y="530"/>
      <point x="239" y="667"/>
      <point x="422" y="667" type="curve" smooth="yes"/>
      <point x="605" y="667"/>
      <point x="738" y="530"/>
      <point x="738" y="340" type="curve" smooth="yes"/>
      <point x="738" y="149"/>
      <point x="605" y="13"/>
    </contour>
    <contour>
      <point x="311" y="361" type="line" smooth="yes"/>
      <point x="311" y="453"/>
      <point x="346" y="502"/>
      <point x="426" y="502" type="curve" smooth="yes"/>
      <point x="461" y="502"/>
      <point x="497" y="493"/>
      <point x="534" y="476" type="curve"/>
      <point x="554" y="525" type="line"/>
      <point x="512" y="547"/>
      <point x="464" y="557"/>
      <point x="421" y="557" type="curve" smooth="yes"/>
      <point x="307" y="557"/>
      <point x="248" y="484"/>
      <point x="248" y="361" type="curve" smooth="yes"/>
      <point x="248" y="320" type="line" smooth="yes"/>
      <point x="248" y="196"/>
      <point x="307" y="123"/>
      <point x="421" y="123" type="curve" smooth="yes"/>
      <point x="468" y="123"/>
      <point x="518" y="135"/>
      <point x="563" y="158" type="curve"/>
      <point x="543" y="207" type="line"/>
      <point x="503" y="188"/>
      <point x="464" y="178"/>
      <point x="426" y="178" type="curve" smooth="yes"/>
      <point x="346" y="178"/>
      <point x="311" y="227"/>
      <point x="311" y="320" type="curve" smooth="yes"/>
    </contour>
  </outline>
</glyph>
<glyph name="ordfeminine" format="1">
  <advance width="341"/>
  <unicode hex="00AA"/>
  <outline>
    <contour>
      <point x="306" y="338" type="curve" smooth="yes"/>
      <point x="313" y="338" type="line"/>
      <point x="313" y="390" type="line"/>
      <point x="304" y="390" type="line" smooth="yes"/>
      <point x="284" y="390"/>
      <point x="279" y="403"/>
      <point x="279" y="423" type="curve" smooth="yes"/>
      <point x="279" y="575" type="line" smooth="yes"/>
      <point x="279" y="630"/>
      <point x="257" y="685"/>
      <point x="158" y="685" type="curve" smooth="yes"/>
      <point x="118" y="685"/>
      <point x="81" y="674"/>
      <point x="43" y="655" type="curve"/>
      <point x="62" y="610" type="line"/>
      <point x="95" y="626"/>
      <point x="125" y="635"/>
      <point x="157" y="635" type="curve" smooth="yes"/>
      <point x="204" y="635"/>
      <point x="226" y="618"/>
      <point x="226" y="568" type="curve" smooth="yes"/>
      <point x="226" y="519" type="line"/>
      <point x="198" y="524"/>
      <point x="171" y="527"/>
      <point x="149" y="527" type="curve" smooth="yes"/>
      <point x="60" y="527"/>
      <point x="33" y="485"/>
      <point x="33" y="432" type="curve" smooth="yes"/>
      <point x="33" y="379"/>
      <point x="62" y="335"/>
      <point x="124" y="335" type="curve" smooth="yes"/>
      <point x="155" y="335"/>
      <point x="187" y="346"/>
      <point x="231" y="382" type="curve"/>
      <point x="240" y="355"/>
      <point x="269" y="338"/>
    </contour>
    <contour>
      <point x="88" y="432" type="curve" smooth="yes"/>
      <point x="88" y="465"/>
      <point x="105" y="482"/>
      <point x="150" y="482" type="curve" smooth="yes"/>
      <point x="167" y="482"/>
      <point x="197" y="480"/>
      <point x="226" y="475" type="curve"/>
      <point x="226" y="427" type="line"/>
      <point x="184" y="393"/>
      <point x="153" y="382"/>
      <point x="132" y="382" type="curve" smooth="yes"/>
      <point x="103" y="382"/>
      <point x="88" y="402"/>
    </contour>
  </outline>
</glyph>
<glyph name="guillemotleft" format="1">
  <advance width="638"/>
  <unicode hex="00AB"/>
  <outline>
    <contour>
      <point x="312" y="87" type="line"/>
      <point x="101" y="249" type="line"/>
      <point x="312" y="409" type="line"/>
      <point x="312" y="478" type="line"/>
      <point x="36" y="266" type="line"/>
      <point x="36" y="229" type="line"/>
      <point x="312" y="14" type="line"/>
    </contour>
    <contour>
      <point x="582" y="87" type="line"/>
      <point x="371" y="249" type="line"/>
      <point x="582" y="409" type="line"/>
      <point x="582" y="478" type="line"/>
      <point x="306" y="266" type="line"/>
      <point x="306" y="229" type="line"/>
      <point x="582" y="14" type="line"/>
    </contour>
  </outline>
</glyph>
<glyph name="logicalnot" format="1">
  <advance width="588"/>
  <unicode hex="00AC"/>
  <outline>
    <contour>
      <point x="87" y="378" type="line"/>
      <point x="445" y="378" type="line"/>
      <point x="445" y="197" type="line"/>
      <point x="501" y="197" type="line"/>
      <point x="501" y="431" type="line"/>
      <point x="87" y="431" type="line"/>
    </contour>
  </outline>
</glyph>
<glyph name="registered" format="1">
  <advance width="554"/>
  <unicode hex="00AE"/>
  <outline>
    <contour>
      <point x="277" y="241" type="curve" smooth="yes"/>
      <point x="411" y="241"/>
      <point x="511" y="343"/>
      <point x="511" y="479" type="curve" smooth="yes"/>
      <point x="511" y="616"/>
      <point x="411" y="717"/>
      <point x="277" y="717" type="curve" smooth="yes"/>
      <point x="143" y="717"/>
      <point x="43" y="616"/>
      <point x="43" y="479" type="curve" smooth="yes"/>
      <point x="43" y="343"/>
      <point x="143" y="241"/>
    </contour>
    <contour>
      <point x="277" y="284" type="curve" smooth="yes"/>
      <point x="169" y="284"/>
      <point x="90" y="367"/>
      <point x="90" y="479" type="curve" smooth="yes"/>
      <point x="90" y="592"/>
      <point x="169" y="674"/>
      <point x="277" y="674" type="curve" smooth="yes"/>
      <point x="385" y="674"/>
      <point x="464" y="592"/>
      <point x="464" y="479" type="curve" smooth="yes"/>
      <point x="464" y="367"/>
      <point x="385" y="284"/>
    </contour>
    <contour>
      <point x="200" y="353" type="line"/>
      <point x="245" y="353" type="line"/>
      <point x="245" y="443" type="line"/>
      <point x="281" y="443" type="line"/>
      <point x="298" y="414"/>
      <point x="313" y="384"/>
      <point x="326" y="353" type="curve"/>
      <point x="377" y="353" type="line"/>
      <point x="362" y="388"/>
      <point x="345" y="420"/>
      <point x="325" y="452" type="curve"/>
      <point x="349" y="464"/>
      <point x="362" y="488"/>
      <point x="362" y="518" type="curve" smooth="yes"/>
      <point x="362" y="535" type="line" smooth="yes"/>
      <point x="362" y="579"/>
      <point x="333" y="608"/>
      <point x="282" y="608" type="curve" smooth="yes"/>
      <point x="200" y="608" type="line"/>
    </contour>
    <contour>
      <point x="282" y="566" type="line" smooth="yes"/>
      <point x="302" y="566"/>
      <point x="315" y="554"/>
      <point x="315" y="535" type="curve" smooth="yes"/>
      <point x="315" y="518" type="line" smooth="yes"/>
      <point x="315" y="498"/>
      <point x="302" y="486"/>
      <point x="282" y="486" type="curve" smooth="yes"/>
      <point x="245" y="486" type="line"/>
      <point x="245" y="566" type="line"/>
    </contour>
  </outline>
</glyph>
<glyph name="macron" format="1">
  <advance width="500"/>
  <unicode hex="00AF"/>
  <outline>
    <contour>
      <point x="387" y="659" type="line"/>
      <point x="113" y="659" type="line"/>
      <point x="113" y="609" type="line"/>
      <point x="387" y="609" type="line"/>
    </contour>
  </outline>
</glyph>
<glyph name="degree" format="1">
  <advance width="374"/>
  <unicode hex="00B0"/>
  <outline>
    <contour>
      <point x="187" y="366" type="curve" smooth="yes"/>
      <point x="279" y="366"/>
      <point x="344" y="433"/>
      <point x="344" y="528" type="curve" smooth="yes"/>
      <point x="344" y="624"/>
      <point x="279" y="690"/>
      <point x="187" y="690" type="curve" smooth="yes"/>
      <point x="94" y="690"/>
      <point x="30" y="624"/>
      <point x="30" y="528" type="curve" smooth="yes"/>
      <point x="30" y="433"/>
      <point x="94" y="366"/>
    </contour>
    <contour>
      <point x="187" y="418" type="curve" smooth="yes"/>
      <point x="126" y="418"/>
      <point x="85" y="461"/>
      <point x="85" y="528" type="curve" smooth="yes"/>
      <point x="85" y="595"/>
      <point x="126" y="638"/>
      <point x="187" y="638" type="curve" smooth="yes"/>
      <point x="248" y="638"/>
      <point x="289" y="595"/>
      <point x="289" y="528" type="curve" smooth="yes"/>
      <point x="289" y="461"/>
      <point x="248" y="418"/>
    </contour>
  </outline>
</glyph>
<glyph name="plusminus" format="1">
  <advance width="588"/>
  <unicode hex="00B1"/>
  <outline>
    <contour>
      <point x="501" y="308" type="line"/>
      <point x="501" y="361" type="line"/>
      <point x="322" y="361" type="line"/>
      <point x="322" y="546" type="line"/>
      <point x="266" y="546" type="line"/>
      <point x="266" y="361" type="line"/>
      <point x="87" y="361" type="line"/>
      <point x="87" y="308" type="line"/>
      <point x="266" y="308" type="line"/>
      <point x="266" y="123" type="line"/>
      <point x="322" y="123" type="line"/>
      <point x="322" y="308" type="line"/>
    </contour>
    <contour>
      <point x="87" y="0" type="line"/>
      <point x="501" y="0" type="line"/>
      <point x="501" y="53" type="line"/>
      <point x="87" y="53" type="line"/>
    </contour>
  </outline>
</glyph>
<glyph name="mu" format="1">
  <advance width="562"/>
  <unicode hex="00B5"/>
  <outline>
    <contour>
      <point x="155" y="-213" type="line"/>
      <point x="155" y="-125" type="line"/>
      <point x="145" y="23" type="line"/>
      <point x="166" y="1"/>
      <point x="195" y="-10"/>
      <point x="232" y="-10" type="curve" smooth="yes"/>
      <point x="278" y="-10"/>
      <point x="332" y="7"/>
      <point x="408" y="71" type="curve"/>
      <point x="415" y="24"/>
      <point x="459" y="-5"/>
      <point x="512" y="-5" type="curve" smooth="yes"/>
      <point x="522" y="-5" type="line"/>
      <point x="522" y="50" type="line"/>
      <point x="510" y="50" type="line" smooth="yes"/>
      <point x="472" y="50"/>
      <point x="463" y="74"/>
      <point x="463" y="112" type="curve" smooth="yes"/>
      <point x="463" y="487" type="line"/>
      <point x="403" y="487" type="line"/>
      <point x="403" y="126" type="line"/>
      <point x="324" y="62"/>
      <point x="277" y="47"/>
      <point x="237" y="47" type="curve" smooth="yes"/>
      <point x="181" y="47"/>
      <point x="155" y="82"/>
      <point x="155" y="160" type="curve" smooth="yes"/>
      <point x="155" y="487" type="line"/>
      <point x="95" y="487" type="line"/>
      <point x="95" y="-213" type="line"/>
    </contour>
  </outline>
</glyph>
<glyph name="paragraph" format="1">
  <advance width="558"/>
  <unicode hex="00B6"/>
  <outline>
    <contour>
      <point x="47" y="497" type="curve" smooth="yes"/>
      <point x="47" y="444" type="line" smooth="yes"/>
      <point x="47" y="333"/>
      <point x="117" y="260"/>
      <point x="240" y="260" type="curve"/>
      <point x="307" y="260" type="line"/>
      <point x="307" y="621" type="line"/>
      <point x="378" y="621" type="line"/>
      <point x="378" y="-143" type="line"/>
      <point x="443" y="-143" type="line"/>
      <point x="443" y="621" type="line"/>
      <point x="533" y="621" type="line"/>
      <point x="533" y="680" type="line"/>
      <point x="240" y="680" type="line" smooth="yes"/>
      <point x="117" y="680"/>
      <point x="47" y="608"/>
    </contour>
  </outline>
</glyph>
<glyph name="periodcentered" format="1">
  <advance width="500"/>
  <unicode hex="00B7"/>
  <outline>
    <contour>
      <point x="286" y="348" type="line"/>
      <point x="286" y="421" type="line"/>
      <point x="214" y="421" type="line"/>
      <point x="214" y="348" type="line"/>
    </contour>
  </outline>
</glyph>
<glyph name="cedilla" format="1">
  <advance width="500"/>
  <unicode hex="00B8"/>
  <outline>
    <contour>
      <point x="340" y="-138" type="curve" smooth="yes"/>
      <point x="340" y="-87"/>
      <point x="301" y="-58"/>
      <point x="242" y="-58" type="curve" smooth="yes"/>
      <point x="238" y="-58" type="line"/>
      <point x="249" y="0" type="line"/>
      <point x="201" y="0" type="line"/>
      <point x="189" y="-64" type="line"/>
      <point x="212" y="-106" type="line"/>
      <point x="219" y="-105"/>
      <point x="226" y="-104"/>
      <point x="232" y="-104" type="curve" smooth="yes"/>
      <point x="275" y="-104"/>
      <point x="286" y="-119"/>
      <point x="286" y="-138" type="curve" smooth="yes"/>
      <point x="286" y="-158"/>
      <point x="276" y="-174"/>
      <point x="233" y="-174" type="curve" smooth="yes"/>
      <point x="214" y="-174"/>
      <point x="191" y="-170"/>
      <point x="170" y="-162" type="curve"/>
      <point x="160" y="-208" type="line"/>
      <point x="184" y="-218"/>
      <point x="210" y="-223"/>
      <point x="235" y="-223" type="curve" smooth="yes"/>
      <point x="298" y="-223"/>
      <point x="340" y="-192"/>
    </contour>
  </outline>
</glyph>
<glyph name="ordmasculine" format="1">
  <advance width="352"/>
  <unicode hex="00BA"/>
  <outline>
    <contour>
      <point x="320" y="531" type="line" smooth="yes"/>
      <point x="320" y="625"/>
      <point x="268" y="685"/>
      <point x="176" y="685" type="curve" smooth="yes"/>
      <point x="83" y="685"/>
      <point x="32" y="625"/>
      <point x="32" y="531" type="curve" smooth="yes"/>
      <point x="32" y="489" type="line" smooth="yes"/>
      <point x="32" y="391"/>
      <point x="84" y="335"/>
      <point x="176" y="335" type="curve" smooth="yes"/>
      <point x="267" y="335"/>
      <point x="320" y="391"/>
      <point x="320" y="489" type="curve" smooth="yes"/>
    </contour>
    <contour>
      <point x="265" y="531" type="curve" smooth="yes"/>
      <point x="265" y="489" type="line" smooth="yes"/>
      <point x="265" y="420"/>
      <point x="233" y="385"/>
      <point x="176" y="385" type="curve" smooth="yes"/>
      <point x="119" y="385"/>
      <point x="87" y="420"/>
      <point x="87" y="489" type="curve" smooth="yes"/>
      <point x="87" y="531" type="line" smooth="yes"/>
      <point x="87" y="597"/>
      <point x="119" y="635"/>
      <point x="176" y="635" type="curve" smooth="yes"/>
      <point x="233" y="635"/>
      <point x="265" y="597"/>
    </contour>
  </outline>
</glyph>
<glyph name="guillemotright" format="1">
  <advance width="638"/>
  <unicode hex="00BB"/>
  <outline>
    <contour>
      <point x="602" y="226" type="line"/>
      <point x="602" y="263" type="line"/>
      <point x="326" y="478" type="line"/>
      <point x="326" y="405" type="line"/>
      <point x="537" y="243" type="line"/>
      <point x="326" y="83" type="line"/>
      <point x="326" y="14" type="line"/>
    </contour>
    <contour>
      <point x="332" y="226" type="line"/>
      <point x="332" y="263" type="line"/>
      <point x="56" y="478" type="line"/>
      <point x="56" y="405" type="line"/>
      <point x="267" y="243" type="line"/>
      <point x="56" y="83" type="line"/>
      <point x="56" y="14" type="line"/>
    </contour>
  </outline>
</glyph>
<glyph name="questiondown" format="1">
  <advance width="422"/>
  <unicode hex="00BF"/>
  <outline>
    <contour>
      <point x="204" y="487" type="line"/>
      <point x="204" y="414" type="line"/>
      <point x="276" y="414" type="line"/>
      <point x="276" y="487" type="line"/>
    </contour>
    <contour>
      <point x="242" y="-148" type="curve" smooth="yes"/>
      <point x="162" y="-148"/>
      <point x="114" y="-107"/>
      <point x="114" y="-39" type="curve" smooth="yes"/>
      <point x="114" y="-22" type="line" smooth="yes"/>
      <point x="114" y="38"/>
      <point x="130" y="73"/>
      <point x="157" y="98" type="curve" smooth="yes"/>
      <point x="189" y="127" type="line" smooth="yes"/>
      <point x="246" y="179"/>
      <point x="272" y="212"/>
      <point x="272" y="290" type="curve" smooth="yes"/>
      <point x="272" y="315" type="line"/>
      <point x="212" y="315" type="line"/>
      <point x="212" y="289" type="line" smooth="yes"/>
      <point x="212" y="239"/>
      <point x="200" y="214"/>
      <point x="156" y="174" type="curve" smooth="yes"/>
      <point x="124" y="145" type="line" smooth="yes"/>
      <point x="78" y="103"/>
      <point x="51" y="55"/>
      <point x="51" y="-22" type="curve" smooth="yes"/>
      <point x="51" y="-39" type="line" smooth="yes"/>
      <point x="51" y="-131"/>
      <point x="114" y="-203"/>
      <point x="242" y="-203" type="curve" smooth="yes"/>
      <point x="298" y="-203"/>
      <point x="363" y="-191"/>
      <point x="425" y="-162" type="curve"/>
      <point x="403" y="-109" type="line"/>
      <point x="342" y="-138"/>
      <point x="289" y="-148"/>
    </contour>
  </outline>
</glyph>
<glyph name="Aring" format="1">
  <advance width="562.0"/>
  <unicode hex="00C5"/>
  <outline>
    <contour>
      <point x="141" y="175" type="line"/>
      <point x="416" y="175" type="line"/>
      <point x="474" y="0" type="line"/>
      <point x="540" y="0" type="line"/>
      <point x="326" y="640" type="line"/>
      <point x="367" y="655"/>
      <point x="391" y="691"/>
      <point x="391" y="737" type="curve" smooth="yes"/>
      <point x="391" y="748" type="line" smooth="yes"/>
      <point x="391" y="810"/>
      <point x="348" y="852"/>
      <point x="281" y="852" type="curve" smooth="yes"/>
      <point x="214" y="852"/>
      <point x="171" y="810"/>
      <point x="171" y="748" type="curve" smooth="yes"/>
      <point x="171" y="737" type="line" smooth="yes"/>
      <point x="171" y="691"/>
      <point x="195" y="655"/>
      <point x="235" y="640" type="curve"/>
      <point x="22" y="0" type="line"/>
      <point x="84" y="0" type="line"/>
    </contour>
    <contour>
      <point x="339" y="748" type="curve" smooth="yes"/>
      <point x="339" y="737" type="line" smooth="yes"/>
      <point x="339" y="702"/>
      <point x="316" y="680"/>
      <point x="281" y="680" type="curve" smooth="yes"/>
      <point x="246" y="680"/>
      <point x="223" y="703"/>
      <point x="223" y="737" type="curve" smooth="yes"/>
      <point x="223" y="748" type="line" smooth="yes"/>
      <point x="223" y="782"/>
      <point x="246" y="805"/>
      <point x="281" y="805" type="curve" smooth="yes"/>
      <point x="316" y="805"/>
      <point x="339" y="782"/>
    </contour>
    <contour>
      <point x="203" y="363" type="line"/>
      <point x="278" y="595" type="line"/>
      <point x="353" y="363" type="line"/>
      <point x="396" y="233" type="line"/>
      <point x="160" y="233" type="line"/>
    </contour>
  </outline>
</glyph>
<glyph name="AE" format="1">
  <advance width="828.0"/>
  <unicode hex="00C6"/>
  <outline>
    <contour>
      <point x="5" y="0" type="line"/>
      <point x="74" y="0" type="line"/>
      <point x="172" y="175" type="line"/>
      <point x="415" y="175" type="line"/>
      <point x="415" y="0" type="line"/>
      <point x="785" y="0" type="line"/>
      <point x="785" y="59" type="line"/>
      <point x="480" y="59" type="line"/>
      <point x="480" y="315" type="line"/>
      <point x="745" y="315" type="line"/>
      <point x="745" y="374" type="line"/>
      <point x="480" y="374" type="line"/>
      <point x="480" y="621" type="line"/>
      <point x="775" y="621" type="line"/>
      <point x="775" y="680" type="line"/>
      <point x="389" y="680" type="line"/>
    </contour>
    <contour>
      <point x="204" y="233" type="line"/>
      <point x="415" y="610" type="line"/>
      <point x="415" y="233" type="line"/>
    </contour>
  </outline>
</glyph>
<glyph name="Ccedilla" format="1">
  <advance width="526"/>
  <unicode hex="00C7"/>
  <outline>
    <contour>
      <point x="415" y="-138" type="curve" smooth="yes"/>
      <point x="415" y="-87"/>
      <point x="376" y="-58"/>
      <point x="317" y="-58" type="curve" smooth="yes"/>
      <point x="313" y="-58" type="line"/>
      <point x="322" y="-10" type="line"/>
      <point x="374" y="-9"/>
      <point x="430" y="4"/>
      <point x="487" y="31" type="curve"/>
      <point x="464" y="86" type="line"/>
      <point x="404" y="58"/>
      <point x="363" y="49"/>
      <point x="316" y="49" type="curve" smooth="yes"/>
      <point x="207" y="49"/>
      <point x="152" y="119"/>
      <point x="152" y="263" type="curve" smooth="yes"/>
      <point x="152" y="417" type="line" smooth="yes"/>
      <point x="152" y="561"/>
      <point x="207" y="631"/>
      <point x="315" y="631" type="curve" smooth="yes"/>
      <point x="363" y="631"/>
      <point x="414" y="619"/>
      <point x="465" y="594" type="curve"/>
      <point x="487" y="649" type="line"/>
      <point x="432" y="677"/>
      <point x="370" y="690"/>
      <point x="315" y="690" type="curve" smooth="yes"/>
      <point x="165" y="690"/>
      <point x="84" y="592"/>
      <point x="84" y="417" type="curve" smooth="yes"/>
      <point x="84" y="263" type="line" smooth="yes"/>
      <point x="84" y="104"/>
      <point x="151" y="9"/>
      <point x="275" y="-7" type="curve"/>
      <point x="264" y="-64" type="line"/>
      <point x="287" y="-106" type="line"/>
      <point x="294" y="-105"/>
      <point x="301" y="-104"/>
      <point x="307" y="-104" type="curve" smooth="yes"/>
      <point x="350" y="-104"/>
      <point x="361" y="-119"/>
      <point x="361" y="-138" type="curve" smooth="yes"/>
      <point x="361" y="-158"/>
      <point x="351" y="-174"/>
      <point x="308" y="-174" type="curve" smooth="yes"/>
      <point x="289" y="-174"/>
      <point x="266" y="-170"/>
      <point x="245" y="-162" type="curve"/>
      <point x="235" y="-208" type="line"/>
      <point x="259" y="-218"/>
      <point x="285" y="-223"/>
      <point x="310" y="-223" type="curve" smooth="yes"/>
      <point x="373" y="-223"/>
      <point x="415" y="-192"/>
    </contour>
  </outline>
</glyph>
<glyph name="Eth" format="1">
  <advance width="647"/>
  <unicode hex="00D0"/>
  <outline>
    <contour>
      <point x="35" y="374" type="line"/>
      <point x="35" y="315" type="line"/>
      <point x="125" y="315" type="line"/>
      <point x="125" y="0" type="line"/>
      <point x="323" y="0" type="line" smooth="yes"/>
      <point x="475" y="0"/>
      <point x="561" y="104"/>
      <point x="561" y="264" type="curve" smooth="yes"/>
      <point x="561" y="417" type="line" smooth="yes"/>
      <point x="561" y="576"/>
      <point x="475" y="680"/>
      <point x="323" y="680" type="curve" smooth="yes"/>
      <point x="125" y="680" type="line"/>
      <point x="125" y="374" type="line"/>
    </contour>
    <contour>
      <point x="339" y="315" type="line"/>
      <point x="339" y="374" type="line"/>
      <point x="190" y="374" type="line"/>
      <point x="190" y="621" type="line"/>
      <point x="323" y="621" type="line" smooth="yes"/>
      <point x="434" y="621"/>
      <point x="493" y="545"/>
      <point x="493" y="417" type="curve" smooth="yes"/>
      <point x="493" y="264" type="line" smooth="yes"/>
      <point x="493" y="136"/>
      <point x="434" y="59"/>
      <point x="323" y="59" type="curve" smooth="yes"/>
      <point x="190" y="59" type="line"/>
      <point x="190" y="315" type="line"/>
    </contour>
  </outline>
</glyph>
<glyph name="multiply" format="1">
  <advance width="588"/>
  <unicode hex="00D7"/>
  <outline>
    <contour>
      <point x="487" y="139" type="line"/>
      <point x="332" y="295" type="line"/>
      <point x="487" y="451" type="line"/>
      <point x="449" y="489" type="line"/>
      <point x="294" y="333" type="line"/>
      <point x="139" y="489" type="line"/>
      <point x="101" y="451" type="line"/>
      <point x="256" y="295" type="line"/>
      <point x="101" y="139" type="line"/>
      <point x="139" y="102" type="line"/>
      <point x="294" y="257" type="line"/>
      <point x="449" y="102" type="line"/>
    </contour>
  </outline>
</glyph>
<glyph name="Oslash" format="1">
  <advance width="652"/>
  <unicode hex="00D8"/>
  <outline>
    <contour>
      <point x="326" y="-10" type="curve" smooth="yes"/>
      <point x="479" y="-10"/>
      <point x="566" y="98"/>
      <point x="566" y="264" type="curve" smooth="yes"/>
      <point x="566" y="417" type="line" smooth="yes"/>
      <point x="566" y="496"/>
      <point x="546" y="561"/>
      <point x="509" y="609" type="curve"/>
      <point x="566" y="710" type="line"/>
      <point x="505" y="710" type="line"/>
      <point x="469" y="647" type="line"/>
      <point x="431" y="675"/>
      <point x="383" y="690"/>
      <point x="326" y="690" type="curve" smooth="yes"/>
      <point x="173" y="690"/>
      <point x="86" y="582"/>
      <point x="86" y="417" type="curve" smooth="yes"/>
      <point x="86" y="264" type="line" smooth="yes"/>
      <point x="86" y="185"/>
      <point x="106" y="118"/>
      <point x="143" y="71" type="curve"/>
      <point x="86" y="-30" type="line"/>
      <point x="147" y="-30" type="line"/>
      <point x="183" y="33" type="line"/>
      <point x="220" y="5"/>
      <point x="268" y="-10"/>
    </contour>
    <contour>
      <point x="154" y="264" type="curve" smooth="yes"/>
      <point x="154" y="417" type="line" smooth="yes"/>
      <point x="154" y="552"/>
      <point x="216" y="631"/>
      <point x="326" y="631" type="curve" smooth="yes"/>
      <point x="372" y="631"/>
      <point x="410" y="617"/>
      <point x="438" y="591" type="curve"/>
      <point x="180" y="136" type="line"/>
      <point x="163" y="170"/>
      <point x="154" y="213"/>
    </contour>
    <contour>
      <point x="498" y="417" type="curve" smooth="yes"/>
      <point x="498" y="264" type="line" smooth="yes"/>
      <point x="498" y="130"/>
      <point x="436" y="49"/>
      <point x="326" y="49" type="curve" smooth="yes"/>
      <point x="280" y="49"/>
      <point x="243" y="63"/>
      <point x="214" y="89" type="curve"/>
      <point x="472" y="545" type="line"/>
      <point x="489" y="511"/>
      <point x="498" y="468"/>
    </contour>
  </outline>
</glyph>
<glyph name="Thorn" format="1">
  <advance width="558"/>
  <unicode hex="00DE"/>
  <outline>
    <contour>
      <point x="318" y="135" type="line" smooth="yes"/>
      <point x="441" y="135"/>
      <point x="511" y="208"/>
      <point x="511" y="319" type="curve" smooth="yes"/>
      <point x="511" y="372" type="line" smooth="yes"/>
      <point x="511" y="483"/>
      <point x="441" y="555"/>
      <point x="318" y="555" type="curve" smooth="yes"/>
      <point x="180" y="555" type="line"/>
      <point x="180" y="680" type="line"/>
      <point x="115" y="680" type="line"/>
      <point x="115" y="0" type="line"/>
      <point x="180" y="0" type="line"/>
      <point x="180" y="135" type="line"/>
    </contour>
    <contour>
      <point x="318" y="496" type="line" smooth="yes"/>
      <point x="400" y="496"/>
      <point x="443" y="449"/>
      <point x="443" y="372" type="curve" smooth="yes"/>
      <point x="443" y="319" type="line" smooth="yes"/>
      <point x="443" y="241"/>
      <point x="400" y="194"/>
      <point x="318" y="194" type="curve" smooth="yes"/>
      <point x="180" y="194" type="line"/>
      <point x="180" y="496" type="line"/>
    </contour>
  </outline>
</glyph>
<glyph name="germandbls" format="1">
  <advance width="594"/>
  <unicode hex="00DF"/>
  <outline>
    <contour>
      <point x="562" y="130" type="curve" smooth="yes"/>
      <point x="562" y="183"/>
      <point x="540" y="233"/>
      <point x="473" y="278" type="curve" smooth="yes"/>
      <point x="416" y="316" type="line" smooth="yes"/>
      <point x="384" y="337"/>
      <point x="375" y="361"/>
      <point x="375" y="388" type="curve" smooth="yes"/>
      <point x="375" y="460"/>
      <point x="449" y="511"/>
      <point x="449" y="608" type="curve" smooth="yes"/>
      <point x="449" y="706"/>
      <point x="373" y="750"/>
      <point x="277" y="750" type="curve" smooth="yes"/>
      <point x="144" y="750"/>
      <point x="108" y="661"/>
      <point x="108" y="575" type="curve" smooth="yes"/>
      <point x="108" y="487" type="line"/>
      <point x="19" y="487" type="line"/>
      <point x="19" y="434" type="line"/>
      <point x="108" y="434" type="line"/>
      <point x="108" y="0" type="line"/>
      <point x="168" y="0" type="line"/>
      <point x="168" y="576" type="line" smooth="yes"/>
      <point x="168" y="659"/>
      <point x="202" y="697"/>
      <point x="279" y="697" type="curve" smooth="yes"/>
      <point x="342" y="697"/>
      <point x="389" y="664"/>
      <point x="389" y="608" type="curve" smooth="yes"/>
      <point x="389" y="525"/>
      <point x="315" y="471"/>
      <point x="315" y="382" type="curve" smooth="yes"/>
      <point x="315" y="333"/>
      <point x="335" y="298"/>
      <point x="386" y="263" type="curve" smooth="yes"/>
      <point x="442" y="225" type="line" smooth="yes"/>
      <point x="487" y="194"/>
      <point x="502" y="165"/>
      <point x="502" y="126" type="curve" smooth="yes"/>
      <point x="502" y="76"/>
      <point x="469" y="45"/>
      <point x="404" y="45" type="curve" smooth="yes"/>
      <point x="364" y="45"/>
      <point x="326" y="55"/>
      <point x="280" y="77" type="curve"/>
      <point x="262" y="25" type="line"/>
      <point x="312" y="2"/>
      <point x="359" y="-10"/>
      <point x="406" y="-10" type="curve" smooth="yes"/>
      <point x="517" y="-10"/>
      <point x="562" y="55"/>
    </contour>
  </outline>
</glyph>
<glyph name="ae" format="1">
  <advance width="757.0"/>
  <unicode hex="00E6"/>
  <outline>
    <contour>
      <point x="701" y="29" type="curve"/>
      <point x="681" y="78" type="line"/>
      <point x="631" y="55"/>
      <point x="575" y="45"/>
      <point x="535" y="45" type="curve" smooth="yes"/>
      <point x="436" y="45"/>
      <point x="395" y="104"/>
      <point x="395" y="214" type="curve" smooth="yes"/>
      <point x="395" y="226" type="line"/>
      <point x="691" y="226" type="line"/>
      <point x="699" y="261"/>
      <point x="703" y="292"/>
      <point x="703" y="320" type="curve" smooth="yes"/>
      <point x="703" y="439"/>
      <point x="627" y="497"/>
      <point x="528" y="497" type="curve" smooth="yes"/>
      <point x="457" y="497"/>
      <point x="409" y="470"/>
      <point x="379" y="422" type="curve"/>
      <point x="360" y="467"/>
      <point x="317" y="497"/>
      <point x="231" y="497" type="curve" smooth="yes"/>
      <point x="174" y="497"/>
      <point x="121" y="482"/>
      <point x="66" y="454" type="curve"/>
      <point x="87" y="405" type="line"/>
      <point x="137" y="429"/>
      <point x="183" y="442"/>
      <point x="231" y="442" type="curve" smooth="yes"/>
      <point x="301" y="442"/>
      <point x="334" y="414"/>
      <point x="334" y="328" type="curve" smooth="yes"/>
      <point x="334" y="256" type="line"/>
      <point x="288" y="264"/>
      <point x="237" y="269"/>
      <point x="201" y="269" type="curve" smooth="yes"/>
      <point x="83" y="269"/>
      <point x="45" y="208"/>
      <point x="45" y="131" type="curve" smooth="yes"/>
      <point x="45" y="54"/>
      <point x="85" y="-10"/>
      <point x="172" y="-10" type="curve" smooth="yes"/>
      <point x="221" y="-10"/>
      <point x="281" y="9"/>
      <point x="362" y="80" type="curve"/>
      <point x="394" y="22"/>
      <point x="451" y="-10"/>
      <point x="535" y="-10" type="curve" smooth="yes"/>
      <point x="583" y="-10"/>
      <point x="646" y="1"/>
    </contour>
    <contour>
      <point x="528" y="442" type="curve" smooth="yes"/>
      <point x="590" y="442"/>
      <point x="644" y="407"/>
      <point x="644" y="325" type="curve" smooth="yes"/>
      <point x="644" y="311"/>
      <point x="643" y="296"/>
      <point x="640" y="279" type="curve"/>
      <point x="395" y="279" type="line"/>
      <point x="395" y="380"/>
      <point x="439" y="442"/>
    </contour>
    <contour>
      <point x="108" y="131" type="curve" smooth="yes"/>
      <point x="108" y="189"/>
      <point x="136" y="216"/>
      <point x="202" y="216" type="curve" smooth="yes"/>
      <point x="234" y="216"/>
      <point x="287" y="211"/>
      <point x="334" y="203" type="curve"/>
      <point x="335" y="177"/>
      <point x="338" y="153"/>
      <point x="343" y="131" type="curve"/>
      <point x="270" y="61"/>
      <point x="215" y="43"/>
      <point x="179" y="43" type="curve" smooth="yes"/>
      <point x="133" y="43"/>
      <point x="108" y="78"/>
    </contour>
  </outline>
</glyph>
<glyph name="ccedilla" format="1">
  <advance width="451"/>
  <unicode hex="00E7"/>
  <outline>
    <contour>
      <point x="353" y="-138" type="curve" smooth="yes"/>
      <point x="353" y="-87"/>
      <point x="314" y="-58"/>
      <point x="255" y="-58" type="curve" smooth="yes"/>
      <point x="251" y="-58" type="line"/>
      <point x="260" y="-10" type="line"/>
      <point x="309" y="-10"/>
      <point x="366" y="4"/>
      <point x="415" y="29" type="curve"/>
      <point x="395" y="78" type="line"/>
      <point x="350" y="57"/>
      <point x="306" y="45"/>
      <point x="263" y="45" type="curve" smooth="yes"/>
      <point x="172" y="45"/>
      <point x="133" y="104"/>
      <point x="133" y="214" type="curve" smooth="yes"/>
      <point x="133" y="274" type="line" smooth="yes"/>
      <point x="133" y="383"/>
      <point x="172" y="442"/>
      <point x="263" y="442" type="curve" smooth="yes"/>
      <point x="304" y="442"/>
      <point x="346" y="430"/>
      <point x="386" y="411" type="curve"/>
      <point x="406" y="461" type="line"/>
      <point x="359" y="485"/>
      <point x="305" y="497"/>
      <point x="258" y="497" type="curve" smooth="yes"/>
      <point x="134" y="497"/>
      <point x="70" y="414"/>
      <point x="70" y="274" type="curve" smooth="yes"/>
      <point x="70" y="214" type="line" smooth="yes"/>
      <point x="70" y="91"/>
      <point x="119" y="12"/>
      <point x="213" y="-6" type="curve"/>
      <point x="202" y="-64" type="line"/>
      <point x="225" y="-106" type="line"/>
      <point x="232" y="-105"/>
      <point x="239" y="-104"/>
      <point x="245" y="-104" type="curve" smooth="yes"/>
      <point x="288" y="-104"/>
      <point x="299" y="-119"/>
      <point x="299" y="-138" type="curve" smooth="yes"/>
      <point x="299" y="-158"/>
      <point x="289" y="-174"/>
      <point x="246" y="-174" type="curve" smooth="yes"/>
      <point x="227" y="-174"/>
      <point x="204" y="-170"/>
      <point x="183" y="-162" type="curve"/>
      <point x="173" y="-208" type="line"/>
      <point x="197" y="-218"/>
      <point x="223" y="-223"/>
      <point x="248" y="-223" type="curve" smooth="yes"/>
      <point x="311" y="-223"/>
      <point x="353" y="-192"/>
    </contour>
  </outline>
</glyph>
<glyph name="eth" format="1">
  <advance width="540"/>
  <unicode hex="00F0"/>
  <outline>
    <contour>
      <point x="474" y="251" type="curve" smooth="yes"/>
      <point x="474" y="291" type="line" smooth="yes"/>
      <point x="474" y="408"/>
      <point x="433" y="519"/>
      <point x="339" y="619" type="curve"/>
      <point x="431" y="687" type="line"/>
      <point x="431" y="750" type="line"/>
      <point x="302" y="655" type="line"/>
      <point x="265" y="688"/>
      <point x="221" y="720"/>
      <point x="170" y="750" type="curve"/>
      <point x="145" y="704" type="line"/>
      <point x="188" y="678"/>
      <point x="225" y="650"/>
      <point x="257" y="622" type="curve"/>
      <point x="171" y="559" type="line"/>
      <point x="171" y="496" type="line"/>
      <point x="294" y="586" type="line"/>
      <point x="350" y="527"/>
      <point x="383" y="464"/>
      <point x="399" y="395" type="curve"/>
      <point x="358" y="427"/>
      <point x="313" y="447"/>
      <point x="255" y="447" type="curve" smooth="yes"/>
      <point x="135" y="447"/>
      <point x="63" y="366"/>
      <point x="63" y="239" type="curve" smooth="yes"/>
      <point x="63" y="199" type="line" smooth="yes"/>
      <point x="63" y="66"/>
      <point x="136" y="-10"/>
      <point x="265" y="-10" type="curve" smooth="yes"/>
      <point x="397" y="-10"/>
      <point x="474" y="77"/>
    </contour>
    <contour>
      <point x="126" y="199" type="curve" smooth="yes"/>
      <point x="126" y="239" type="line" smooth="yes"/>
      <point x="126" y="336"/>
      <point x="176" y="392"/>
      <point x="258" y="392" type="curve" smooth="yes"/>
      <point x="307" y="392"/>
      <point x="353" y="372"/>
      <point x="410" y="325" type="curve"/>
      <point x="411" y="314"/>
      <point x="411" y="303"/>
      <point x="411" y="291" type="curve" smooth="yes"/>
      <point x="411" y="251" type="line" smooth="yes"/>
      <point x="411" y="108"/>
      <point x="358" y="45"/>
      <point x="265" y="45" type="curve" smooth="yes"/>
      <point x="176" y="45"/>
      <point x="126" y="98"/>
    </contour>
  </outline>
</glyph>
<glyph name="divide" format="1">
  <advance width="588"/>
  <unicode hex="00F7"/>
  <outline>
    <contour>
      <point x="331" y="462" type="line"/>
      <point x="331" y="535" type="line"/>
      <point x="258" y="535" type="line"/>
      <point x="258" y="462" type="line"/>
    </contour>
    <contour>
      <point x="87" y="268" type="line"/>
      <point x="501" y="268" type="line"/>
      <point x="501" y="321" type="line"/>
      <point x="87" y="321" type="line"/>
    </contour>
    <contour>
      <point x="331" y="50" type="line"/>
      <point x="331" y="123" type="line"/>
      <point x="258" y="123" type="line"/>
      <point x="258" y="50" type="line"/>
    </contour>
  </outline>
</glyph>
<glyph name="oslash" format="1">
  <advance width="540"/>
  <unicode hex="00F8"/>
  <outline>
    <contour>
      <point x="270" y="-10" type="curve" smooth="yes"/>
      <point x="398" y="-10"/>
      <point x="472" y="72"/>
      <point x="472" y="214" type="curve" smooth="yes"/>
      <point x="472" y="274" type="line" smooth="yes"/>
      <point x="472" y="341"/>
      <point x="454" y="397"/>
      <point x="420" y="435" type="curve"/>
      <point x="472" y="517" type="line"/>
      <point x="414" y="517" type="line"/>
      <point x="383" y="468" type="line"/>
      <point x="352" y="487"/>
      <point x="314" y="497"/>
      <point x="270" y="497" type="curve" smooth="yes"/>
      <point x="140" y="497"/>
      <point x="68" y="410"/>
      <point x="68" y="274" type="curve" smooth="yes"/>
      <point x="68" y="214" type="line" smooth="yes"/>
      <point x="68" y="144"/>
      <point x="86" y="89"/>
      <point x="119" y="51" type="curve"/>
      <point x="68" y="-30" type="line"/>
      <point x="126" y="-30" type="line"/>
      <point x="157" y="19" type="line"/>
      <point x="187" y="0"/>
      <point x="225" y="-10"/>
    </contour>
    <contour>
      <point x="131" y="214" type="curve" smooth="yes"/>
      <point x="131" y="274" type="line" smooth="yes"/>
      <point x="131" y="380"/>
      <point x="181" y="442"/>
      <point x="270" y="442" type="curve" smooth="yes"/>
      <point x="303" y="442"/>
      <point x="330" y="434"/>
      <point x="351" y="418" type="curve"/>
      <point x="154" y="107" type="line"/>
      <point x="139" y="134"/>
      <point x="131" y="170"/>
    </contour>
    <contour>
      <point x="409" y="274" type="curve" smooth="yes"/>
      <point x="409" y="214" type="line" smooth="yes"/>
      <point x="409" y="103"/>
      <point x="359" y="45"/>
      <point x="270" y="45" type="curve" smooth="yes"/>
      <point x="237" y="45"/>
      <point x="210" y="53"/>
      <point x="188" y="68" type="curve"/>
      <point x="385" y="380" type="line"/>
      <point x="401" y="353"/>
      <point x="409" y="317"/>
    </contour>
  </outline>
</glyph>
<glyph name="Aogonek" format="1">
  <advance width="562.0"/>
  <unicode hex="0104"/>
  <outline>
    <contour>
      <point x="540" y="-206" type="curve"/>
      <point x="526" y="-157" type="line"/>
      <point x="506" y="-165"/>
      <point x="486" y="-170"/>
      <point x="469" y="-170" type="curve" smooth="yes"/>
      <point x="439" y="-170"/>
      <point x="427" y="-155"/>
      <point x="427" y="-134" type="curve" smooth="yes"/>
      <point x="427" y="-99"/>
      <point x="449" y="-69"/>
      <point x="540" y="0" type="curve"/>
      <point x="313" y="680" type="line"/>
      <point x="248" y="680" type="line"/>
      <point x="22" y="0" type="line"/>
      <point x="84" y="0" type="line"/>
      <point x="141" y="175" type="line"/>
      <point x="416" y="175" type="line"/>
      <point x="472" y="7" type="line"/>
      <point x="391" y="-54"/>
      <point x="369" y="-97"/>
      <point x="369" y="-140" type="curve" smooth="yes"/>
      <point x="369" y="-190"/>
      <point x="402" y="-223"/>
      <point x="463" y="-223" type="curve" smooth="yes"/>
      <point x="489" y="-223"/>
      <point x="514" y="-217"/>
    </contour>
    <contour>
      <point x="203" y="363" type="line"/>
      <point x="278" y="595" type="line"/>
      <point x="353" y="363" type="line"/>
      <point x="396" y="233" type="line"/>
      <point x="160" y="233" type="line"/>
    </contour>
  </outline>
</glyph>
<glyph name="dcroat" format="1">
  <advance width="551"/>
  <unicode hex="0111"/>
  <outline>
    <contour>
      <point x="399" y="0" type="line"/>
      <point x="456" y="0" type="line"/>
      <point x="456" y="584" type="line"/>
      <point x="546" y="584" type="line"/>
      <point x="546" y="637" type="line"/>
      <point x="456" y="637" type="line"/>
      <point x="456" y="740" type="line"/>
      <point x="396" y="740" type="line"/>
      <point x="396" y="637" type="line"/>
      <point x="238" y="637" type="line"/>
      <point x="238" y="584" type="line"/>
      <point x="396" y="584" type="line"/>
      <point x="396" y="472" type="line"/>
      <point x="355" y="488"/>
      <point x="313" y="497"/>
      <point x="271" y="497" type="curve" smooth="yes"/>
      <point x="140" y="497"/>
      <point x="71" y="410"/>
      <point x="71" y="274" type="curve" smooth="yes"/>
      <point x="71" y="214" type="line" smooth="yes"/>
      <point x="71" y="72"/>
      <point x="127" y="-10"/>
      <point x="229" y="-10" type="curve" smooth="yes"/>
      <point x="286" y="-10"/>
      <point x="339" y="14"/>
      <point x="399" y="69" type="curve"/>
    </contour>
    <contour>
      <point x="134" y="214" type="curve" smooth="yes"/>
      <point x="134" y="274" type="line" smooth="yes"/>
      <point x="134" y="378"/>
      <point x="174" y="442"/>
      <point x="274" y="442" type="curve" smooth="yes"/>
      <point x="315" y="442"/>
      <point x="354" y="433"/>
      <point x="396" y="414" type="curve"/>
      <point x="396" y="128" type="line"/>
      <point x="324" y="62"/>
      <point x="284" y="47"/>
      <point x="241" y="47" type="curve" smooth="yes"/>
      <point x="168" y="47"/>
      <point x="134" y="99"/>
    </contour>
  </outline>
</glyph>
<glyph name="Eogonek" format="1">
  <advance width="528"/>
  <unicode hex="0118"/>
  <outline>
    <contour>
      <point x="485" y="-206" type="curve"/>
      <point x="471" y="-157" type="line"/>
      <point x="451" y="-165"/>
      <point x="431" y="-170"/>
      <point x="414" y="-170" type="curve" smooth="yes"/>
      <point x="384" y="-170"/>
      <point x="372" y="-155"/>
      <point x="372" y="-134" type="curve" smooth="yes"/>
      <point x="372" y="-99"/>
      <point x="394" y="-69"/>
      <point x="485" y="0" type="curve"/>
      <point x="485" y="59" type="line"/>
      <point x="180" y="59" type="line"/>
      <point x="180" y="315" type="line"/>
      <point x="445" y="315" type="line"/>
      <point x="445" y="374" type="line"/>
      <point x="180" y="374" type="line"/>
      <point x="180" y="621" type="line"/>
      <point x="475" y="621" type="line"/>
      <point x="475" y="680" type="line"/>
      <point x="115" y="680" type="line"/>
      <point x="115" y="0" type="line"/>
      <point x="412" y="0" type="line"/>
      <point x="336" y="-59"/>
      <point x="314" y="-99"/>
      <point x="314" y="-140" type="curve" smooth="yes"/>
      <point x="314" y="-190"/>
      <point x="347" y="-223"/>
      <point x="408" y="-223" type="curve" smooth="yes"/>
      <point x="434" y="-223"/>
      <point x="459" y="-217"/>
    </contour>
  </outline>
</glyph>
<glyph name="eogonek" format="1">
  <advance width="493"/>
  <unicode hex="0119"/>
  <outline>
    <contour>
      <point x="437" y="-206" type="curve"/>
      <point x="423" y="-157" type="line"/>
      <point x="403" y="-165"/>
      <point x="383" y="-170"/>
      <point x="366" y="-170" type="curve" smooth="yes"/>
      <point x="336" y="-170"/>
      <point x="324" y="-155"/>
      <point x="324" y="-129" type="curve" smooth="yes"/>
      <point x="324" y="-98"/>
      <point x="339" y="-60"/>
      <point x="437" y="29" type="curve"/>
      <point x="417" y="78" type="line"/>
      <point x="367" y="55"/>
      <point x="311" y="45"/>
      <point x="271" y="45" type="curve" smooth="yes"/>
      <point x="172" y="45"/>
      <point x="131" y="104"/>
      <point x="131" y="214" type="curve" smooth="yes"/>
      <point x="131" y="226" type="line"/>
      <point x="427" y="226" type="line"/>
      <point x="435" y="261"/>
      <point x="439" y="292"/>
      <point x="439" y="320" type="curve" smooth="yes"/>
      <point x="439" y="439"/>
      <point x="363" y="497"/>
      <point x="264" y="497" type="curve" smooth="yes"/>
      <point x="138" y="497"/>
      <point x="70" y="409"/>
      <point x="70" y="274" type="curve" smooth="yes"/>
      <point x="70" y="214" type="line" smooth="yes"/>
      <point x="70" y="73"/>
      <point x="135" y="-10"/>
      <point x="271" y="-10" type="curve" smooth="yes"/>
      <point x="291" y="-10"/>
      <point x="313" y="-8"/>
      <point x="336" y="-1" type="curve"/>
      <point x="279" y="-60"/>
      <point x="266" y="-101"/>
      <point x="266" y="-135" type="curve" smooth="yes"/>
      <point x="266" y="-190"/>
      <point x="299" y="-223"/>
      <point x="360" y="-223" type="curve" smooth="yes"/>
      <point x="386" y="-223"/>
      <point x="411" y="-217"/>
    </contour>
    <contour>
      <point x="264" y="442" type="curve" smooth="yes"/>
      <point x="326" y="442"/>
      <point x="380" y="407"/>
      <point x="380" y="325" type="curve" smooth="yes"/>
      <point x="380" y="311"/>
      <point x="379" y="296"/>
      <point x="376" y="279" type="curve"/>
      <point x="131" y="279" type="line"/>
      <point x="131" y="380"/>
      <point x="175" y="442"/>
    </contour>
  </outline>
</glyph>
<glyph name="Hbar" format="1">
  <advance width="705"/>
  <unicode hex="0126"/>
  <outline>
    <contour>
      <point x="190" y="315" type="line"/>
      <point x="515" y="315" type="line"/>
      <point x="515" y="0" type="line"/>
      <point x="580" y="0" type="line"/>
      <point x="580" y="507" type="line"/>
      <point x="670" y="507" type="line"/>
      <point x="670" y="560" type="line"/>
      <point x="580" y="560" type="line"/>
      <point x="580" y="680" type="line"/>
      <point x="515" y="680" type="line"/>
      <point x="515" y="560" type="line"/>
      <point x="190" y="560" type="line"/>
      <point x="190" y="680" type="line"/>
      <point x="125" y="680" type="line"/>
      <point x="125" y="560" type="line"/>
      <point x="35" y="560" type="line"/>
      <point x="35" y="507" type="line"/>
      <point x="125" y="507" type="line"/>
      <point x="125" y="0" type="line"/>
      <point x="190" y="0" type="line"/>
    </contour>
    <contour>
      <point x="190" y="374" type="line"/>
      <point x="190" y="507" type="line"/>
      <point x="515" y="507" type="line"/>
      <point x="515" y="374" type="line"/>
    </contour>
  </outline>
</glyph>
<glyph name="hbar" format="1">
  <advance width="563"/>
  <unicode hex="0127"/>
  <outline>
    <contour>
      <point x="155" y="361" type="line"/>
      <point x="235" y="426"/>
      <point x="285" y="440"/>
      <point x="326" y="440" type="curve" smooth="yes"/>
      <point x="385" y="440"/>
      <point x="413" y="405"/>
      <point x="413" y="327" type="curve" smooth="yes"/>
      <point x="413" y="0" type="line"/>
      <point x="473" y="0" type="line"/>
      <point x="473" y="338" type="line" smooth="yes"/>
      <point x="473" y="440"/>
      <point x="425" y="497"/>
      <point x="336" y="497" type="curve" smooth="yes"/>
      <point x="285" y="497"/>
      <point x="230" y="482"/>
      <point x="155" y="420" type="curve"/>
      <point x="155" y="587" type="line"/>
      <point x="313" y="587" type="line"/>
      <point x="313" y="637" type="line"/>
      <point x="155" y="637" type="line"/>
      <point x="155" y="740" type="line"/>
      <point x="95" y="740" type="line"/>
      <point x="95" y="637" type="line"/>
      <point x="5" y="637" type="line"/>
      <point x="5" y="587" type="line"/>
      <point x="95" y="587" type="line"/>
      <point x="95" y="0" type="line"/>
      <point x="155" y="0" type="line"/>
    </contour>
  </outline>
</glyph>
<glyph name="Iogonek" format="1">
  <advance width="295"/>
  <unicode hex="012E"/>
  <outline>
    <contour>
      <point x="210" y="-206" type="curve"/>
      <point x="196" y="-157" type="line"/>
      <point x="176" y="-165"/>
      <point x="156" y="-170"/>
      <point x="139" y="-170" type="curve" smooth="yes"/>
      <point x="109" y="-170"/>
      <point x="97" y="-155"/>
      <point x="97" y="-134" type="curve" smooth="yes"/>
      <point x="97" y="-99"/>
      <point x="125" y="-62"/>
      <point x="180" y="0" type="curve"/>
      <point x="180" y="680" type="line"/>
      <point x="115" y="680" type="line"/>
      <point x="115" y="0" type="line"/>
      <point x="62" y="-54"/>
      <point x="39" y="-98"/>
      <point x="39" y="-140" type="curve" smooth="yes"/>
      <point x="39" y="-190"/>
      <point x="72" y="-223"/>
      <point x="133" y="-223" type="curve" smooth="yes"/>
      <point x="159" y="-223"/>
      <point x="184" y="-217"/>
    </contour>
  </outline>
</glyph>
<glyph name="iogonek" format="1">
  <advance width="250"/>
  <unicode hex="012F"/>
  <outline>
    <contour>
      <point x="158" y="629" type="line"/>
      <point x="158" y="696" type="line"/>
      <point x="92" y="696" type="line"/>
      <point x="92" y="629" type="line"/>
    </contour>
    <contour>
      <point x="185" y="-206" type="curve"/>
      <point x="171" y="-157" type="line"/>
      <point x="151" y="-165"/>
      <point x="131" y="-170"/>
      <point x="114" y="-170" type="curve" smooth="yes"/>
      <point x="84" y="-170"/>
      <point x="72" y="-155"/>
      <point x="72" y="-134" type="curve" smooth="yes"/>
      <point x="72" y="-99"/>
      <point x="100" y="-62"/>
      <point x="155" y="0" type="curve"/>
      <point x="155" y="487" type="line"/>
      <point x="95" y="487" type="line"/>
      <point x="95" y="4" type="line"/>
      <point x="40" y="-52"/>
      <point x="14" y="-97"/>
      <point x="14" y="-140" type="curve" smooth="yes"/>
      <point x="14" y="-190"/>
      <point x="47" y="-223"/>
      <point x="108" y="-223" type="curve" smooth="yes"/>
      <point x="134" y="-223"/>
      <point x="159" y="-217"/>
    </contour>
  </outline>
</glyph>
<glyph name="dotlessi" format="1">
  <advance width="250"/>
  <unicode hex="0131"/>
  <outline>
    <contour>
      <point x="155" y="0" type="line"/>
      <point x="155" y="487" type="line"/>
      <point x="95" y="487" type="line"/>
      <point x="95" y="0" type="line"/>
    </contour>
  </outline>
</glyph>
<glyph name="Lslash" format="1">
  <advance width="516"/>
  <unicode hex="0141"/>
  <outline>
    <contour>
      <point x="484" y="59" type="line"/>
      <point x="190" y="59" type="line"/>
      <point x="190" y="318" type="line"/>
      <point x="337" y="389" type="line"/>
      <point x="337" y="452" type="line"/>
      <point x="190" y="381" type="line"/>
      <point x="190" y="680" type="line"/>
      <point x="125" y="680" type="line"/>
      <point x="125" y="350" type="line"/>
      <point x="35" y="306" type="line"/>
      <point x="35" y="243" type="line"/>
      <point x="125" y="287" type="line"/>
      <point x="125" y="0" type="line"/>
      <point x="484" y="0" type="line"/>
    </contour>
  </outline>
</glyph>
<glyph name="lslash" format="1">
  <advance width="285"/>
  <unicode hex="0142"/>
  <outline>
    <contour>
      <point x="233" y="50" type="line"/>
      <point x="217" y="50" type="line" smooth="yes"/>
      <point x="179" y="50"/>
      <point x="170" y="66"/>
      <point x="170" y="112" type="curve" smooth="yes"/>
      <point x="170" y="354" type="line"/>
      <point x="259" y="409" type="line"/>
      <point x="259" y="472" type="line"/>
      <point x="170" y="417" type="line"/>
      <point x="170" y="740" type="line"/>
      <point x="110" y="740" type="line"/>
      <point x="110" y="381" type="line"/>
      <point x="21" y="326" type="line"/>
      <point x="21" y="263" type="line"/>
      <point x="110" y="318" type="line"/>
      <point x="110" y="105" type="line" smooth="yes"/>
      <point x="110" y="30"/>
      <point x="142" y="-5"/>
      <point x="214" y="-5" type="curve" smooth="yes"/>
      <point x="233" y="-5" type="line"/>
    </contour>
  </outline>
</glyph>
<glyph name="Eng" format="1">
  <advance width="695"/>
  <unicode hex="014A"/>
  <outline>
    <contour>
      <point x="515" y="680" type="line"/>
      <point x="515" y="388" type="line"/>
      <point x="524" y="106" type="line"/>
      <point x="426" y="313"/>
      <point x="320" y="489"/>
      <point x="193" y="680" type="curve"/>
      <point x="115" y="680" type="line"/>
      <point x="115" y="0" type="line"/>
      <point x="180" y="0" type="line"/>
      <point x="180" y="291" type="line"/>
      <point x="176" y="595" type="line"/>
      <point x="302" y="400"/>
      <point x="415" y="199"/>
      <point x="515" y="-13" type="curve"/>
      <point x="515" y="-121"/>
      <point x="466" y="-161"/>
      <point x="357" y="-161" type="curve"/>
      <point x="357" y="-223" type="line"/>
      <point x="530" y="-223"/>
      <point x="580" y="-131"/>
      <point x="580" y="-6" type="curve" smooth="yes"/>
      <point x="580" y="680" type="line"/>
    </contour>
  </outline>
</glyph>
<glyph name="eng" format="1">
  <advance width="563"/>
  <unicode hex="014B"/>
  <outline>
    <contour>
      <point x="336" y="497" type="curve" smooth="yes"/>
      <point x="285" y="497"/>
      <point x="229" y="481"/>
      <point x="152" y="417" type="curve"/>
      <point x="152" y="487" type="line"/>
      <point x="95" y="487" type="line"/>
      <point x="95" y="0" type="line"/>
      <point x="155" y="0" type="line"/>
      <point x="155" y="361" type="line"/>
      <point x="235" y="426"/>
      <point x="285" y="440"/>
      <point x="326" y="440" type="curve" smooth="yes"/>
      <point x="385" y="440"/>
      <point x="413" y="405"/>
      <point x="413" y="327" type="curve" smooth="yes"/>
      <point x="413" y="-37" type="line" smooth="yes"/>
      <point x="413" y="-141"/>
      <point x="374" y="-166"/>
      <point x="300" y="-166" type="curve"/>
      <point x="300" y="-223" type="line"/>
      <point x="430" y="-223"/>
      <point x="473" y="-153"/>
      <point x="473" y="-37" type="curve" smooth="yes"/>
      <point x="473" y="338" type="line" smooth="yes"/>
      <point x="473" y="440"/>
      <point x="425" y="497"/>
    </contour>
  </outline>
</glyph>
<glyph name="OE" format="1">
  <advance width="870"/>
  <unicode hex="0152"/>
  <outline>
    <contour>
      <point x="86" y="417" type="curve" smooth="yes"/>
      <point x="86" y="264" type="line" smooth="yes"/>
      <point x="86" y="104"/>
      <point x="172" y="0"/>
      <point x="324" y="0" type="curve" smooth="yes"/>
      <point x="827" y="0" type="line"/>
      <point x="827" y="59" type="line"/>
      <point x="522" y="59" type="line"/>
      <point x="522" y="315" type="line"/>
      <point x="787" y="315" type="line"/>
      <point x="787" y="374" type="line"/>
      <point x="522" y="374" type="line"/>
      <point x="522" y="621" type="line"/>
      <point x="817" y="621" type="line"/>
      <point x="817" y="680" type="line"/>
      <point x="324" y="680" type="line" smooth="yes"/>
      <point x="172" y="680"/>
      <point x="86" y="576"/>
    </contour>
    <contour>
      <point x="324" y="59" type="line" smooth="yes"/>
      <point x="213" y="59"/>
      <point x="154" y="136"/>
      <point x="154" y="264" type="curve" smooth="yes"/>
      <point x="154" y="417" type="line" smooth="yes"/>
      <point x="154" y="545"/>
      <point x="213" y="621"/>
      <point x="324" y="621" type="curve" smooth="yes"/>
      <point x="457" y="621" type="line"/>
      <point x="457" y="59" type="line"/>
    </contour>
  </outline>
</glyph>
<glyph name="oe" format="1">
  <advance width="832"/>
  <unicode hex="0153"/>
  <outline>
    <contour>
      <point x="776" y="29" type="curve"/>
      <point x="756" y="78" type="line"/>
      <point x="706" y="55"/>
      <point x="650" y="45"/>
      <point x="610" y="45" type="curve" smooth="yes"/>
      <point x="511" y="45"/>
      <point x="470" y="104"/>
      <point x="470" y="214" type="curve" smooth="yes"/>
      <point x="470" y="226" type="line"/>
      <point x="766" y="226" type="line"/>
      <point x="774" y="261"/>
      <point x="778" y="292"/>
      <point x="778" y="320" type="curve" smooth="yes"/>
      <point x="778" y="439"/>
      <point x="702" y="497"/>
      <point x="603" y="497" type="curve" smooth="yes"/>
      <point x="524" y="497"/>
      <point x="469" y="459"/>
      <point x="440" y="395" type="curve"/>
      <point x="410" y="460"/>
      <point x="351" y="497"/>
      <point x="270" y="497" type="curve" smooth="yes"/>
      <point x="140" y="497"/>
      <point x="68" y="410"/>
      <point x="68" y="274" type="curve" smooth="yes"/>
      <point x="68" y="214" type="line" smooth="yes"/>
      <point x="68" y="72"/>
      <point x="141" y="-10"/>
      <point x="270" y="-10" type="curve" smooth="yes"/>
      <point x="351" y="-10"/>
      <point x="409" y="25"/>
      <point x="440" y="90" type="curve"/>
      <point x="468" y="26"/>
      <point x="524" y="-10"/>
      <point x="610" y="-10" type="curve" smooth="yes"/>
      <point x="658" y="-10"/>
      <point x="721" y="1"/>
    </contour>
    <contour>
      <point x="409" y="274" type="curve" smooth="yes"/>
      <point x="409" y="214" type="line" smooth="yes"/>
      <point x="409" y="103"/>
      <point x="359" y="45"/>
      <point x="270" y="45" type="curve" smooth="yes"/>
      <point x="181" y="45"/>
      <point x="131" y="103"/>
      <point x="131" y="214" type="curve" smooth="yes"/>
      <point x="131" y="274" type="line" smooth="yes"/>
      <point x="131" y="380"/>
      <point x="181" y="442"/>
      <point x="270" y="442" type="curve" smooth="yes"/>
      <point x="359" y="442"/>
      <point x="409" y="380"/>
    </contour>
    <contour>
      <point x="603" y="442" type="curve" smooth="yes"/>
      <point x="665" y="442"/>
      <point x="719" y="407"/>
      <point x="719" y="325" type="curve" smooth="yes"/>
      <point x="719" y="311"/>
      <point x="718" y="296"/>
      <point x="715" y="279" type="curve"/>
      <point x="470" y="279" type="line"/>
      <point x="470" y="380"/>
      <point x="514" y="442"/>
    </contour>
  </outline>
</glyph>
<glyph name="Scedilla" format="1">
  <advance width="499"/>
  <unicode hex="015E"/>
  <outline>
    <contour>
      <point x="343" y="-138" type="curve" smooth="yes"/>
      <point x="343" y="-87"/>
      <point x="304" y="-58"/>
      <point x="245" y="-58" type="curve" smooth="yes"/>
      <point x="241" y="-58" type="line"/>
      <point x="250" y="-10" type="line"/>
      <point x="393" y="-10"/>
      <point x="454" y="67"/>
      <point x="454" y="178" type="curve" smooth="yes"/>
      <point x="454" y="275"/>
      <point x="402" y="342"/>
      <point x="300" y="370" type="curve" smooth="yes"/>
      <point x="220" y="392" type="line" smooth="yes"/>
      <point x="138" y="415"/>
      <point x="113" y="457"/>
      <point x="113" y="515" type="curve" smooth="yes"/>
      <point x="113" y="597"/>
      <point x="161" y="633"/>
      <point x="247" y="633" type="curve" smooth="yes"/>
      <point x="295" y="633"/>
      <point x="349" y="620"/>
      <point x="413" y="590" type="curve"/>
      <point x="435" y="646" type="line"/>
      <point x="371" y="676"/>
      <point x="304" y="690"/>
      <point x="247" y="690" type="curve" smooth="yes"/>
      <point x="97" y="690"/>
      <point x="47" y="606"/>
      <point x="47" y="510" type="curve" smooth="yes"/>
      <point x="47" y="423"/>
      <point x="91" y="360"/>
      <point x="196" y="331" type="curve" smooth="yes"/>
      <point x="276" y="309" type="line" smooth="yes"/>
      <point x="354" y="288"/>
      <point x="388" y="236"/>
      <point x="388" y="170" type="curve" smooth="yes"/>
      <point x="388" y="90"/>
      <point x="336" y="47"/>
      <point x="247" y="47" type="curve" smooth="yes"/>
      <point x="185" y="47"/>
      <point x="130" y="59"/>
      <point x="62" y="91" type="curve"/>
      <point x="41" y="36" type="line"/>
      <point x="95" y="11"/>
      <point x="151" y="-3"/>
      <point x="203" y="-8" type="curve"/>
      <point x="192" y="-64" type="line"/>
      <point x="215" y="-106" type="line"/>
      <point x="222" y="-105"/>
      <point x="229" y="-104"/>
      <point x="235" y="-104" type="curve" smooth="yes"/>
      <point x="278" y="-104"/>
      <point x="289" y="-119"/>
      <point x="289" y="-138" type="curve" smooth="yes"/>
      <point x="289" y="-158"/>
      <point x="279" y="-174"/>
      <point x="236" y="-174" type="curve" smooth="yes"/>
      <point x="217" y="-174"/>
      <point x="194" y="-170"/>
      <point x="173" y="-162" type="curve"/>
      <point x="163" y="-208" type="line"/>
      <point x="187" y="-218"/>
      <point x="213" y="-223"/>
      <point x="238" y="-223" type="curve" smooth="yes"/>
      <point x="301" y="-223"/>
      <point x="343" y="-192"/>
    </contour>
  </outline>
</glyph>
<glyph name="scedilla" format="1">
  <advance width="415"/>
  <unicode hex="015F"/>
  <outline>
    <contour>
      <point x="301" y="-138" type="curve" smooth="yes"/>
      <point x="301" y="-87"/>
      <point x="262" y="-58"/>
      <point x="203" y="-58" type="curve" smooth="yes"/>
      <point x="199" y="-58" type="line"/>
      <point x="208" y="-10" type="line"/>
      <point x="330" y="-10"/>
      <point x="370" y="52"/>
      <point x="370" y="128" type="curve" smooth="yes"/>
      <point x="370" y="203"/>
      <point x="331" y="247"/>
      <point x="250" y="266" type="curve" smooth="yes"/>
      <point x="195" y="279" type="line" smooth="yes"/>
      <point x="128" y="295"/>
      <point x="108" y="327"/>
      <point x="108" y="366" type="curve" smooth="yes"/>
      <point x="108" y="417"/>
      <point x="143" y="442"/>
      <point x="206" y="442" type="curve" smooth="yes"/>
      <point x="247" y="442"/>
      <point x="291" y="431"/>
      <point x="336" y="411" type="curve"/>
      <point x="356" y="462" type="line"/>
      <point x="306" y="486"/>
      <point x="255" y="497"/>
      <point x="206" y="497" type="curve" smooth="yes"/>
      <point x="91" y="497"/>
      <point x="49" y="431"/>
      <point x="49" y="362" type="curve" smooth="yes"/>
      <point x="49" y="294"/>
      <point x="89" y="244"/>
      <point x="165" y="226" type="curve" smooth="yes"/>
      <point x="219" y="213" type="line" smooth="yes"/>
      <point x="290" y="196"/>
      <point x="311" y="169"/>
      <point x="311" y="125" type="curve" smooth="yes"/>
      <point x="311" y="73"/>
      <point x="282" y="45"/>
      <point x="201" y="45" type="curve" smooth="yes"/>
      <point x="149" y="45"/>
      <point x="108" y="56"/>
      <point x="55" y="78" type="curve"/>
      <point x="39" y="27" type="line"/>
      <point x="80" y="8"/>
      <point x="120" y="-3"/>
      <point x="161" y="-7" type="curve"/>
      <point x="150" y="-64" type="line"/>
      <point x="173" y="-106" type="line"/>
      <point x="180" y="-105"/>
      <point x="187" y="-104"/>
      <point x="193" y="-104" type="curve" smooth="yes"/>
      <point x="236" y="-104"/>
      <point x="247" y="-119"/>
      <point x="247" y="-138" type="curve" smooth="yes"/>
      <point x="247" y="-158"/>
      <point x="237" y="-174"/>
      <point x="194" y="-174" type="curve" smooth="yes"/>
      <point x="175" y="-174"/>
      <point x="152" y="-170"/>
      <point x="131" y="-162" type="curve"/>
      <point x="121" y="-208" type="line"/>
      <point x="145" y="-218"/>
      <point x="171" y="-223"/>
      <point x="196" y="-223" type="curve" smooth="yes"/>
      <point x="259" y="-223"/>
      <point x="301" y="-192"/>
    </contour>
  </outline>
</glyph>
<glyph name="Tbar" format="1">
  <advance width="499"/>
  <unicode hex="0166"/>
  <outline>
    <contour>
      <point x="423" y="312" type="line"/>
      <point x="423" y="365" type="line"/>
      <point x="282" y="365" type="line"/>
      <point x="282" y="621" type="line"/>
      <point x="486" y="621" type="line"/>
      <point x="486" y="680" type="line"/>
      <point x="13" y="680" type="line"/>
      <point x="13" y="621" type="line"/>
      <point x="217" y="621" type="line"/>
      <point x="217" y="365" type="line"/>
      <point x="76" y="365" type="line"/>
      <point x="76" y="312" type="line"/>
      <point x="217" y="312" type="line"/>
      <point x="217" y="0" type="line"/>
      <point x="282" y="0" type="line"/>
      <point x="282" y="312" type="line"/>
    </contour>
  </outline>
</glyph>
<glyph name="tbar" format="1">
  <advance width="386"/>
  <unicode hex="0167"/>
  <outline>
    <contour>
      <point x="361" y="19" type="curve"/>
      <point x="340" y="67" type="line"/>
      <point x="308" y="50"/>
      <point x="283" y="43"/>
      <point x="257" y="43" type="curve" smooth="yes"/>
      <point x="203" y="43"/>
      <point x="182" y="67"/>
      <point x="182" y="142" type="curve" smooth="yes"/>
      <point x="182" y="236" type="line"/>
      <point x="320" y="236" type="line"/>
      <point x="320" y="286" type="line"/>
      <point x="182" y="286" type="line"/>
      <point x="182" y="434" type="line"/>
      <point x="347" y="434" type="line"/>
      <point x="347" y="487" type="line"/>
      <point x="182" y="487" type="line"/>
      <point x="182" y="629" type="line"/>
      <point x="122" y="629" type="line"/>
      <point x="122" y="487" type="line"/>
      <point x="33" y="487" type="line"/>
      <point x="33" y="434" type="line"/>
      <point x="122" y="434" type="line"/>
      <point x="122" y="286" type="line"/>
      <point x="33" y="286" type="line"/>
      <point x="33" y="236" type="line"/>
      <point x="122" y="236" type="line"/>
      <point x="122" y="137" type="line" smooth="yes"/>
      <point x="122" y="60"/>
      <point x="150" y="-10"/>
      <point x="250" y="-10" type="curve" smooth="yes"/>
      <point x="287" y="-10"/>
      <point x="325" y="0"/>
    </contour>
  </outline>
</glyph>
<glyph name="Uogonek" format="1">
  <advance width="650"/>
  <unicode hex="0172"/>
  <outline>
    <contour>
      <point x="463" y="-206" type="curve"/>
      <point x="449" y="-157" type="line"/>
      <point x="429" y="-165"/>
      <point x="409" y="-170"/>
      <point x="392" y="-170" type="curve" smooth="yes"/>
      <point x="362" y="-170"/>
      <point x="350" y="-155"/>
      <point x="350" y="-134" type="curve" smooth="yes"/>
      <point x="350" y="-101"/>
      <point x="378" y="-56"/>
      <point x="478" y="42" type="curve" smooth="yes"/>
      <point x="526" y="89"/>
      <point x="548" y="154"/>
      <point x="548" y="244" type="curve" smooth="yes"/>
      <point x="548" y="680" type="line"/>
      <point x="480" y="680" type="line"/>
      <point x="480" y="244" type="line" smooth="yes"/>
      <point x="480" y="122"/>
      <point x="433" y="49"/>
      <point x="325" y="49" type="curve" smooth="yes"/>
      <point x="218" y="49"/>
      <point x="170" y="122"/>
      <point x="170" y="244" type="curve" smooth="yes"/>
      <point x="170" y="680" type="line"/>
      <point x="102" y="680" type="line"/>
      <point x="102" y="244" type="line" smooth="yes"/>
      <point x="102" y="83"/>
      <point x="176" y="-10"/>
      <point x="325" y="-10" type="curve" smooth="yes"/>
      <point x="338" y="-10"/>
      <point x="350" y="-9"/>
      <point x="361" y="-8" type="curve"/>
      <point x="306" y="-68"/>
      <point x="292" y="-107"/>
      <point x="292" y="-140" type="curve" smooth="yes"/>
      <point x="292" y="-190"/>
      <point x="325" y="-223"/>
      <point x="386" y="-223" type="curve" smooth="yes"/>
      <point x="412" y="-223"/>
      <point x="437" y="-217"/>
    </contour>
  </outline>
</glyph>
<glyph name="uogonek" format="1">
  <advance width="553"/>
  <unicode hex="0173"/>
  <outline>
    <contour>
      <point x="458" y="-206" type="curve"/>
      <point x="444" y="-157" type="line"/>
      <point x="424" y="-165"/>
      <point x="404" y="-170"/>
      <point x="387" y="-170" type="curve" smooth="yes"/>
      <point x="357" y="-170"/>
      <point x="345" y="-155"/>
      <point x="345" y="-134" type="curve" smooth="yes"/>
      <point x="345" y="-99"/>
      <point x="367" y="-69"/>
      <point x="458" y="0" type="curve"/>
      <point x="458" y="487" type="line"/>
      <point x="398" y="487" type="line"/>
      <point x="398" y="126" type="line"/>
      <point x="319" y="62"/>
      <point x="272" y="47"/>
      <point x="232" y="47" type="curve" smooth="yes"/>
      <point x="176" y="47"/>
      <point x="150" y="82"/>
      <point x="150" y="160" type="curve" smooth="yes"/>
      <point x="150" y="487" type="line"/>
      <point x="90" y="487" type="line"/>
      <point x="90" y="149" type="line" smooth="yes"/>
      <point x="90" y="47"/>
      <point x="136" y="-10"/>
      <point x="222" y="-10" type="curve" smooth="yes"/>
      <point x="273" y="-10"/>
      <point x="326" y="7"/>
      <point x="401" y="70" type="curve"/>
      <point x="401" y="16" type="line"/>
      <point x="311" y="-50"/>
      <point x="287" y="-95"/>
      <point x="287" y="-140" type="curve" smooth="yes"/>
      <point x="287" y="-190"/>
      <point x="320" y="-223"/>
      <point x="381" y="-223" type="curve" smooth="yes"/>
      <point x="407" y="-223"/>
      <point x="432" y="-217"/>
    </contour>
  </outline>
</glyph>
<glyph name="florin" format="1">
  <advance width="342"/>
  <unicode hex="0192"/>
  <outline>
    <contour>
      <point x="164" y="-68" type="curve" smooth="yes"/>
      <point x="199" y="331" type="line"/>
      <point x="328" y="331" type="line"/>
      <point x="328" y="384" type="line"/>
      <point x="204" y="384" type="line"/>
      <point x="223" y="596" type="line" smooth="yes"/>
      <point x="229" y="665"/>
      <point x="250" y="697"/>
      <point x="299" y="697" type="curve" smooth="yes"/>
      <point x="321" y="697"/>
      <point x="342" y="692"/>
      <point x="369" y="680" type="curve"/>
      <point x="389" y="729" type="line"/>
      <point x="357" y="744"/>
      <point x="323" y="750"/>
      <point x="295" y="750" type="curve" smooth="yes"/>
      <point x="193" y="750"/>
      <point x="168" y="671"/>
      <point x="161" y="595" type="curve" smooth="yes"/>
      <point x="142" y="384" type="line"/>
      <point x="14" y="384" type="line"/>
      <point x="14" y="331" type="line"/>
      <point x="138" y="331" type="line"/>
      <point x="102" y="-69" type="line" smooth="yes"/>
      <point x="96" y="-138"/>
      <point x="75" y="-170"/>
      <point x="26" y="-170" type="curve" smooth="yes"/>
      <point x="4" y="-170"/>
      <point x="-17" y="-165"/>
      <point x="-44" y="-153" type="curve"/>
      <point x="-64" y="-202" type="line"/>
      <point x="-32" y="-217"/>
      <point x="2" y="-223"/>
      <point x="30" y="-223" type="curve" smooth="yes"/>
      <point x="132" y="-223"/>
      <point x="157" y="-144"/>
    </contour>
  </outline>
</glyph>
<glyph name="dotlessj" format="1">
  <advance width="250"/>
  <unicode hex="0237"/>
  <outline>
    <contour>
      <point x="-18" y="-223" type="line"/>
      <point x="112" y="-223"/>
      <point x="155" y="-153"/>
      <point x="155" y="-37" type="curve" smooth="yes"/>
      <point x="155" y="487" type="line"/>
      <point x="95" y="487" type="line"/>
      <point x="95" y="-37" type="line" smooth="yes"/>
      <point x="95" y="-141"/>
      <point x="56" y="-166"/>
      <point x="-18" y="-166" type="curve"/>
    </contour>
  </outline>
</glyph>
<glyph name="circumflex" format="1">
  <advance width="500"/>
  <unicode hex="02C6"/>
  <outline>
    <contour>
      <point x="320" y="579" type="line"/>
      <point x="373" y="579" type="line"/>
      <point x="282" y="740" type="line"/>
      <point x="219" y="740" type="line"/>
      <point x="128" y="579" type="line"/>
      <point x="177" y="579" type="line"/>
      <point x="249" y="685" type="line"/>
    </contour>
  </outline>
</glyph>
<glyph name="caron" format="1">
  <advance width="500"/>
  <unicode hex="02C7"/>
  <outline>
    <contour>
      <point x="373" y="740" type="line"/>
      <point x="324" y="740" type="line"/>
      <point x="253" y="634" type="line"/>
      <point x="181" y="740" type="line"/>
      <point x="128" y="740" type="line"/>
      <point x="219" y="579" type="line"/>
      <point x="282" y="579" type="line"/>
    </contour>
  </outline>
</glyph>
<glyph name="breve" format="1">
  <advance width="500"/>
  <unicode hex="02D8"/>
  <outline>
    <contour>
      <point x="250" y="636" type="curve" smooth="yes"/>
      <point x="205" y="636"/>
      <point x="178" y="661"/>
      <point x="172" y="731" type="curve"/>
      <point x="121" y="731" type="line"/>
      <point x="128" y="627"/>
      <point x="179" y="585"/>
      <point x="250" y="585" type="curve" smooth="yes"/>
      <point x="321" y="585"/>
      <point x="372" y="627"/>
      <point x="379" y="731" type="curve"/>
      <point x="328" y="731" type="line"/>
      <point x="322" y="661"/>
      <point x="296" y="636"/>
    </contour>
  </outline>
</glyph>
<glyph name="dotaccent" format="1">
  <advance width="500"/>
  <unicode hex="02D9"/>
  <outline>
    <contour>
      <point x="286" y="626" type="line"/>
      <point x="286" y="699" type="line"/>
      <point x="214" y="699" type="line"/>
      <point x="214" y="626" type="line"/>
    </contour>
  </outline>
</glyph>
<glyph name="ring" format="1">
  <advance width="500"/>
  <unicode hex="02DA"/>
  <outline>
    <contour>
      <point x="360" y="679" type="line" smooth="yes"/>
      <point x="360" y="741"/>
      <point x="317" y="783"/>
      <point x="250" y="783" type="curve" smooth="yes"/>
      <point x="183" y="783"/>
      <point x="140" y="741"/>
      <point x="140" y="679" type="curve" smooth="yes"/>
      <point x="140" y="668" type="line" smooth="yes"/>
      <point x="140" y="606"/>
      <point x="183" y="563"/>
      <point x="250" y="563" type="curve" smooth="yes"/>
      <point x="317" y="563"/>
      <point x="360" y="606"/>
      <point x="360" y="668" type="curve" smooth="yes"/>
    </contour>
    <contour>
      <point x="308" y="679" type="curve" smooth="yes"/>
      <point x="308" y="668" type="line" smooth="yes"/>
      <point x="308" y="633"/>
      <point x="285" y="611"/>
      <point x="250" y="611" type="curve" smooth="yes"/>
      <point x="215" y="611"/>
      <point x="192" y="634"/>
      <point x="192" y="668" type="curve" smooth="yes"/>
      <point x="192" y="679" type="line" smooth="yes"/>
      <point x="192" y="713"/>
      <point x="215" y="736"/>
      <point x="250" y="736" type="curve" smooth="yes"/>
      <point x="285" y="736"/>
      <point x="308" y="713"/>
    </contour>
  </outline>
</glyph>
<glyph name="ogonek" format="1">
  <advance width="500"/>
  <unicode hex="02DB"/>
  <outline>
    <contour>
      <point x="268" y="-170" type="curve" smooth="yes"/>
      <point x="238" y="-170"/>
      <point x="226" y="-155"/>
      <point x="226" y="-134" type="curve" smooth="yes"/>
      <point x="226" y="-99"/>
      <point x="248" y="-69"/>
      <point x="339" y="0" type="curve"/>
      <point x="320" y="43" type="line"/>
      <point x="199" y="-39"/>
      <point x="168" y="-89"/>
      <point x="168" y="-140" type="curve" smooth="yes"/>
      <point x="168" y="-190"/>
      <point x="201" y="-223"/>
      <point x="262" y="-223" type="curve" smooth="yes"/>
      <point x="288" y="-223"/>
      <point x="313" y="-217"/>
      <point x="339" y="-206" type="curve"/>
      <point x="325" y="-157" type="line"/>
      <point x="305" y="-165"/>
      <point x="285" y="-170"/>
    </contour>
  </outline>
</glyph>
<glyph name="tilde" format="1">
  <advance width="500"/>
  <unicode hex="02DC"/>
  <outline>
    <contour>
      <point x="311" y="588" type="curve" smooth="yes"/>
      <point x="357" y="588"/>
      <point x="390" y="623"/>
      <point x="392" y="715" type="curve"/>
      <point x="341" y="715" type="line"/>
      <point x="341" y="655"/>
      <point x="327" y="640"/>
      <point x="312" y="640" type="curve" smooth="yes"/>
      <point x="274" y="640"/>
      <point x="259" y="730"/>
      <point x="189" y="730" type="curve" smooth="yes"/>
      <point x="143" y="730"/>
      <point x="110" y="695"/>
      <point x="108" y="603" type="curve"/>
      <point x="159" y="603" type="line"/>
      <point x="159" y="663"/>
      <point x="173" y="678"/>
      <point x="188" y="678" type="curve" smooth="yes"/>
      <point x="226" y="678"/>
      <point x="241" y="588"/>
    </contour>
  </outline>
</glyph>
<glyph name="hungarumlaut" format="1">
  <advance width="500"/>
  <unicode hex="02DD"/>
  <outline>
    <contour>
      <point x="211" y="579" type="line"/>
      <point x="300" y="716" type="line"/>
      <point x="246" y="745" type="line"/>
      <point x="160" y="579" type="line"/>
    </contour>
    <contour>
      <point x="341" y="579" type="line"/>
      <point x="430" y="716" type="line"/>
      <point x="376" y="745" type="line"/>
      <point x="290" y="579" type="line"/>
    </contour>
  </outline>
</glyph>
<glyph name="pi" format="1">
  <advance width="547"/>
  <unicode hex="03C0"/>
  <outline>
    <contour>
      <point x="33" y="434" type="line"/>
      <point x="110" y="434" type="line"/>
      <point x="110" y="0" type="line"/>
      <point x="170" y="0" type="line"/>
      <point x="170" y="434" type="line"/>
      <point x="375" y="434" type="line"/>
      <point x="375" y="123" type="line" smooth="yes"/>
      <point x="375" y="29"/>
      <point x="407" y="-5"/>
      <point x="492" y="-5" type="curve" smooth="yes"/>
      <point x="512" y="-5" type="line"/>
      <point x="512" y="50" type="line"/>
      <point x="490" y="50" type="line" smooth="yes"/>
      <point x="446" y="50"/>
      <point x="435" y="68"/>
      <point x="435" y="123" type="curve" smooth="yes"/>
      <point x="435" y="434" type="line"/>
      <point x="512" y="434" type="line"/>
      <point x="512" y="487" type="line"/>
      <point x="33" y="487" type="line"/>
    </contour>
  </outline>
</glyph>
<glyph name="uni1E9E" format="1">
  <advance width="598"/>
  <unicode hex="1E9E"/>
  <outline>
    <contour>
      <point x="552" y="156" type="curve" smooth="yes"/>
      <point x="552" y="174" type="line" smooth="yes"/>
      <point x="552" y="278"/>
      <point x="499" y="330"/>
      <point x="413" y="361" type="curve" smooth="yes"/>
      <point x="364" y="379" type="line"/>
      <point x="476" y="584" type="line"/>
      <point x="476" y="627" type="line"/>
      <point x="433" y="669"/>
      <point x="371" y="690"/>
      <point x="297" y="690" type="curve" smooth="yes"/>
      <point x="171" y="690"/>
      <point x="100" y="606"/>
      <point x="100" y="477" type="curve" smooth="yes"/>
      <point x="100" y="0" type="line"/>
      <point x="165" y="0" type="line"/>
      <point x="165" y="477" type="line" smooth="yes"/>
      <point x="165" y="574"/>
      <point x="213" y="631"/>
      <point x="297" y="631" type="curve" smooth="yes"/>
      <point x="345" y="631"/>
      <point x="386" y="621"/>
      <point x="416" y="597" type="curve"/>
      <point x="303" y="389" type="line"/>
      <point x="303" y="337" type="line"/>
      <point x="389" y="304" type="line" smooth="yes"/>
      <point x="455" y="279"/>
      <point x="484" y="243"/>
      <point x="484" y="174" type="curve" smooth="yes"/>
      <point x="484" y="156" type="line" smooth="yes"/>
      <point x="484" y="89"/>
      <point x="450" y="49"/>
      <point x="386" y="49" type="curve" smooth="yes"/>
      <point x="339" y="49"/>
      <point x="299" y="59"/>
      <point x="248" y="84" type="curve"/>
      <point x="227" y="29" type="line"/>
      <point x="282" y="3"/>
      <point x="337" y="-10"/>
      <point x="386" y="-10" type="curve" smooth="yes"/>
      <point x="492" y="-10"/>
      <point x="552" y="56"/>
    </contour>
  </outline>
</glyph>
<glyph name="endash" format="1">
  <advance width="584"/>
  <unicode hex="2013"/>
  <outline>
    <contour>
      <point x="60" y="269" type="line"/>
      <point x="524" y="269" type="line"/>
      <point x="524" y="322" type="line"/>
      <point x="60" y="322" type="line"/>
    </contour>
  </outline>
</glyph>
<glyph name="emdash" format="1">
  <advance width="784"/>
  <unicode hex="2014"/>
  <outline>
    <contour>
      <point x="60" y="269" type="line"/>
      <point x="724" y="269" type="line"/>
      <point x="724" y="322" type="line"/>
      <point x="60" y="322" type="line"/>
    </contour>
  </outline>
</glyph>
<glyph name="quoteleft" format="1">
  <advance width="180"/>
  <unicode hex="2018"/>
  <outline>
    <contour>
      <point x="41" y="458" type="line"/>
      <point x="103" y="458" type="line"/>
      <point x="103" y="551"/>
      <point x="114" y="597"/>
      <point x="146" y="670" type="curve"/>
      <point x="103" y="690" type="line"/>
      <point x="64" y="615"/>
      <point x="41" y="551"/>
      <point x="41" y="477" type="curve" smooth="yes"/>
    </contour>
  </outline>
</glyph>
<glyph name="quoteright" format="1">
  <advance width="180"/>
  <unicode hex="2019"/>
  <outline>
    <contour>
      <point x="139" y="680" type="line"/>
      <point x="77" y="680" type="line"/>
      <point x="77" y="587"/>
      <point x="66" y="541"/>
      <point x="34" y="468" type="curve"/>
      <point x="77" y="448" type="line"/>
      <point x="116" y="523"/>
      <point x="139" y="587"/>
      <point x="139" y="661" type="curve" smooth="yes"/>
    </contour>
  </outline>
</glyph>
<glyph name="quotesinglbase" format="1">
  <advance width="180"/>
  <unicode hex="201A"/>
  <outline>
    <contour>
      <point x="121" y="73" type="line"/>
      <point x="59" y="73" type="line"/>
      <point x="59" y="-20"/>
      <point x="48" y="-66"/>
      <point x="16" y="-139" type="curve"/>
      <point x="59" y="-159" type="line"/>
      <point x="98" y="-84"/>
      <point x="121" y="-20"/>
      <point x="121" y="54" type="curve" smooth="yes"/>
    </contour>
  </outline>
</glyph>
<glyph name="quotedblleft" format="1">
  <advance width="330"/>
  <unicode hex="201C"/>
  <outline>
    <contour>
      <point x="191" y="458" type="line"/>
      <point x="253" y="458" type="line"/>
      <point x="253" y="551"/>
      <point x="264" y="597"/>
      <point x="296" y="670" type="curve"/>
      <point x="253" y="690" type="line"/>
      <point x="214" y="615"/>
      <point x="191" y="551"/>
      <point x="191" y="477" type="curve" smooth="yes"/>
    </contour>
    <contour>
      <point x="41" y="458" type="line"/>
      <point x="103" y="458" type="line"/>
      <point x="103" y="551"/>
      <point x="114" y="597"/>
      <point x="146" y="670" type="curve"/>
      <point x="103" y="690" type="line"/>
      <point x="64" y="615"/>
      <point x="41" y="551"/>
      <point x="41" y="477" type="curve" smooth="yes"/>
    </contour>
  </outline>
</glyph>
<glyph name="quotedblright" format="1">
  <advance width="330"/>
  <unicode hex="201D"/>
  <outline>
    <contour>
      <point x="139" y="680" type="line"/>
      <point x="77" y="680" type="line"/>
      <point x="77" y="587"/>
      <point x="66" y="541"/>
      <point x="34" y="468" type="curve"/>
      <point x="77" y="448" type="line"/>
      <point x="116" y="523"/>
      <point x="139" y="587"/>
      <point x="139" y="661" type="curve" smooth="yes"/>
    </contour>
    <contour>
      <point x="289" y="680" type="line"/>
      <point x="227" y="680" type="line"/>
      <point x="227" y="587"/>
      <point x="216" y="541"/>
      <point x="184" y="468" type="curve"/>
      <point x="227" y="448" type="line"/>
      <point x="266" y="523"/>
      <point x="289" y="587"/>
      <point x="289" y="661" type="curve" smooth="yes"/>
    </contour>
  </outline>
</glyph>
<glyph name="quotedblbase" format="1">
  <advance width="330"/>
  <unicode hex="201E"/>
  <outline>
    <contour>
      <point x="121" y="73" type="line"/>
      <point x="59" y="73" type="line"/>
      <point x="59" y="-20"/>
      <point x="48" y="-66"/>
      <point x="16" y="-139" type="curve"/>
      <point x="59" y="-159" type="line"/>
      <point x="98" y="-84"/>
      <point x="121" y="-20"/>
      <point x="121" y="54" type="curve" smooth="yes"/>
    </contour>
    <contour>
      <point x="271" y="73" type="line"/>
      <point x="209" y="73" type="line"/>
      <point x="209" y="-20"/>
      <point x="198" y="-66"/>
      <point x="166" y="-139" type="curve"/>
      <point x="209" y="-159" type="line"/>
      <point x="248" y="-84"/>
      <point x="271" y="-20"/>
      <point x="271" y="54" type="curve" smooth="yes"/>
    </contour>
  </outline>
</glyph>
<glyph name="dagger" format="1">
  <advance width="430"/>
  <unicode hex="2020"/>
  <outline>
    <contour>
      <point x="396" y="443" type="line"/>
      <point x="416" y="443" type="line"/>
      <point x="416" y="507" type="line"/>
      <point x="396" y="507" type="line"/>
      <point x="238" y="497" type="line"/>
      <point x="248" y="660" type="line"/>
      <point x="248" y="680" type="line"/>
      <point x="182" y="680" type="line"/>
      <point x="182" y="660" type="line"/>
      <point x="192" y="497" type="line"/>
      <point x="34" y="507" type="line"/>
      <point x="14" y="507" type="line"/>
      <point x="14" y="443" type="line"/>
      <point x="34" y="443" type="line"/>
      <point x="192" y="453" type="line"/>
      <point x="182" y="289" type="line"/>
      <point x="182" y="251" type="line"/>
      <point x="193" y="-143" type="line"/>
      <point x="237" y="-143" type="line"/>
      <point x="248" y="251" type="line"/>
      <point x="248" y="289" type="line"/>
      <point x="238" y="453" type="line"/>
    </contour>
  </outline>
</glyph>
<glyph name="daggerdbl" format="1">
  <advance width="452"/>
  <unicode hex="2021"/>
  <outline>
    <contour>
      <point x="259" y="-123" type="line"/>
      <point x="249" y="40" type="line"/>
      <point x="407" y="30" type="line"/>
      <point x="427" y="30" type="line"/>
      <point x="427" y="94" type="line"/>
      <point x="407" y="94" type="line"/>
      <point x="249" y="84" type="line"/>
      <point x="259" y="248" type="line"/>
      <point x="259" y="289" type="line"/>
      <point x="249" y="453" type="line"/>
      <point x="407" y="443" type="line"/>
      <point x="427" y="443" type="line"/>
      <point x="427" y="507" type="line"/>
      <point x="407" y="507" type="line"/>
      <point x="249" y="497" type="line"/>
      <point x="259" y="660" type="line"/>
      <point x="259" y="680" type="line"/>
      <point x="193" y="680" type="line"/>
      <point x="193" y="660" type="line"/>
      <point x="203" y="497" type="line"/>
      <point x="45" y="507" type="line"/>
      <point x="25" y="507" type="line"/>
      <point x="25" y="443" type="line"/>
      <point x="45" y="443" type="line"/>
      <point x="203" y="453" type="line"/>
      <point x="193" y="289" type="line"/>
      <point x="193" y="248" type="line"/>
      <point x="203" y="84" type="line"/>
      <point x="45" y="94" type="line"/>
      <point x="25" y="94" type="line"/>
      <point x="25" y="30" type="line"/>
      <point x="45" y="30" type="line"/>
      <point x="203" y="40" type="line"/>
      <point x="193" y="-123" type="line"/>
      <point x="193" y="-143" type="line"/>
      <point x="259" y="-143" type="line"/>
    </contour>
  </outline>
</glyph>
<glyph name="bullet" format="1">
  <advance width="244"/>
  <unicode hex="2022"/>
  <outline>
    <contour>
      <point x="178" y="277" type="line"/>
      <point x="178" y="390" type="line"/>
      <point x="66" y="390" type="line"/>
      <point x="66" y="277" type="line"/>
    </contour>
  </outline>
</glyph>
<glyph name="perthousand" format="1">
  <advance width="1113"/>
  <unicode hex="2030"/>
  <outline>
    <contour>
      <point x="309" y="546" type="line" smooth="yes"/>
      <point x="309" y="635"/>
      <point x="257" y="685"/>
      <point x="177" y="685" type="curve" smooth="yes"/>
      <point x="96" y="685"/>
      <point x="45" y="635"/>
      <point x="45" y="546" type="curve" smooth="yes"/>
      <point x="45" y="515" type="line" smooth="yes"/>
      <point x="45" y="425"/>
      <point x="96" y="375"/>
      <point x="177" y="375" type="curve" smooth="yes"/>
      <point x="257" y="375"/>
      <point x="309" y="425"/>
      <point x="309" y="515" type="curve" smooth="yes"/>
    </contour>
    <contour>
      <point x="542" y="680" type="line"/>
      <point x="180" y="0" type="line"/>
      <point x="237" y="0" type="line"/>
      <point x="599" y="680" type="line"/>
    </contour>
    <contour>
      <point x="253" y="546" type="curve" smooth="yes"/>
      <point x="253" y="515" type="line" smooth="yes"/>
      <point x="253" y="457"/>
      <point x="223" y="427"/>
      <point x="177" y="427" type="curve" smooth="yes"/>
      <point x="131" y="427"/>
      <point x="101" y="457"/>
      <point x="101" y="515" type="curve" smooth="yes"/>
      <point x="101" y="546" type="line" smooth="yes"/>
      <point x="101" y="604"/>
      <point x="131" y="634"/>
      <point x="177" y="634" type="curve" smooth="yes"/>
      <point x="223" y="634"/>
      <point x="253" y="604"/>
    </contour>
    <contour>
      <point x="734" y="166" type="line" smooth="yes"/>
      <point x="734" y="255"/>
      <point x="682" y="305"/>
      <point x="602" y="305" type="curve" smooth="yes"/>
      <point x="521" y="305"/>
      <point x="470" y="255"/>
      <point x="470" y="166" type="curve" smooth="yes"/>
      <point x="470" y="135" type="line" smooth="yes"/>
      <point x="470" y="45"/>
      <point x="521" y="-5"/>
      <point x="602" y="-5" type="curve" smooth="yes"/>
      <point x="682" y="-5"/>
      <point x="734" y="45"/>
      <point x="734" y="135" type="curve" smooth="yes"/>
    </contour>
    <contour>
      <point x="1068" y="166" type="line" smooth="yes"/>
      <point x="1068" y="255"/>
      <point x="1016" y="305"/>
      <point x="936" y="305" type="curve" smooth="yes"/>
      <point x="855" y="305"/>
      <point x="804" y="255"/>
      <point x="804" y="166" type="curve" smooth="yes"/>
      <point x="804" y="135" type="line" smooth="yes"/>
      <point x="804" y="45"/>
      <point x="855" y="-5"/>
      <point x="936" y="-5" type="curve" smooth="yes"/>
      <point x="1016" y="-5"/>
      <point x="1068" y="45"/>
      <point x="1068" y="135" type="curve" smooth="yes"/>
    </contour>
    <contour>
      <point x="678" y="166" type="curve" smooth="yes"/>
      <point x="678" y="135" type="line" smooth="yes"/>
      <point x="678" y="77"/>
      <point x="648" y="47"/>
      <point x="602" y="47" type="curve" smooth="yes"/>
      <point x="556" y="47"/>
      <point x="526" y="77"/>
      <point x="526" y="135" type="curve" smooth="yes"/>
      <point x="526" y="166" type="line" smooth="yes"/>
      <point x="526" y="224"/>
      <point x="556" y="254"/>
      <point x="602" y="254" type="curve" smooth="yes"/>
      <point x="648" y="254"/>
      <point x="678" y="224"/>
    </contour>
    <contour>
      <point x="1012" y="166" type="curve" smooth="yes"/>
      <point x="1012" y="135" type="line" smooth="yes"/>
      <point x="1012" y="77"/>
      <point x="982" y="47"/>
      <point x="936" y="47" type="curve" smooth="yes"/>
      <point x="890" y="47"/>
      <point x="860" y="77"/>
      <point x="860" y="135" type="curve" smooth="yes"/>
      <point x="860" y="166" type="line" smooth="yes"/>
      <point x="860" y="224"/>
      <point x="890" y="254"/>
      <point x="936" y="254" type="curve" smooth="yes"/>
      <point x="982" y="254"/>
      <point x="1012" y="224"/>
    </contour>
  </outline>
</glyph>
<glyph name="guilsinglleft" format="1">
  <advance width="368"/>
  <unicode hex="2039"/>
  <outline>
    <contour>
      <point x="312" y="87" type="line"/>
      <point x="101" y="249" type="line"/>
      <point x="312" y="409" type="line"/>
      <point x="312" y="478" type="line"/>
      <point x="36" y="266" type="line"/>
      <point x="36" y="229" type="line"/>
      <point x="312" y="14" type="line"/>
    </contour>
  </outline>
</glyph>
<glyph name="guilsinglright" format="1">
  <advance width="368"/>
  <unicode hex="203A"/>
  <outline>
    <contour>
      <point x="332" y="226" type="line"/>
      <point x="332" y="263" type="line"/>
      <point x="56" y="478" type="line"/>
      <point x="56" y="405" type="line"/>
      <point x="267" y="243" type="line"/>
      <point x="56" y="83" type="line"/>
      <point x="56" y="14" type="line"/>
    </contour>
  </outline>
</glyph>
<glyph name="fraction" format="1">
  <advance width="111"/>
  <unicode hex="2044"/>
  <outline>
    <contour>
      <point x="208" y="680" type="line"/>
      <point x="-154" y="0" type="line"/>
      <point x="-97" y="0" type="line"/>
      <point x="265" y="680" type="line"/>
    </contour>
  </outline>
</glyph>
<glyph name="Euro" format="1">
  <advance width="562"/>
  <unicode hex="20AC"/>
  <outline>
    <contour>
      <point x="523" y="31" type="curve"/>
      <point x="500" y="86" type="line"/>
      <point x="440" y="58"/>
      <point x="399" y="49"/>
      <point x="352" y="49" type="curve" smooth="yes"/>
      <point x="256" y="49"/>
      <point x="202" y="103"/>
      <point x="190" y="215" type="curve"/>
      <point x="397" y="215" type="line"/>
      <point x="408" y="271" type="line"/>
      <point x="188" y="271" type="line"/>
      <point x="188" y="387" type="line"/>
      <point x="425" y="387" type="line"/>
      <point x="436" y="443" type="line"/>
      <point x="189" y="443" type="line"/>
      <point x="195" y="570"/>
      <point x="250" y="631"/>
      <point x="351" y="631" type="curve" smooth="yes"/>
      <point x="399" y="631"/>
      <point x="450" y="619"/>
      <point x="501" y="594" type="curve"/>
      <point x="523" y="649" type="line"/>
      <point x="468" y="677"/>
      <point x="406" y="690"/>
      <point x="351" y="690" type="curve" smooth="yes"/>
      <point x="209" y="690"/>
      <point x="128" y="602"/>
      <point x="121" y="443" type="curve"/>
      <point x="30" y="443" type="line"/>
      <point x="30" y="387" type="line"/>
      <point x="120" y="387" type="line"/>
      <point x="120" y="271" type="line"/>
      <point x="30" y="271" type="line"/>
      <point x="30" y="215" type="line"/>
      <point x="122" y="215" type="line"/>
      <point x="136" y="70"/>
      <point x="215" y="-10"/>
      <point x="351" y="-10" type="curve" smooth="yes"/>
      <point x="405" y="-10"/>
      <point x="463" y="3"/>
    </contour>
  </outline>
</glyph>
<glyph name="uni20B9" format="1">
  <advance width="534"/>
  <unicode hex="20B9"/>
  <outline>
    <contour>
      <point x="366" y="0" type="curve"/>
      <point x="451" y="0" type="line"/>
      <point x="353" y="111"/>
      <point x="265" y="194"/>
      <point x="155" y="278" type="curve"/>
      <point x="219" y="278" type="line" smooth="yes"/>
      <point x="340" y="278"/>
      <point x="409" y="347"/>
      <point x="412" y="453" type="curve"/>
      <point x="502" y="453" type="line"/>
      <point x="502" y="506" type="line"/>
      <point x="412" y="506" type="line"/>
      <point x="412" y="555"/>
      <point x="392" y="598"/>
      <point x="354" y="627" type="curve"/>
      <point x="502" y="627" type="line"/>
      <point x="502" y="680" type="line"/>
      <point x="62" y="680" type="line"/>
      <point x="62" y="627" type="line"/>
      <point x="219" y="627" type="line" smooth="yes"/>
      <point x="292" y="627"/>
      <point x="342" y="583"/>
      <point x="344" y="506" type="curve"/>
      <point x="62" y="506" type="line"/>
      <point x="62" y="453" type="line"/>
      <point x="344" y="453" type="line"/>
      <point x="344" y="379"/>
      <point x="294" y="331"/>
      <point x="219" y="331" type="curve" smooth="yes"/>
      <point x="62" y="331" type="line"/>
      <point x="62" y="278" type="line"/>
      <point x="174" y="192"/>
      <point x="262" y="113"/>
    </contour>
  </outline>
</glyph>
